<?xml version="1.0" encoding="utf-8" standalone="no"?>
<!DOCTYPE svg PUBLIC "-//W3C//DTD SVG 1.1//EN"
  "http://www.w3.org/Graphics/SVG/1.1/DTD/svg11.dtd">
<!-- Created with matplotlib (https://matplotlib.org/) -->
<svg height="345.6pt" version="1.1" viewBox="0 0 460.8 345.6" width="460.8pt" xmlns="http://www.w3.org/2000/svg" xmlns:xlink="http://www.w3.org/1999/xlink">
 <defs>
  <style type="text/css">
*{stroke-linecap:butt;stroke-linejoin:round;}
  </style>
 </defs>
 <g id="figure_1">
  <g id="patch_1">
   <path d="M 0 345.6 
L 460.8 345.6 
L 460.8 0 
L 0 0 
z
" style="fill:#ffffff;"/>
  </g>
  <g id="axes_1">
   <g id="patch_2">
    <path d="M 57.6 307.584 
L 414.72 307.584 
L 414.72 41.472 
L 57.6 41.472 
z
" style="fill:#ffffff;"/>
   </g>
   <g id="matplotlib.axis_1">
    <g id="xtick_1">
     <g id="line2d_1">
      <defs>
       <path d="M 0 0 
L 0 3.5 
" id="mb9759d2e72" style="stroke:#000000;stroke-width:0.8;"/>
      </defs>
      <g>
       <use style="stroke:#000000;stroke-width:0.8;" x="73.832727" xlink:href="#mb9759d2e72" y="307.584"/>
      </g>
     </g>
     <g id="text_1">
      <!-- 0 -->
      <defs>
       <path d="M 31.78125 66.40625 
Q 24.171875 66.40625 20.328125 58.90625 
Q 16.5 51.421875 16.5 36.375 
Q 16.5 21.390625 20.328125 13.890625 
Q 24.171875 6.390625 31.78125 6.390625 
Q 39.453125 6.390625 43.28125 13.890625 
Q 47.125 21.390625 47.125 36.375 
Q 47.125 51.421875 43.28125 58.90625 
Q 39.453125 66.40625 31.78125 66.40625 
z
M 31.78125 74.21875 
Q 44.046875 74.21875 50.515625 64.515625 
Q 56.984375 54.828125 56.984375 36.375 
Q 56.984375 17.96875 50.515625 8.265625 
Q 44.046875 -1.421875 31.78125 -1.421875 
Q 19.53125 -1.421875 13.0625 8.265625 
Q 6.59375 17.96875 6.59375 36.375 
Q 6.59375 54.828125 13.0625 64.515625 
Q 19.53125 74.21875 31.78125 74.21875 
z
" id="DejaVuSans-48"/>
      </defs>
      <g transform="translate(70.651477 322.182437)scale(0.1 -0.1)">
       <use xlink:href="#DejaVuSans-48"/>
      </g>
     </g>
    </g>
    <g id="xtick_2">
     <g id="line2d_2">
      <g>
       <use style="stroke:#000000;stroke-width:0.8;" x="153.132812" xlink:href="#mb9759d2e72" y="307.584"/>
      </g>
     </g>
     <g id="text_2">
      <!-- 500 -->
      <defs>
       <path d="M 10.796875 72.90625 
L 49.515625 72.90625 
L 49.515625 64.59375 
L 19.828125 64.59375 
L 19.828125 46.734375 
Q 21.96875 47.46875 24.109375 47.828125 
Q 26.265625 48.1875 28.421875 48.1875 
Q 40.625 48.1875 47.75 41.5 
Q 54.890625 34.8125 54.890625 23.390625 
Q 54.890625 11.625 47.5625 5.09375 
Q 40.234375 -1.421875 26.90625 -1.421875 
Q 22.3125 -1.421875 17.546875 -0.640625 
Q 12.796875 0.140625 7.71875 1.703125 
L 7.71875 11.625 
Q 12.109375 9.234375 16.796875 8.0625 
Q 21.484375 6.890625 26.703125 6.890625 
Q 35.15625 6.890625 40.078125 11.328125 
Q 45.015625 15.765625 45.015625 23.390625 
Q 45.015625 31 40.078125 35.4375 
Q 35.15625 39.890625 26.703125 39.890625 
Q 22.75 39.890625 18.8125 39.015625 
Q 14.890625 38.140625 10.796875 36.28125 
z
" id="DejaVuSans-53"/>
      </defs>
      <g transform="translate(143.589062 322.182437)scale(0.1 -0.1)">
       <use xlink:href="#DejaVuSans-53"/>
       <use x="63.623047" xlink:href="#DejaVuSans-48"/>
       <use x="127.246094" xlink:href="#DejaVuSans-48"/>
      </g>
     </g>
    </g>
    <g id="xtick_3">
     <g id="line2d_3">
      <g>
       <use style="stroke:#000000;stroke-width:0.8;" x="232.432896" xlink:href="#mb9759d2e72" y="307.584"/>
      </g>
     </g>
     <g id="text_3">
      <!-- 1000 -->
      <defs>
       <path d="M 12.40625 8.296875 
L 28.515625 8.296875 
L 28.515625 63.921875 
L 10.984375 60.40625 
L 10.984375 69.390625 
L 28.421875 72.90625 
L 38.28125 72.90625 
L 38.28125 8.296875 
L 54.390625 8.296875 
L 54.390625 0 
L 12.40625 0 
z
" id="DejaVuSans-49"/>
      </defs>
      <g transform="translate(219.707896 322.182437)scale(0.1 -0.1)">
       <use xlink:href="#DejaVuSans-49"/>
       <use x="63.623047" xlink:href="#DejaVuSans-48"/>
       <use x="127.246094" xlink:href="#DejaVuSans-48"/>
       <use x="190.869141" xlink:href="#DejaVuSans-48"/>
      </g>
     </g>
    </g>
    <g id="xtick_4">
     <g id="line2d_4">
      <g>
       <use style="stroke:#000000;stroke-width:0.8;" x="311.73298" xlink:href="#mb9759d2e72" y="307.584"/>
      </g>
     </g>
     <g id="text_4">
      <!-- 1500 -->
      <g transform="translate(299.00798 322.182437)scale(0.1 -0.1)">
       <use xlink:href="#DejaVuSans-49"/>
       <use x="63.623047" xlink:href="#DejaVuSans-53"/>
       <use x="127.246094" xlink:href="#DejaVuSans-48"/>
       <use x="190.869141" xlink:href="#DejaVuSans-48"/>
      </g>
     </g>
    </g>
    <g id="xtick_5">
     <g id="line2d_5">
      <g>
       <use style="stroke:#000000;stroke-width:0.8;" x="391.033065" xlink:href="#mb9759d2e72" y="307.584"/>
      </g>
     </g>
     <g id="text_5">
      <!-- 2000 -->
      <defs>
       <path d="M 19.1875 8.296875 
L 53.609375 8.296875 
L 53.609375 0 
L 7.328125 0 
L 7.328125 8.296875 
Q 12.9375 14.109375 22.625 23.890625 
Q 32.328125 33.6875 34.8125 36.53125 
Q 39.546875 41.84375 41.421875 45.53125 
Q 43.3125 49.21875 43.3125 52.78125 
Q 43.3125 58.59375 39.234375 62.25 
Q 35.15625 65.921875 28.609375 65.921875 
Q 23.96875 65.921875 18.8125 64.3125 
Q 13.671875 62.703125 7.8125 59.421875 
L 7.8125 69.390625 
Q 13.765625 71.78125 18.9375 73 
Q 24.125 74.21875 28.421875 74.21875 
Q 39.75 74.21875 46.484375 68.546875 
Q 53.21875 62.890625 53.21875 53.421875 
Q 53.21875 48.921875 51.53125 44.890625 
Q 49.859375 40.875 45.40625 35.40625 
Q 44.1875 33.984375 37.640625 27.21875 
Q 31.109375 20.453125 19.1875 8.296875 
z
" id="DejaVuSans-50"/>
      </defs>
      <g transform="translate(378.308065 322.182437)scale(0.1 -0.1)">
       <use xlink:href="#DejaVuSans-50"/>
       <use x="63.623047" xlink:href="#DejaVuSans-48"/>
       <use x="127.246094" xlink:href="#DejaVuSans-48"/>
       <use x="190.869141" xlink:href="#DejaVuSans-48"/>
      </g>
     </g>
    </g>
   </g>
   <g id="matplotlib.axis_2">
    <g id="ytick_1">
     <g id="line2d_6">
      <defs>
       <path d="M 0 0 
L -3.5 0 
" id="mf05d779135" style="stroke:#000000;stroke-width:0.8;"/>
      </defs>
      <g>
       <use style="stroke:#000000;stroke-width:0.8;" x="57.6" xlink:href="#mf05d779135" y="306.443147"/>
      </g>
     </g>
     <g id="text_6">
      <!-- 0.6 -->
      <defs>
       <path d="M 10.6875 12.40625 
L 21 12.40625 
L 21 0 
L 10.6875 0 
z
" id="DejaVuSans-46"/>
       <path d="M 33.015625 40.375 
Q 26.375 40.375 22.484375 35.828125 
Q 18.609375 31.296875 18.609375 23.390625 
Q 18.609375 15.53125 22.484375 10.953125 
Q 26.375 6.390625 33.015625 6.390625 
Q 39.65625 6.390625 43.53125 10.953125 
Q 47.40625 15.53125 47.40625 23.390625 
Q 47.40625 31.296875 43.53125 35.828125 
Q 39.65625 40.375 33.015625 40.375 
z
M 52.59375 71.296875 
L 52.59375 62.3125 
Q 48.875 64.0625 45.09375 64.984375 
Q 41.3125 65.921875 37.59375 65.921875 
Q 27.828125 65.921875 22.671875 59.328125 
Q 17.53125 52.734375 16.796875 39.40625 
Q 19.671875 43.65625 24.015625 45.921875 
Q 28.375 48.1875 33.59375 48.1875 
Q 44.578125 48.1875 50.953125 41.515625 
Q 57.328125 34.859375 57.328125 23.390625 
Q 57.328125 12.15625 50.6875 5.359375 
Q 44.046875 -1.421875 33.015625 -1.421875 
Q 20.359375 -1.421875 13.671875 8.265625 
Q 6.984375 17.96875 6.984375 36.375 
Q 6.984375 53.65625 15.1875 63.9375 
Q 23.390625 74.21875 37.203125 74.21875 
Q 40.921875 74.21875 44.703125 73.484375 
Q 48.484375 72.75 52.59375 71.296875 
z
" id="DejaVuSans-54"/>
      </defs>
      <g transform="translate(34.696875 310.242366)scale(0.1 -0.1)">
       <use xlink:href="#DejaVuSans-48"/>
       <use x="63.623047" xlink:href="#DejaVuSans-46"/>
       <use x="95.410156" xlink:href="#DejaVuSans-54"/>
      </g>
     </g>
    </g>
    <g id="ytick_2">
     <g id="line2d_7">
      <g>
       <use style="stroke:#000000;stroke-width:0.8;" x="57.6" xlink:href="#mf05d779135" y="273.026448"/>
      </g>
     </g>
     <g id="text_7">
      <!-- 0.7 -->
      <defs>
       <path d="M 8.203125 72.90625 
L 55.078125 72.90625 
L 55.078125 68.703125 
L 28.609375 0 
L 18.3125 0 
L 43.21875 64.59375 
L 8.203125 64.59375 
z
" id="DejaVuSans-55"/>
      </defs>
      <g transform="translate(34.696875 276.825667)scale(0.1 -0.1)">
       <use xlink:href="#DejaVuSans-48"/>
       <use x="63.623047" xlink:href="#DejaVuSans-46"/>
       <use x="95.410156" xlink:href="#DejaVuSans-55"/>
      </g>
     </g>
    </g>
    <g id="ytick_3">
     <g id="line2d_8">
      <g>
       <use style="stroke:#000000;stroke-width:0.8;" x="57.6" xlink:href="#mf05d779135" y="239.609748"/>
      </g>
     </g>
     <g id="text_8">
      <!-- 0.8 -->
      <defs>
       <path d="M 31.78125 34.625 
Q 24.75 34.625 20.71875 30.859375 
Q 16.703125 27.09375 16.703125 20.515625 
Q 16.703125 13.921875 20.71875 10.15625 
Q 24.75 6.390625 31.78125 6.390625 
Q 38.8125 6.390625 42.859375 10.171875 
Q 46.921875 13.96875 46.921875 20.515625 
Q 46.921875 27.09375 42.890625 30.859375 
Q 38.875 34.625 31.78125 34.625 
z
M 21.921875 38.8125 
Q 15.578125 40.375 12.03125 44.71875 
Q 8.5 49.078125 8.5 55.328125 
Q 8.5 64.0625 14.71875 69.140625 
Q 20.953125 74.21875 31.78125 74.21875 
Q 42.671875 74.21875 48.875 69.140625 
Q 55.078125 64.0625 55.078125 55.328125 
Q 55.078125 49.078125 51.53125 44.71875 
Q 48 40.375 41.703125 38.8125 
Q 48.828125 37.15625 52.796875 32.3125 
Q 56.78125 27.484375 56.78125 20.515625 
Q 56.78125 9.90625 50.3125 4.234375 
Q 43.84375 -1.421875 31.78125 -1.421875 
Q 19.734375 -1.421875 13.25 4.234375 
Q 6.78125 9.90625 6.78125 20.515625 
Q 6.78125 27.484375 10.78125 32.3125 
Q 14.796875 37.15625 21.921875 38.8125 
z
M 18.3125 54.390625 
Q 18.3125 48.734375 21.84375 45.5625 
Q 25.390625 42.390625 31.78125 42.390625 
Q 38.140625 42.390625 41.71875 45.5625 
Q 45.3125 48.734375 45.3125 54.390625 
Q 45.3125 60.0625 41.71875 63.234375 
Q 38.140625 66.40625 31.78125 66.40625 
Q 25.390625 66.40625 21.84375 63.234375 
Q 18.3125 60.0625 18.3125 54.390625 
z
" id="DejaVuSans-56"/>
      </defs>
      <g transform="translate(34.696875 243.408967)scale(0.1 -0.1)">
       <use xlink:href="#DejaVuSans-48"/>
       <use x="63.623047" xlink:href="#DejaVuSans-46"/>
       <use x="95.410156" xlink:href="#DejaVuSans-56"/>
      </g>
     </g>
    </g>
    <g id="ytick_4">
     <g id="line2d_9">
      <g>
       <use style="stroke:#000000;stroke-width:0.8;" x="57.6" xlink:href="#mf05d779135" y="206.193049"/>
      </g>
     </g>
     <g id="text_9">
      <!-- 0.9 -->
      <defs>
       <path d="M 10.984375 1.515625 
L 10.984375 10.5 
Q 14.703125 8.734375 18.5 7.8125 
Q 22.3125 6.890625 25.984375 6.890625 
Q 35.75 6.890625 40.890625 13.453125 
Q 46.046875 20.015625 46.78125 33.40625 
Q 43.953125 29.203125 39.59375 26.953125 
Q 35.25 24.703125 29.984375 24.703125 
Q 19.046875 24.703125 12.671875 31.3125 
Q 6.296875 37.9375 6.296875 49.421875 
Q 6.296875 60.640625 12.9375 67.421875 
Q 19.578125 74.21875 30.609375 74.21875 
Q 43.265625 74.21875 49.921875 64.515625 
Q 56.59375 54.828125 56.59375 36.375 
Q 56.59375 19.140625 48.40625 8.859375 
Q 40.234375 -1.421875 26.421875 -1.421875 
Q 22.703125 -1.421875 18.890625 -0.6875 
Q 15.09375 0.046875 10.984375 1.515625 
z
M 30.609375 32.421875 
Q 37.25 32.421875 41.125 36.953125 
Q 45.015625 41.5 45.015625 49.421875 
Q 45.015625 57.28125 41.125 61.84375 
Q 37.25 66.40625 30.609375 66.40625 
Q 23.96875 66.40625 20.09375 61.84375 
Q 16.21875 57.28125 16.21875 49.421875 
Q 16.21875 41.5 20.09375 36.953125 
Q 23.96875 32.421875 30.609375 32.421875 
z
" id="DejaVuSans-57"/>
      </defs>
      <g transform="translate(34.696875 209.992267)scale(0.1 -0.1)">
       <use xlink:href="#DejaVuSans-48"/>
       <use x="63.623047" xlink:href="#DejaVuSans-46"/>
       <use x="95.410156" xlink:href="#DejaVuSans-57"/>
      </g>
     </g>
    </g>
    <g id="ytick_5">
     <g id="line2d_10">
      <g>
       <use style="stroke:#000000;stroke-width:0.8;" x="57.6" xlink:href="#mf05d779135" y="172.776349"/>
      </g>
     </g>
     <g id="text_10">
      <!-- 1.0 -->
      <g transform="translate(34.696875 176.575568)scale(0.1 -0.1)">
       <use xlink:href="#DejaVuSans-49"/>
       <use x="63.623047" xlink:href="#DejaVuSans-46"/>
       <use x="95.410156" xlink:href="#DejaVuSans-48"/>
      </g>
     </g>
    </g>
    <g id="ytick_6">
     <g id="line2d_11">
      <g>
       <use style="stroke:#000000;stroke-width:0.8;" x="57.6" xlink:href="#mf05d779135" y="139.359649"/>
      </g>
     </g>
     <g id="text_11">
      <!-- 1.1 -->
      <g transform="translate(34.696875 143.158868)scale(0.1 -0.1)">
       <use xlink:href="#DejaVuSans-49"/>
       <use x="63.623047" xlink:href="#DejaVuSans-46"/>
       <use x="95.410156" xlink:href="#DejaVuSans-49"/>
      </g>
     </g>
    </g>
    <g id="ytick_7">
     <g id="line2d_12">
      <g>
       <use style="stroke:#000000;stroke-width:0.8;" x="57.6" xlink:href="#mf05d779135" y="105.94295"/>
      </g>
     </g>
     <g id="text_12">
      <!-- 1.2 -->
      <g transform="translate(34.696875 109.742169)scale(0.1 -0.1)">
       <use xlink:href="#DejaVuSans-49"/>
       <use x="63.623047" xlink:href="#DejaVuSans-46"/>
       <use x="95.410156" xlink:href="#DejaVuSans-50"/>
      </g>
     </g>
    </g>
    <g id="ytick_8">
     <g id="line2d_13">
      <g>
       <use style="stroke:#000000;stroke-width:0.8;" x="57.6" xlink:href="#mf05d779135" y="72.52625"/>
      </g>
     </g>
     <g id="text_13">
      <!-- 1.3 -->
      <defs>
       <path d="M 40.578125 39.3125 
Q 47.65625 37.796875 51.625 33 
Q 55.609375 28.21875 55.609375 21.1875 
Q 55.609375 10.40625 48.1875 4.484375 
Q 40.765625 -1.421875 27.09375 -1.421875 
Q 22.515625 -1.421875 17.65625 -0.515625 
Q 12.796875 0.390625 7.625 2.203125 
L 7.625 11.71875 
Q 11.71875 9.328125 16.59375 8.109375 
Q 21.484375 6.890625 26.8125 6.890625 
Q 36.078125 6.890625 40.9375 10.546875 
Q 45.796875 14.203125 45.796875 21.1875 
Q 45.796875 27.640625 41.28125 31.265625 
Q 36.765625 34.90625 28.71875 34.90625 
L 20.21875 34.90625 
L 20.21875 43.015625 
L 29.109375 43.015625 
Q 36.375 43.015625 40.234375 45.921875 
Q 44.09375 48.828125 44.09375 54.296875 
Q 44.09375 59.90625 40.109375 62.90625 
Q 36.140625 65.921875 28.71875 65.921875 
Q 24.65625 65.921875 20.015625 65.03125 
Q 15.375 64.15625 9.8125 62.3125 
L 9.8125 71.09375 
Q 15.4375 72.65625 20.34375 73.4375 
Q 25.25 74.21875 29.59375 74.21875 
Q 40.828125 74.21875 47.359375 69.109375 
Q 53.90625 64.015625 53.90625 55.328125 
Q 53.90625 49.265625 50.4375 45.09375 
Q 46.96875 40.921875 40.578125 39.3125 
z
" id="DejaVuSans-51"/>
      </defs>
      <g transform="translate(34.696875 76.325469)scale(0.1 -0.1)">
       <use xlink:href="#DejaVuSans-49"/>
       <use x="63.623047" xlink:href="#DejaVuSans-46"/>
       <use x="95.410156" xlink:href="#DejaVuSans-51"/>
      </g>
     </g>
    </g>
    <g id="text_14">
     <!-- 1e−8 -->
     <defs>
      <path d="M 56.203125 29.59375 
L 56.203125 25.203125 
L 14.890625 25.203125 
Q 15.484375 15.921875 20.484375 11.0625 
Q 25.484375 6.203125 34.421875 6.203125 
Q 39.59375 6.203125 44.453125 7.46875 
Q 49.3125 8.734375 54.109375 11.28125 
L 54.109375 2.78125 
Q 49.265625 0.734375 44.1875 -0.34375 
Q 39.109375 -1.421875 33.890625 -1.421875 
Q 20.796875 -1.421875 13.15625 6.1875 
Q 5.515625 13.8125 5.515625 26.8125 
Q 5.515625 40.234375 12.765625 48.109375 
Q 20.015625 56 32.328125 56 
Q 43.359375 56 49.78125 48.890625 
Q 56.203125 41.796875 56.203125 29.59375 
z
M 47.21875 32.234375 
Q 47.125 39.59375 43.09375 43.984375 
Q 39.0625 48.390625 32.421875 48.390625 
Q 24.90625 48.390625 20.390625 44.140625 
Q 15.875 39.890625 15.1875 32.171875 
z
" id="DejaVuSans-101"/>
      <path d="M 10.59375 35.5 
L 73.1875 35.5 
L 73.1875 27.203125 
L 10.59375 27.203125 
z
" id="DejaVuSans-8722"/>
     </defs>
     <g transform="translate(57.6 38.472)scale(0.1 -0.1)">
      <use xlink:href="#DejaVuSans-49"/>
      <use x="63.623047" xlink:href="#DejaVuSans-101"/>
      <use x="125.146484" xlink:href="#DejaVuSans-8722"/>
      <use x="208.935547" xlink:href="#DejaVuSans-56"/>
     </g>
    </g>
   </g>
   <g id="line2d_14">
    <path clip-path="url(#p6cc1e8ba15)" d="M 73.832727 300.755628 
L 73.991327 299.948292 
L 74.149928 300.764484 
L 74.308528 299.871395 
L 74.467128 297.064115 
L 74.625728 303.880047 
L 74.784328 295.869119 
L 74.942928 299.872189 
L 75.101529 296.53009 
L 75.260129 295.906376 
L 75.418729 296.475766 
L 75.577329 296.480519 
L 75.735929 296.297424 
L 75.894529 303.622765 
L 76.37033 295.477247 
L 76.52893 297.649737 
L 76.84613 295.015572 
L 77.004731 298.174003 
L 77.163331 295.055647 
L 77.321931 294.18201 
L 77.480531 295.569119 
L 77.639131 293.899404 
L 77.797731 297.019991 
L 77.956332 289.816634 
L 78.114932 290.339566 
L 78.273532 291.590383 
L 78.432132 294.282253 
L 78.590732 293.506812 
L 78.749333 289.202773 
L 78.907933 290.752419 
L 79.383733 286.239374 
L 79.542333 290.160844 
L 79.700934 286.176917 
L 80.018134 287.664987 
L 80.176734 281.429061 
L 80.335334 283.045352 
L 80.493934 282.349507 
L 80.652535 285.945982 
L 80.811135 279.777598 
L 80.969735 283.433814 
L 81.128335 283.850516 
L 81.286935 280.000677 
L 81.445535 282.248916 
L 81.762736 279.093398 
L 81.921336 276.51584 
L 82.238536 279.254944 
L 82.397136 276.922279 
L 82.555737 277.788579 
L 82.872937 272.438725 
L 83.031537 279.248928 
L 83.348737 272.124789 
L 83.507338 273.120884 
L 83.665938 271.370049 
L 83.824538 268.287571 
L 83.983138 274.573943 
L 84.141738 275.494277 
L 84.300338 271.804945 
L 84.458939 271.099247 
L 84.617539 267.078146 
L 84.934739 270.834753 
L 85.251939 264.26229 
L 85.41054 267.720748 
L 85.56914 265.306649 
L 85.72774 266.429891 
L 85.88634 260.121409 
L 86.20354 262.248483 
L 86.362141 259.794358 
L 86.520741 261.959172 
L 86.837941 257.568331 
L 86.996541 258.663656 
L 87.155141 255.220284 
L 87.313742 257.069798 
L 87.472342 255.187632 
L 87.630942 256.444837 
L 87.789542 253.387573 
L 87.948142 255.707078 
L 88.106742 253.541704 
L 88.265343 254.228852 
L 88.423943 253.279596 
L 88.582543 253.923536 
L 88.741143 251.002486 
L 88.899743 250.649963 
L 89.058343 246.672752 
L 89.216944 249.874409 
L 89.375544 245.35607 
L 89.534144 245.143385 
L 89.692744 247.591774 
L 89.851344 246.323901 
L 90.009944 246.903677 
L 90.327145 242.395449 
L 90.485745 245.286345 
L 90.802945 240.470319 
L 90.961545 241.764121 
L 91.120146 241.534362 
L 91.278746 236.503072 
L 91.437346 237.889321 
L 91.595946 230.874389 
L 91.754546 236.959777 
L 92.071747 233.859643 
L 92.230347 239.497893 
L 92.388947 234.964538 
L 92.547547 234.871755 
L 92.706147 228.003288 
L 92.864748 235.236028 
L 93.181948 230.921885 
L 93.340548 231.039933 
L 93.499148 235.273601 
L 93.657748 232.619047 
L 93.816349 233.325911 
L 94.133549 223.07832 
L 94.292149 232.844682 
L 94.450749 226.120896 
L 94.609349 230.059457 
L 94.76795 221.41198 
L 95.08515 225.516689 
L 95.24375 232.396359 
L 95.40235 224.999801 
L 95.56095 223.847271 
L 95.719551 225.572242 
L 96.036751 223.480193 
L 96.195351 220.010661 
L 96.512551 223.409179 
L 96.671152 221.420815 
L 96.829752 224.455585 
L 97.146952 218.266172 
L 97.305552 220.521847 
L 97.622753 217.365147 
L 97.781353 217.157227 
L 97.939953 223.212411 
L 98.098553 210.244145 
L 98.257153 216.106608 
L 98.415753 213.512893 
L 98.574354 214.567294 
L 98.732954 211.797495 
L 98.891554 213.235619 
L 99.050154 210.686362 
L 99.208754 219.302655 
L 99.525955 211.826073 
L 99.684555 212.708922 
L 99.843155 215.764023 
L 100.001755 209.645005 
L 100.160355 216.116864 
L 100.318955 207.048667 
L 100.477556 208.045409 
L 100.636156 202.242807 
L 100.794756 211.03079 
L 100.953356 208.05381 
L 101.111956 213.071283 
L 101.270556 209.074928 
L 101.429157 210.922556 
L 101.587757 203.221221 
L 101.746357 207.842303 
L 101.904957 206.002592 
L 102.063557 213.594207 
L 102.222157 203.458248 
L 102.380758 211.697426 
L 102.697958 203.348115 
L 102.856558 209.757433 
L 103.015158 208.940084 
L 103.173758 212.071873 
L 103.490959 204.915111 
L 103.649559 208.122117 
L 103.808159 205.478729 
L 103.966759 205.916388 
L 104.12536 201.816273 
L 104.28396 201.141902 
L 104.44256 203.434431 
L 104.60116 211.730231 
L 104.75976 202.766947 
L 104.91836 210.771402 
L 105.076961 196.629115 
L 105.235561 204.298433 
L 105.394161 203.268109 
L 105.552761 198.764006 
L 105.869961 209.033713 
L 106.187162 197.248011 
L 106.345762 198.399689 
L 106.504362 210.310541 
L 106.662962 209.668604 
L 106.821562 204.091494 
L 106.980163 206.808617 
L 107.138763 201.18189 
L 107.297363 201.871385 
L 107.455963 206.329173 
L 107.614563 202.16487 
L 107.773163 205.105534 
L 108.090364 200.830628 
L 108.248964 204.747531 
L 108.407564 204.109036 
L 108.566164 207.837227 
L 108.724764 198.860617 
L 108.883365 202.600612 
L 109.041965 198.82946 
L 109.200565 206.978288 
L 109.359165 203.503999 
L 109.676365 205.974229 
L 109.834966 202.287251 
L 109.993566 205.96304 
L 110.152166 205.141324 
L 110.310766 207.44311 
L 110.469366 205.938056 
L 110.627966 209.092189 
L 110.786567 200.491848 
L 110.945167 205.175227 
L 111.103767 205.211326 
L 111.262367 207.538085 
L 111.420967 201.70128 
L 111.579567 207.729829 
L 111.896768 203.101723 
L 112.213968 208.793988 
L 112.372568 211.239759 
L 112.531168 205.655537 
L 112.689769 207.336713 
L 113.006969 215.329239 
L 113.165569 208.018056 
L 113.482769 214.526407 
L 113.64137 209.424147 
L 113.79997 213.544025 
L 113.95857 212.364047 
L 114.11717 217.264145 
L 114.592971 217.242617 
L 114.751571 222.088024 
L 114.910171 220.979595 
L 115.068771 224.986602 
L 115.227371 220.125465 
L 115.544572 226.516071 
L 115.703172 219.576088 
L 116.020372 227.449745 
L 116.178972 229.12794 
L 116.337573 224.012831 
L 116.813373 232.034858 
L 116.971973 230.600929 
L 117.130573 228.134462 
L 117.289174 233.828331 
L 117.447774 228.705208 
L 117.606374 231.060434 
L 117.764974 231.313041 
L 117.923574 235.751446 
L 118.082174 228.163519 
L 118.240775 231.334766 
L 118.399375 230.210963 
L 118.557975 232.590556 
L 118.716575 232.121078 
L 118.875175 235.722716 
L 119.033775 232.699185 
L 119.350976 235.553629 
L 119.509576 232.739283 
L 119.668176 240.320859 
L 119.826776 237.360131 
L 119.985376 240.980823 
L 120.143977 233.366837 
L 120.302577 237.107495 
L 120.461177 236.920036 
L 120.619777 240.761963 
L 120.936977 237.803906 
L 121.095578 240.816099 
L 121.254178 237.55964 
L 121.412778 241.928535 
L 121.571378 242.966444 
L 121.729978 238.474912 
L 121.888578 241.345412 
L 122.047179 236.841829 
L 122.205779 236.74626 
L 122.364379 247.655141 
L 122.522979 249.104088 
L 122.840179 239.936562 
L 123.15738 249.864668 
L 123.31598 246.586483 
L 123.47458 246.244629 
L 123.63318 253.226372 
L 123.79178 241.683586 
L 123.950381 249.228744 
L 124.108981 241.993682 
L 124.426181 252.328137 
L 124.584781 252.357876 
L 124.743381 249.49809 
L 124.901982 250.48587 
L 125.060582 248.843795 
L 125.219182 252.211197 
L 125.536382 247.333677 
L 125.694982 250.717789 
L 125.853583 250.677365 
L 126.012183 256.744163 
L 126.170783 255.289191 
L 126.329383 251.0386 
L 126.487983 258.661609 
L 126.646583 250.787983 
L 126.805184 257.943146 
L 126.963784 257.115074 
L 127.122384 261.61465 
L 127.280984 255.954527 
L 127.439584 258.234885 
L 127.598184 255.59163 
L 127.756785 260.542965 
L 127.915385 258.808644 
L 128.073985 266.693312 
L 128.232585 262.776547 
L 128.391185 264.337774 
L 128.549785 257.551162 
L 128.708386 263.745955 
L 128.866986 259.421848 
L 129.184186 264.290316 
L 129.501387 259.606976 
L 129.659987 267.594901 
L 129.818587 266.322727 
L 129.977187 268.30032 
L 130.135787 266.856047 
L 130.294387 268.535905 
L 130.452988 267.237673 
L 130.611588 272.788855 
L 130.770188 262.941954 
L 130.928788 268.881113 
L 131.087388 269.554448 
L 131.404589 268.653868 
L 131.563189 271.370982 
L 131.880389 267.964818 
L 132.038989 271.376666 
L 132.197589 270.604734 
L 132.51479 275.149082 
L 132.67339 273.197875 
L 132.99059 273.249666 
L 133.14919 275.565121 
L 133.307791 275.51566 
L 133.466391 270.202407 
L 133.783591 278.933845 
L 133.942191 281.973432 
L 134.100791 275.864192 
L 134.259392 280.009537 
L 134.417992 275.369634 
L 134.576592 284.232065 
L 134.735192 281.990483 
L 134.893792 277.748233 
L 135.052392 279.264673 
L 135.210993 277.974454 
L 135.369593 282.407517 
L 135.528193 283.422053 
L 135.686793 283.30041 
L 135.845393 281.736512 
L 136.003993 288.482002 
L 136.162594 283.894559 
L 136.321194 284.745009 
L 136.479794 281.919296 
L 136.638394 287.484858 
L 136.955594 286.819522 
L 137.114195 292.575555 
L 137.272795 287.911582 
L 137.431395 289.952334 
L 137.589995 286.771737 
L 137.748595 287.511912 
L 137.907195 289.500886 
L 138.065796 288.758694 
L 138.224396 287.370561 
L 138.382996 290.690846 
L 138.700196 288.804816 
L 138.858796 290.213993 
L 139.017397 290.078993 
L 139.175997 293.018989 
L 139.334597 293.753495 
L 139.493197 290.926431 
L 139.651797 294.487986 
L 139.810397 292.104712 
L 139.968998 292.71891 
L 140.127598 291.161363 
L 140.286198 292.617315 
L 140.444798 292.718569 
L 140.603398 294.197938 
L 140.761998 293.264933 
L 140.920599 296.106361 
L 141.079199 294.424827 
L 141.237799 296.367338 
L 141.396399 295.662913 
L 141.554999 298.084295 
L 141.7136 296.062257 
L 141.8722 297.852717 
L 142.0308 297.301337 
L 142.1894 295.844035 
L 142.348 298.544439 
L 142.5066 297.307021 
L 142.823801 300.782355 
L 142.982401 296.219635 
L 143.141001 298.032163 
L 143.299601 296.757318 
L 143.458201 300.566151 
L 143.775402 296.468264 
L 144.092602 301.351781 
L 144.251202 298.64035 
L 144.409802 298.802418 
L 144.568403 296.275107 
L 144.727003 297.887473 
L 144.885603 304.142412 
L 145.202803 301.449027 
L 145.361403 303.052355 
L 145.678604 298.151461 
L 145.837204 304.917668 
L 146.154404 301.608082 
L 146.313004 303.066394 
L 146.471605 301.658879 
L 146.630205 302.944424 
L 146.788805 305.412909 
L 147.106005 302.970824 
L 147.264605 302.207247 
L 147.423206 304.851838 
L 147.581806 301.979676 
L 147.740406 302.964131 
L 147.899006 306.82811 
L 148.057606 301.82764 
L 148.216206 305.675903 
L 148.374807 305.603721 
L 148.533407 307.584 
L 148.692007 302.454526 
L 149.009207 304.86788 
L 149.167807 301.661892 
L 149.326408 305.795202 
L 149.485008 305.305972 
L 149.802208 303.005238 
L 149.960808 304.896625 
L 150.119408 301.257547 
L 150.278009 300.930725 
L 150.595209 305.471052 
L 150.753809 306.330198 
L 150.912409 299.818957 
L 151.071009 303.206068 
L 151.22961 301.938584 
L 151.38821 303.600723 
L 151.54681 303.075075 
L 151.70541 300.332911 
L 151.86401 303.696292 
L 152.02261 303.069391 
L 152.181211 301.670247 
L 152.339811 304.020769 
L 152.498411 303.318021 
L 152.815611 296.554811 
L 152.974211 304.055524 
L 153.132812 304.048846 
L 153.291412 304.208569 
L 153.450012 304.895616 
L 153.608612 304.422443 
L 153.767212 301.266569 
L 153.925812 305.263203 
L 154.084413 297.391238 
L 154.243013 304.263373 
L 154.560213 300.716525 
L 154.718813 301.552284 
L 154.877414 300.755628 
L 155.036014 300.755628 
L 155.194614 299.948292 
L 155.353214 300.764484 
L 155.511814 299.871395 
L 155.670414 297.064115 
L 155.829015 303.880047 
L 155.987615 295.869119 
L 156.146215 299.872189 
L 156.304815 296.53009 
L 156.463415 295.906376 
L 156.622015 296.475766 
L 156.780616 296.480519 
L 156.939216 296.297424 
L 157.097816 303.622765 
L 157.573616 295.477247 
L 157.732217 297.649737 
L 158.049417 295.015572 
L 158.208017 298.174003 
L 158.366617 295.055647 
L 158.525217 294.18201 
L 158.683818 295.569119 
L 158.842418 293.899404 
L 159.001018 297.019991 
L 159.159618 289.816634 
L 159.318218 290.339566 
L 159.476818 291.590383 
L 159.635419 294.282253 
L 159.794019 293.506812 
L 159.952619 289.202773 
L 160.111219 290.752419 
L 160.58702 286.239374 
L 160.74562 290.160844 
L 160.90422 286.176917 
L 161.22142 287.664987 
L 161.38002 281.429061 
L 161.538621 283.045352 
L 161.697221 282.349507 
L 161.855821 285.945982 
L 162.014421 279.777598 
L 162.173021 283.433814 
L 162.331621 283.850516 
L 162.490222 280.000677 
L 162.648822 282.248916 
L 162.966022 279.093398 
L 163.124622 276.51584 
L 163.441823 279.254944 
L 163.600423 276.922279 
L 163.759023 277.788579 
L 164.076223 272.438725 
L 164.234823 279.248928 
L 164.552024 272.124789 
L 164.710624 273.120884 
L 164.869224 271.370049 
L 165.027824 268.287571 
L 165.186424 274.573943 
L 165.345025 275.494277 
L 165.503625 271.804945 
L 165.662225 271.099247 
L 165.820825 267.078146 
L 166.138025 270.834753 
L 166.455226 264.26229 
L 166.613826 267.720748 
L 166.772426 265.306649 
L 166.931026 266.429891 
L 167.089627 260.121409 
L 167.406827 262.248483 
L 167.565427 259.794358 
L 167.724027 261.959172 
L 168.041228 257.568331 
L 168.199828 258.663656 
L 168.358428 255.220284 
L 168.517028 257.069798 
L 168.675628 255.187632 
L 168.834228 256.444837 
L 168.992829 253.387573 
L 169.151429 255.707078 
L 169.310029 253.541704 
L 169.468629 254.228852 
L 169.627229 253.279596 
L 169.785829 253.923536 
L 169.94443 251.002486 
L 170.10303 250.649963 
L 170.26163 246.672752 
L 170.42023 249.874409 
L 170.57883 245.35607 
L 170.73743 245.143385 
L 170.896031 247.591774 
L 171.054631 246.323901 
L 171.213231 246.903677 
L 171.530431 242.395449 
L 171.689031 245.286345 
L 172.006232 240.470319 
L 172.164832 241.764121 
L 172.323432 241.534362 
L 172.482032 236.503072 
L 172.640632 237.889321 
L 172.799233 230.874389 
L 172.957833 236.959777 
L 173.275033 233.859643 
L 173.433633 239.497893 
L 173.592233 234.964538 
L 173.750834 234.871755 
L 173.909434 228.003288 
L 174.068034 235.236028 
L 174.385234 230.921885 
L 174.543834 231.039933 
L 174.702435 235.273601 
L 174.861035 232.619047 
L 175.019635 233.325911 
L 175.336835 223.07832 
L 175.495435 232.844682 
L 175.654036 226.120896 
L 175.812636 230.059457 
L 175.971236 221.41198 
L 176.288436 225.516689 
L 176.447036 232.396359 
L 176.605637 224.999801 
L 176.764237 223.847271 
L 176.922837 225.572242 
L 177.240037 223.480193 
L 177.398637 220.010661 
L 177.715838 223.409179 
L 177.874438 221.420815 
L 178.033038 224.455585 
L 178.350238 218.266172 
L 178.508839 220.521847 
L 178.826039 217.365147 
L 178.984639 217.157227 
L 179.143239 223.212411 
L 179.301839 210.244145 
L 179.46044 216.106608 
L 179.61904 213.512893 
L 179.77764 214.567294 
L 179.93624 211.797495 
L 180.09484 213.235619 
L 180.253441 210.686362 
L 180.412041 219.302655 
L 180.729241 211.826073 
L 180.887841 212.708922 
L 181.046441 215.764023 
L 181.205042 209.645005 
L 181.363642 216.116864 
L 181.522242 207.048667 
L 181.680842 208.045409 
L 181.839442 202.242807 
L 181.998042 211.03079 
L 182.156643 208.05381 
L 182.315243 213.071283 
L 182.473843 209.074928 
L 182.632443 210.922556 
L 182.791043 203.221221 
L 182.949643 207.842303 
L 183.108244 206.002592 
L 183.266844 213.594207 
L 183.425444 203.458248 
L 183.584044 211.697426 
L 183.901244 203.348115 
L 184.059845 209.757433 
L 184.218445 208.940084 
L 184.377045 212.071873 
L 184.694245 204.915111 
L 184.852845 208.122117 
L 185.011446 205.478729 
L 185.170046 205.916388 
L 185.328646 201.816273 
L 185.487246 201.141902 
L 185.645846 203.434431 
L 185.804446 211.730231 
L 185.963047 202.766947 
L 186.121647 210.771402 
L 186.280247 196.629115 
L 186.438847 204.298433 
L 186.597447 203.268109 
L 186.756047 198.764006 
L 187.073248 209.033713 
L 187.390448 197.248011 
L 187.549048 198.399689 
L 187.707648 210.310541 
L 187.866249 209.668604 
L 188.024849 204.091494 
L 188.183449 206.808617 
L 188.342049 201.18189 
L 188.500649 201.871385 
L 188.659249 206.329173 
L 188.81785 202.16487 
L 188.97645 205.105534 
L 189.29365 200.830628 
L 189.45225 204.747531 
L 189.61085 204.109036 
L 189.769451 207.837227 
L 189.928051 198.860617 
L 190.086651 202.600612 
L 190.245251 198.82946 
L 190.403851 206.978288 
L 190.562451 203.503999 
L 190.879652 205.974229 
L 191.038252 202.287251 
L 191.196852 205.96304 
L 191.355452 205.141324 
L 191.514052 207.44311 
L 191.672653 205.938056 
L 191.831253 209.092189 
L 191.989853 200.491848 
L 192.148453 205.175227 
L 192.307053 205.211326 
L 192.465654 207.538085 
L 192.624254 201.70128 
L 192.782854 207.729829 
L 193.100054 203.101723 
L 193.417255 208.793988 
L 193.575855 211.239759 
L 193.734455 205.655537 
L 193.893055 207.336713 
L 194.210255 215.329239 
L 194.368856 208.018056 
L 194.686056 214.526407 
L 194.844656 209.424147 
L 195.003256 213.544025 
L 195.161856 212.364047 
L 195.320457 217.264145 
L 195.796257 217.242617 
L 195.954857 222.088024 
L 196.113457 220.979595 
L 196.272058 224.986602 
L 196.430658 220.125465 
L 196.747858 226.516071 
L 196.906458 219.576088 
L 197.223659 227.449745 
L 197.382259 229.12794 
L 197.540859 224.012831 
L 198.016659 232.034858 
L 198.17526 230.600929 
L 198.33386 228.134462 
L 198.49246 233.828331 
L 198.65106 228.705208 
L 198.80966 231.060434 
L 198.96826 231.313041 
L 199.126861 235.751446 
L 199.285461 228.163519 
L 199.444061 231.334766 
L 199.602661 230.210963 
L 199.761261 232.590556 
L 199.919861 232.121078 
L 200.078462 235.722716 
L 200.237062 232.699185 
L 200.554262 235.553629 
L 200.712862 232.739283 
L 200.871462 240.320859 
L 201.030063 237.360131 
L 201.188663 240.980823 
L 201.347263 233.366837 
L 201.505863 237.107495 
L 201.664463 236.920036 
L 201.823063 240.761963 
L 202.140264 237.803906 
L 202.298864 240.816099 
L 202.457464 237.55964 
L 202.616064 241.928535 
L 202.774664 242.966444 
L 202.933265 238.474912 
L 203.091865 241.345412 
L 203.250465 236.841829 
L 203.409065 236.74626 
L 203.567665 247.655141 
L 203.726265 249.104088 
L 204.043466 239.936562 
L 204.360666 249.864668 
L 204.519266 246.586483 
L 204.677867 246.244629 
L 204.836467 253.226372 
L 204.995067 241.683586 
L 205.153667 249.228744 
L 205.312267 241.993682 
L 205.629468 252.328137 
L 205.788068 252.357876 
L 205.946668 249.49809 
L 206.105268 250.48587 
L 206.263868 248.843795 
L 206.422468 252.211197 
L 206.739669 247.333677 
L 206.898269 250.717789 
L 207.056869 250.677365 
L 207.215469 256.744163 
L 207.374069 255.289191 
L 207.53267 251.0386 
L 207.69127 258.661609 
L 207.84987 250.787983 
L 208.00847 257.943146 
L 208.16707 257.115074 
L 208.32567 261.61465 
L 208.484271 255.954527 
L 208.642871 258.234885 
L 208.801471 255.59163 
L 208.960071 260.542965 
L 209.118671 258.808644 
L 209.277271 266.693312 
L 209.435872 262.776547 
L 209.594472 264.337774 
L 209.753072 257.551162 
L 209.911672 263.745955 
L 210.070272 259.421848 
L 210.387473 264.290316 
L 210.704673 259.606976 
L 210.863273 267.594901 
L 211.021873 266.322727 
L 211.180473 268.30032 
L 211.339074 266.856047 
L 211.497674 268.535905 
L 211.656274 267.237673 
L 211.814874 272.788855 
L 211.973474 262.941954 
L 212.132074 268.881113 
L 212.290675 269.554448 
L 212.607875 268.653868 
L 212.766475 271.370982 
L 213.083675 267.964818 
L 213.242276 271.376666 
L 213.400876 270.604734 
L 213.718076 275.149082 
L 213.876676 273.197875 
L 214.193877 273.249666 
L 214.352477 275.565121 
L 214.511077 275.51566 
L 214.669677 270.202407 
L 214.986877 278.933845 
L 215.145478 281.973432 
L 215.304078 275.864192 
L 215.462678 280.009537 
L 215.621278 275.369634 
L 215.779878 284.232065 
L 215.938478 281.990483 
L 216.097079 277.748233 
L 216.255679 279.264673 
L 216.414279 277.974454 
L 216.572879 282.407517 
L 216.731479 283.422053 
L 216.890079 283.30041 
L 217.04868 281.736512 
L 217.20728 288.482002 
L 217.36588 283.894559 
L 217.52448 284.745009 
L 217.68308 281.919296 
L 217.841681 287.484858 
L 218.158881 286.819522 
L 218.317481 292.575555 
L 218.476081 287.911582 
L 218.634681 289.952334 
L 218.793282 286.771737 
L 218.951882 287.511912 
L 219.110482 289.500886 
L 219.269082 288.758694 
L 219.427682 287.370561 
L 219.586282 290.690846 
L 219.903483 288.804816 
L 220.062083 290.213993 
L 220.220683 290.078993 
L 220.379283 293.018989 
L 220.537883 293.753495 
L 220.696484 290.926431 
L 220.855084 294.487986 
L 221.013684 292.104712 
L 221.172284 292.71891 
L 221.330884 291.161363 
L 221.489484 292.617315 
L 221.648085 292.718569 
L 221.806685 294.197938 
L 221.965285 293.264933 
L 222.123885 296.106361 
L 222.282485 294.424827 
L 222.441085 296.367338 
L 222.599686 295.662913 
L 222.758286 298.084295 
L 222.916886 296.062257 
L 223.075486 297.852717 
L 223.234086 297.301337 
L 223.392686 295.844035 
L 223.551287 298.544439 
L 223.709887 297.307021 
L 224.027087 300.782355 
L 224.185687 296.219635 
L 224.344287 298.032163 
L 224.502888 296.757318 
L 224.661488 300.566151 
L 224.978688 296.468264 
L 225.295888 301.351781 
L 225.454489 298.64035 
L 225.613089 298.802418 
L 225.771689 296.275107 
L 225.930289 297.887473 
L 226.088889 304.142412 
L 226.40609 301.449027 
L 226.56469 303.052355 
L 226.88189 298.151461 
L 227.04049 304.917668 
L 227.357691 301.608082 
L 227.516291 303.066394 
L 227.674891 301.658879 
L 227.833491 302.944424 
L 227.992091 305.412909 
L 228.309292 302.970824 
L 228.467892 302.207247 
L 228.626492 304.851838 
L 228.785092 301.979676 
L 228.943692 302.964131 
L 229.102292 306.82811 
L 229.260893 301.82764 
L 229.419493 305.675903 
L 229.578093 305.603721 
L 229.736693 307.584 
L 229.895293 302.454526 
L 230.212494 304.86788 
L 230.371094 301.661892 
L 230.529694 305.795202 
L 230.688294 305.305972 
L 231.005495 303.005238 
L 231.164095 304.896625 
L 231.322695 301.257547 
L 231.481295 300.930725 
L 231.798495 305.471052 
L 231.957096 306.330198 
L 232.115696 299.818957 
L 232.274296 303.206068 
L 232.432896 301.938584 
L 232.591496 303.600723 
L 232.750096 303.075075 
L 232.908697 300.332911 
L 233.067297 303.696292 
L 233.225897 303.069391 
L 233.384497 301.670247 
L 233.543097 304.020769 
L 233.701697 303.318021 
L 234.018898 296.554811 
L 234.177498 304.055524 
L 234.336098 304.048846 
L 234.494698 304.208569 
L 234.653298 304.895616 
L 234.811899 304.422443 
L 234.970499 301.266569 
L 235.129099 305.263203 
L 235.287699 297.391238 
L 235.446299 304.263373 
L 235.7635 300.716525 
L 235.9221 301.552284 
L 236.0807 300.755628 
L 236.2393 300.755628 
L 236.3979 299.948292 
L 236.5565 300.764484 
L 236.715101 299.871395 
L 236.873701 297.064115 
L 237.032301 303.880047 
L 237.190901 295.869119 
L 237.349501 299.872189 
L 237.508101 296.53009 
L 237.666702 295.906376 
L 237.825302 296.475766 
L 237.983902 296.480519 
L 238.142502 296.297424 
L 238.301102 303.622765 
L 238.776903 295.477247 
L 238.935503 297.649737 
L 239.252703 295.015572 
L 239.411303 298.174003 
L 239.569904 295.055647 
L 239.728504 294.18201 
L 239.887104 295.569119 
L 240.045704 293.899404 
L 240.204304 297.019991 
L 240.362904 289.816634 
L 240.521505 290.339566 
L 240.680105 291.590383 
L 240.838705 294.282253 
L 240.997305 293.506812 
L 241.155905 289.202773 
L 241.314505 290.752419 
L 241.790306 286.239374 
L 241.948906 290.160844 
L 242.107506 286.176917 
L 242.424707 287.664987 
L 242.583307 281.429061 
L 242.741907 283.045352 
L 242.900507 282.349507 
L 243.059107 285.945982 
L 243.217708 279.777598 
L 243.376308 283.433814 
L 243.534908 283.850516 
L 243.693508 280.000677 
L 243.852108 282.248916 
L 244.169309 279.093398 
L 244.327909 276.51584 
L 244.645109 279.254944 
L 244.803709 276.922279 
L 244.962309 277.788579 
L 245.27951 272.438725 
L 245.43811 279.248928 
L 245.75531 272.124789 
L 245.91391 273.120884 
L 246.072511 271.370049 
L 246.231111 268.287571 
L 246.389711 274.573943 
L 246.548311 275.494277 
L 246.706911 271.804945 
L 246.865511 271.099247 
L 247.024112 267.078146 
L 247.341312 270.834753 
L 247.658512 264.26229 
L 247.817112 267.720748 
L 247.975713 265.306649 
L 248.134313 266.429891 
L 248.292913 260.121409 
L 248.610113 262.248483 
L 248.768713 259.794358 
L 248.927314 261.959172 
L 249.244514 257.568331 
L 249.403114 258.663656 
L 249.561714 255.220284 
L 249.720314 257.069798 
L 249.878915 255.187632 
L 250.037515 256.444837 
L 250.196115 253.387573 
L 250.354715 255.707078 
L 250.513315 253.541704 
L 250.671915 254.228852 
L 250.830516 253.279596 
L 250.989116 253.923536 
L 251.147716 251.002486 
L 251.306316 250.649963 
L 251.464916 246.672752 
L 251.623516 249.874409 
L 251.782117 245.35607 
L 251.940717 245.143385 
L 252.099317 247.591774 
L 252.257917 246.323901 
L 252.416517 246.903677 
L 252.733718 242.395449 
L 252.892318 245.286345 
L 253.209518 240.470319 
L 253.368118 241.764121 
L 253.526718 241.534362 
L 253.685319 236.503072 
L 253.843919 237.889321 
L 254.002519 230.874389 
L 254.161119 236.959777 
L 254.478319 233.859643 
L 254.63692 239.497893 
L 254.79552 234.964538 
L 254.95412 234.871755 
L 255.11272 228.003288 
L 255.27132 235.236028 
L 255.588521 230.921885 
L 255.747121 231.039933 
L 255.905721 235.273601 
L 256.064321 232.619047 
L 256.222921 233.325911 
L 256.540122 223.07832 
L 256.698722 232.844682 
L 256.857322 226.120896 
L 257.015922 230.059457 
L 257.174522 221.41198 
L 257.491723 225.516689 
L 257.650323 232.396359 
L 257.808923 224.999801 
L 257.967523 223.847271 
L 258.126123 225.572242 
L 258.443324 223.480193 
L 258.601924 220.010661 
L 258.919124 223.409179 
L 259.077724 221.420815 
L 259.236325 224.455585 
L 259.553525 218.266172 
L 259.712125 220.521847 
L 260.029325 217.365147 
L 260.187926 217.157227 
L 260.346526 223.212411 
L 260.505126 210.244145 
L 260.663726 216.106608 
L 260.822326 213.512893 
L 260.980926 214.567294 
L 261.139527 211.797495 
L 261.298127 213.235619 
L 261.456727 210.686362 
L 261.615327 219.302655 
L 261.932527 211.826073 
L 262.091128 212.708922 
L 262.249728 215.764023 
L 262.408328 209.645005 
L 262.566928 216.116864 
L 262.725528 207.048667 
L 262.884128 208.045409 
L 263.042729 202.242807 
L 263.201329 211.03079 
L 263.359929 208.05381 
L 263.518529 213.071283 
L 263.677129 209.074928 
L 263.835729 210.922556 
L 263.99433 203.221221 
L 264.15293 207.842303 
L 264.31153 206.002592 
L 264.47013 213.594207 
L 264.62873 203.458248 
L 264.78733 211.697426 
L 265.104531 203.348115 
L 265.263131 209.757433 
L 265.421731 208.940084 
L 265.580331 212.071873 
L 265.897532 204.915111 
L 266.056132 208.122117 
L 266.214732 205.478729 
L 266.373332 205.916388 
L 266.531932 201.816273 
L 266.690532 201.141902 
L 266.849133 203.434431 
L 267.007733 211.730231 
L 267.166333 202.766947 
L 267.324933 210.771402 
L 267.483533 196.629115 
L 267.642133 204.298433 
L 267.800734 203.268109 
L 267.959334 198.764006 
L 268.276534 209.033713 
L 268.593735 197.248011 
L 268.752335 198.399689 
L 268.910935 210.310541 
L 269.069535 209.668604 
L 269.228135 204.091494 
L 269.386735 206.808617 
L 269.545336 201.18189 
L 269.703936 201.871385 
L 269.862536 206.329173 
L 270.021136 202.16487 
L 270.179736 205.105534 
L 270.496937 200.830628 
L 270.655537 204.747531 
L 270.814137 204.109036 
L 270.972737 207.837227 
L 271.131337 198.860617 
L 271.289937 202.600612 
L 271.448538 198.82946 
L 271.607138 206.978288 
L 271.765738 203.503999 
L 272.082938 205.974229 
L 272.241538 202.287251 
L 272.400139 205.96304 
L 272.558739 205.141324 
L 272.717339 207.44311 
L 272.875939 205.938056 
L 273.034539 209.092189 
L 273.193139 200.491848 
L 273.35174 205.175227 
L 273.51034 205.211326 
L 273.66894 207.538085 
L 273.82754 201.70128 
L 273.98614 207.729829 
L 274.303341 203.101723 
L 274.620541 208.793988 
L 274.779141 211.239759 
L 274.937741 205.655537 
L 275.096341 207.336713 
L 275.413542 215.329239 
L 275.572142 208.018056 
L 275.889342 214.526407 
L 276.047942 209.424147 
L 276.206543 213.544025 
L 276.365143 212.364047 
L 276.523743 217.264145 
L 276.999543 217.242617 
L 277.158144 222.088024 
L 277.316744 220.979595 
L 277.475344 224.986602 
L 277.633944 220.125465 
L 277.951144 226.516071 
L 278.109745 219.576088 
L 278.426945 227.449745 
L 278.585545 229.12794 
L 278.744145 224.012831 
L 279.219946 232.034858 
L 279.378546 230.600929 
L 279.537146 228.134462 
L 279.695746 233.828331 
L 279.854346 228.705208 
L 280.012947 231.060434 
L 280.171547 231.313041 
L 280.330147 235.751446 
L 280.488747 228.163519 
L 280.647347 231.334766 
L 280.805948 230.210963 
L 280.964548 232.590556 
L 281.123148 232.121078 
L 281.281748 235.722716 
L 281.440348 232.699185 
L 281.757549 235.553629 
L 281.916149 232.739283 
L 282.074749 240.320859 
L 282.233349 237.360131 
L 282.391949 240.980823 
L 282.550549 233.366837 
L 282.70915 237.107495 
L 282.86775 236.920036 
L 283.02635 240.761963 
L 283.34355 237.803906 
L 283.50215 240.816099 
L 283.660751 237.55964 
L 283.819351 241.928535 
L 283.977951 242.966444 
L 284.136551 238.474912 
L 284.295151 241.345412 
L 284.453751 236.841829 
L 284.612352 236.74626 
L 284.770952 247.655141 
L 284.929552 249.104088 
L 285.246752 239.936562 
L 285.563953 249.864668 
L 285.722553 246.586483 
L 285.881153 246.244629 
L 286.039753 253.226372 
L 286.198353 241.683586 
L 286.356953 249.228744 
L 286.515554 241.993682 
L 286.832754 252.328137 
L 286.991354 252.357876 
L 287.149954 249.49809 
L 287.308554 250.48587 
L 287.467155 248.843795 
L 287.625755 252.211197 
L 287.942955 247.333677 
L 288.101555 250.717789 
L 288.260155 250.677365 
L 288.418756 256.744163 
L 288.577356 255.289191 
L 288.735956 251.0386 
L 288.894556 258.661609 
L 289.053156 250.787983 
L 289.211756 257.943146 
L 289.370357 257.115074 
L 289.528957 261.61465 
L 289.687557 255.954527 
L 289.846157 258.234885 
L 290.004757 255.59163 
L 290.163357 260.542965 
L 290.321958 258.808644 
L 290.480558 266.693312 
L 290.639158 262.776547 
L 290.797758 264.337774 
L 290.956358 257.551162 
L 291.114958 263.745955 
L 291.273559 259.421848 
L 291.590759 264.290316 
L 291.907959 259.606976 
L 292.066559 267.594901 
L 292.22516 266.322727 
L 292.38376 268.30032 
L 292.54236 266.856047 
L 292.70096 268.535905 
L 292.85956 267.237673 
L 293.018161 272.788855 
L 293.176761 262.941954 
L 293.335361 268.881113 
L 293.493961 269.554448 
L 293.811161 268.653868 
L 293.969762 271.370982 
L 294.286962 267.964818 
L 294.445562 271.376666 
L 294.604162 270.604734 
L 294.921363 275.149082 
L 295.079963 273.197875 
L 295.397163 273.249666 
L 295.555763 275.565121 
L 295.714363 275.51566 
L 295.872964 270.202407 
L 296.190164 278.933845 
L 296.348764 281.973432 
L 296.507364 275.864192 
L 296.665964 280.009537 
L 296.824565 275.369634 
L 296.983165 284.232065 
L 297.141765 281.990483 
L 297.300365 277.748233 
L 297.458965 279.264673 
L 297.617565 277.974454 
L 297.776166 282.407517 
L 297.934766 283.422053 
L 298.093366 283.30041 
L 298.251966 281.736512 
L 298.410566 288.482002 
L 298.569166 283.894559 
L 298.727767 284.745009 
L 298.886367 281.919296 
L 299.044967 287.484858 
L 299.362167 286.819522 
L 299.520767 292.575555 
L 299.679368 287.911582 
L 299.837968 289.952334 
L 299.996568 286.771737 
L 300.155168 287.511912 
L 300.313768 289.500886 
L 300.472368 288.758694 
L 300.630969 287.370561 
L 300.789569 290.690846 
L 301.106769 288.804816 
L 301.265369 290.213993 
L 301.423969 290.078993 
L 301.58257 293.018989 
L 301.74117 293.753495 
L 301.89977 290.926431 
L 302.05837 294.487986 
L 302.21697 292.104712 
L 302.37557 292.71891 
L 302.534171 291.161363 
L 302.692771 292.617315 
L 302.851371 292.718569 
L 303.009971 294.197938 
L 303.168571 293.264933 
L 303.327171 296.106361 
L 303.485772 294.424827 
L 303.644372 296.367338 
L 303.802972 295.662913 
L 303.961572 298.084295 
L 304.120172 296.062257 
L 304.278772 297.852717 
L 304.437373 297.301337 
L 304.595973 295.844035 
L 304.754573 298.544439 
L 304.913173 297.307021 
L 305.230373 300.782355 
L 305.388974 296.219635 
L 305.547574 298.032163 
L 305.706174 296.757318 
L 305.864774 300.566151 
L 306.181975 296.468264 
L 306.499175 301.351781 
L 306.657775 298.64035 
L 306.816375 298.802418 
L 306.974975 296.275107 
L 307.133576 297.887473 
L 307.292176 304.142412 
L 307.609376 301.449027 
L 307.767976 303.052355 
L 308.085177 298.151461 
L 308.243777 304.917668 
L 308.560977 301.608082 
L 308.719577 303.066394 
L 308.878177 301.658879 
L 309.036778 302.944424 
L 309.195378 305.412909 
L 309.512578 302.970824 
L 309.671178 302.207247 
L 309.829778 304.851838 
L 309.988379 301.979676 
L 310.146979 302.964131 
L 310.305579 306.82811 
L 310.464179 301.82764 
L 310.622779 305.675903 
L 310.781379 305.603721 
L 310.93998 307.584 
L 311.09858 302.454526 
L 311.41578 304.86788 
L 311.57438 301.661892 
L 311.73298 305.795202 
L 311.891581 305.305972 
L 312.208781 303.005238 
L 312.367381 304.896625 
L 312.525981 301.257547 
L 312.684581 300.930725 
L 313.001782 305.471052 
L 313.160382 306.330198 
L 313.318982 299.818957 
L 313.477582 303.206068 
L 313.636182 301.938584 
L 313.794783 303.600723 
L 313.953383 303.075075 
L 314.111983 300.332911 
L 314.270583 303.696292 
L 314.429183 303.069391 
L 314.587783 301.670247 
L 314.746384 304.020769 
L 314.904984 303.318021 
L 315.222184 296.554811 
L 315.380784 304.055524 
L 315.539384 304.048846 
L 315.697985 304.208569 
L 315.856585 304.895616 
L 316.015185 304.422443 
L 316.173785 301.266569 
L 316.332385 305.263203 
L 316.490985 297.391238 
L 316.649586 304.263373 
L 316.966786 300.716525 
L 317.125386 301.552284 
L 317.283986 300.755628 
L 317.442586 300.755628 
L 317.601187 299.948292 
L 317.759787 300.764484 
L 317.918387 299.871395 
L 318.076987 297.064115 
L 318.235587 303.880047 
L 318.394188 295.869119 
L 318.552788 299.872189 
L 318.711388 296.53009 
L 318.869988 295.906376 
L 319.028588 296.475766 
L 319.187188 296.480519 
L 319.345789 296.297424 
L 319.504389 303.622765 
L 319.980189 295.477247 
L 320.138789 297.649737 
L 320.45599 295.015572 
L 320.61459 298.174003 
L 320.77319 295.055647 
L 320.93179 294.18201 
L 321.09039 295.569119 
L 321.248991 293.899404 
L 321.407591 297.019991 
L 321.566191 289.816634 
L 321.724791 290.339566 
L 321.883391 291.590383 
L 322.041991 294.282253 
L 322.200592 293.506812 
L 322.359192 289.202773 
L 322.517792 290.752419 
L 322.993592 286.239374 
L 323.152193 290.160844 
L 323.310793 286.176917 
L 323.627993 287.664987 
L 323.786593 281.429061 
L 323.945193 283.045352 
L 324.103794 282.349507 
L 324.262394 285.945982 
L 324.420994 279.777598 
L 324.579594 283.433814 
L 324.738194 283.850516 
L 324.896794 280.000677 
L 325.055395 282.248916 
L 325.372595 279.093398 
L 325.531195 276.51584 
L 325.848395 279.254944 
L 326.006996 276.922279 
L 326.165596 277.788579 
L 326.482796 272.438725 
L 326.641396 279.248928 
L 326.958597 272.124789 
L 327.117197 273.120884 
L 327.275797 271.370049 
L 327.434397 268.287571 
L 327.592997 274.573943 
L 327.751597 275.494277 
L 327.910198 271.804945 
L 328.068798 271.099247 
L 328.227398 267.078146 
L 328.544598 270.834753 
L 328.861799 264.26229 
L 329.020399 267.720748 
L 329.178999 265.306649 
L 329.337599 266.429891 
L 329.496199 260.121409 
L 329.8134 262.248483 
L 329.972 259.794358 
L 330.1306 261.959172 
L 330.4478 257.568331 
L 330.6064 258.663656 
L 330.765001 255.220284 
L 330.923601 257.069798 
L 331.082201 255.187632 
L 331.240801 256.444837 
L 331.399401 253.387573 
L 331.558002 255.707078 
L 331.716602 253.541704 
L 331.875202 254.228852 
L 332.033802 253.279596 
L 332.192402 253.923536 
L 332.351002 251.002486 
L 332.509603 250.649963 
L 332.668203 246.672752 
L 332.826803 249.874409 
L 332.985403 245.35607 
L 333.144003 245.143385 
L 333.302603 247.591774 
L 333.461204 246.323901 
L 333.619804 246.903677 
L 333.937004 242.395449 
L 334.095604 245.286345 
L 334.412805 240.470319 
L 334.571405 241.764121 
L 334.730005 241.534362 
L 334.888605 236.503072 
L 335.047205 237.889321 
L 335.205805 230.874389 
L 335.364406 236.959777 
L 335.681606 233.859643 
L 335.840206 239.497893 
L 335.998806 234.964538 
L 336.157406 234.871755 
L 336.316007 228.003288 
L 336.474607 235.236028 
L 336.791807 230.921885 
L 336.950407 231.039933 
L 337.109007 235.273601 
L 337.267608 232.619047 
L 337.426208 233.325911 
L 337.743408 223.07832 
L 337.902008 232.844682 
L 338.060608 226.120896 
L 338.219209 230.059457 
L 338.377809 221.41198 
L 338.695009 225.516689 
L 338.853609 232.396359 
L 339.012209 224.999801 
L 339.17081 223.847271 
L 339.32941 225.572242 
L 339.64661 223.480193 
L 339.80521 220.010661 
L 340.122411 223.409179 
L 340.281011 221.420815 
L 340.439611 224.455585 
L 340.756811 218.266172 
L 340.915411 220.521847 
L 341.232612 217.365147 
L 341.391212 217.157227 
L 341.549812 223.212411 
L 341.708412 210.244145 
L 341.867012 216.106608 
L 342.025613 213.512893 
L 342.184213 214.567294 
L 342.342813 211.797495 
L 342.501413 213.235619 
L 342.660013 210.686362 
L 342.818613 219.302655 
L 343.135814 211.826073 
L 343.294414 212.708922 
L 343.453014 215.764023 
L 343.611614 209.645005 
L 343.770215 216.116864 
L 343.928815 207.048667 
L 344.087415 208.045409 
L 344.246015 202.242807 
L 344.404615 211.03079 
L 344.563215 208.05381 
L 344.721816 213.071283 
L 344.880416 209.074928 
L 345.039016 210.922556 
L 345.197616 203.221221 
L 345.356216 207.842303 
L 345.514816 206.002592 
L 345.673417 213.594207 
L 345.832017 203.458248 
L 345.990617 211.697426 
L 346.307817 203.348115 
L 346.466417 209.757433 
L 346.625018 208.940084 
L 346.783618 212.071873 
L 347.100818 204.915111 
L 347.259418 208.122117 
L 347.418018 205.478729 
L 347.576619 205.916388 
L 347.735219 201.816273 
L 347.893819 201.141902 
L 348.052419 203.434431 
L 348.211019 211.730231 
L 348.369619 202.766947 
L 348.52822 210.771402 
L 348.68682 196.629115 
L 348.84542 204.298433 
L 349.00402 203.268109 
L 349.16262 198.764006 
L 349.479821 209.033713 
L 349.797021 197.248011 
L 349.955621 198.399689 
L 350.114221 210.310541 
L 350.272821 209.668604 
L 350.431422 204.091494 
L 350.590022 206.808617 
L 350.748622 201.18189 
L 350.907222 201.871385 
L 351.065822 206.329173 
L 351.224422 202.16487 
L 351.383023 205.105534 
L 351.700223 200.830628 
L 351.858823 204.747531 
L 352.017423 204.109036 
L 352.176023 207.837227 
L 352.334624 198.860617 
L 352.493224 202.600612 
L 352.651824 198.82946 
L 352.810424 206.978288 
L 352.969024 203.503999 
L 353.286225 205.974229 
L 353.444825 202.287251 
L 353.603425 205.96304 
L 353.762025 205.141324 
L 353.920625 207.44311 
L 354.079225 205.938056 
L 354.237826 209.092189 
L 354.396426 200.491848 
L 354.555026 205.175227 
L 354.713626 205.211326 
L 354.872226 207.538085 
L 355.030826 201.70128 
L 355.189427 207.729829 
L 355.506627 203.101723 
L 355.823827 208.793988 
L 355.982427 211.239759 
L 356.141028 205.655537 
L 356.299628 207.336713 
L 356.616828 215.329239 
L 356.775428 208.018056 
L 357.092629 214.526407 
L 357.251229 209.424147 
L 357.409829 213.544025 
L 357.568429 212.364047 
L 357.727029 217.264145 
L 358.20283 217.242617 
L 358.36143 222.088024 
L 358.52003 220.979595 
L 358.67863 224.986602 
L 358.837231 220.125465 
L 359.154431 226.516071 
L 359.313031 219.576088 
L 359.630231 227.449745 
L 359.788832 229.12794 
L 359.947432 224.012831 
L 360.423232 232.034858 
L 360.581832 230.600929 
L 360.740433 228.134462 
L 360.899033 233.828331 
L 361.057633 228.705208 
L 361.216233 231.060434 
L 361.374833 231.313041 
L 361.533433 235.751446 
L 361.692034 228.163519 
L 361.850634 231.334766 
L 362.009234 230.210963 
L 362.167834 232.590556 
L 362.326434 232.121078 
L 362.485034 235.722716 
L 362.643635 232.699185 
L 362.960835 235.553629 
L 363.119435 232.739283 
L 363.278035 240.320859 
L 363.436635 237.360131 
L 363.595236 240.980823 
L 363.753836 233.366837 
L 363.912436 237.107495 
L 364.071036 236.920036 
L 364.229636 240.761963 
L 364.546837 237.803906 
L 364.705437 240.816099 
L 364.864037 237.55964 
L 365.022637 241.928535 
L 365.181237 242.966444 
L 365.339837 238.474912 
L 365.498438 241.345412 
L 365.657038 236.841829 
L 365.815638 236.74626 
L 365.974238 247.655141 
L 366.132838 249.104088 
L 366.450039 239.936562 
L 366.767239 249.864668 
L 366.925839 246.586483 
L 367.084439 246.244629 
L 367.243039 253.226372 
L 367.40164 241.683586 
L 367.56024 249.228744 
L 367.71884 241.993682 
L 368.03604 252.328137 
L 368.19464 252.357876 
L 368.353241 249.49809 
L 368.511841 250.48587 
L 368.670441 248.843795 
L 368.829041 252.211197 
L 369.146242 247.333677 
L 369.304842 250.717789 
L 369.463442 250.677365 
L 369.622042 256.744163 
L 369.780642 255.289191 
L 369.939242 251.0386 
L 370.097843 258.661609 
L 370.256443 250.787983 
L 370.415043 257.943146 
L 370.573643 257.115074 
L 370.732243 261.61465 
L 370.890843 255.954527 
L 371.049444 258.234885 
L 371.208044 255.59163 
L 371.366644 260.542965 
L 371.525244 258.808644 
L 371.683844 266.693312 
L 371.842444 262.776547 
L 372.001045 264.337774 
L 372.159645 257.551162 
L 372.318245 263.745955 
L 372.476845 259.421848 
L 372.794045 264.290316 
L 373.111246 259.606976 
L 373.269846 267.594901 
L 373.428446 266.322727 
L 373.587046 268.30032 
L 373.745646 266.856047 
L 373.904247 268.535905 
L 374.062847 267.237673 
L 374.221447 272.788855 
L 374.380047 262.941954 
L 374.538647 268.881113 
L 374.697247 269.554448 
L 375.014448 268.653868 
L 375.173048 271.370982 
L 375.490248 267.964818 
L 375.648848 271.376666 
L 375.807449 270.604734 
L 376.124649 275.149082 
L 376.283249 273.197875 
L 376.600449 273.249666 
L 376.75905 275.565121 
L 376.91765 275.51566 
L 377.07625 270.202407 
L 377.39345 278.933845 
L 377.55205 281.973432 
L 377.710651 275.864192 
L 377.869251 280.009537 
L 378.027851 275.369634 
L 378.186451 284.232065 
L 378.345051 281.990483 
L 378.503651 277.748233 
L 378.662252 279.264673 
L 378.820852 277.974454 
L 378.979452 282.407517 
L 379.138052 283.422053 
L 379.296652 283.30041 
L 379.455252 281.736512 
L 379.613853 288.482002 
L 379.772453 283.894559 
L 379.931053 284.745009 
L 380.089653 281.919296 
L 380.248253 287.484858 
L 380.565454 286.819522 
L 380.724054 292.575555 
L 380.882654 287.911582 
L 381.041254 289.952334 
L 381.199854 286.771737 
L 381.358455 287.511912 
L 381.517055 289.500886 
L 381.675655 288.758694 
L 381.834255 287.370561 
L 381.992855 290.690846 
L 382.310056 288.804816 
L 382.468656 290.213993 
L 382.627256 290.078993 
L 382.785856 293.018989 
L 382.944456 293.753495 
L 383.103056 290.926431 
L 383.261657 294.487986 
L 383.420257 292.104712 
L 383.578857 292.71891 
L 383.737457 291.161363 
L 383.896057 292.617315 
L 384.054657 292.718569 
L 384.213258 294.197938 
L 384.371858 293.264933 
L 384.530458 296.106361 
L 384.689058 294.424827 
L 384.847658 296.367338 
L 385.006258 295.662913 
L 385.164859 298.084295 
L 385.323459 296.062257 
L 385.482059 297.852717 
L 385.640659 297.301337 
L 385.799259 295.844035 
L 385.957859 298.544439 
L 386.11646 297.307021 
L 386.43366 300.782355 
L 386.59226 296.219635 
L 386.75086 298.032163 
L 386.90946 296.757318 
L 387.068061 300.566151 
L 387.385261 296.468264 
L 387.702461 301.351781 
L 387.861061 298.64035 
L 388.019662 298.802418 
L 388.178262 296.275107 
L 388.336862 297.887473 
L 388.495462 304.142412 
L 388.812662 301.449027 
L 388.971263 303.052355 
L 389.288463 298.151461 
L 389.447063 304.917668 
L 389.764263 301.608082 
L 389.922864 303.066394 
L 390.081464 301.658879 
L 390.240064 302.944424 
L 390.398664 305.412909 
L 390.715864 302.970824 
L 390.874465 302.207247 
L 391.033065 304.851838 
L 391.191665 301.979676 
L 391.350265 302.964131 
L 391.508865 306.82811 
L 391.667465 301.82764 
L 391.826066 305.675903 
L 391.984666 305.603721 
L 392.143266 307.584 
L 392.301866 302.454526 
L 392.619066 304.86788 
L 392.777667 301.661892 
L 392.936267 305.795202 
L 393.094867 305.305972 
L 393.412067 303.005238 
L 393.570667 304.896625 
L 393.729268 301.257547 
L 393.887868 300.930725 
L 394.205068 305.471052 
L 394.363668 306.330198 
L 394.522269 299.818957 
L 394.680869 303.206068 
L 394.839469 301.938584 
L 394.998069 303.600723 
L 395.156669 303.075075 
L 395.315269 300.332911 
L 395.47387 303.696292 
L 395.63247 303.069391 
L 395.79107 301.670247 
L 395.94967 304.020769 
L 396.10827 303.318021 
L 396.425471 296.554811 
L 396.584071 304.055524 
L 396.742671 304.048846 
L 396.901271 304.208569 
L 397.059871 304.895616 
L 397.218471 304.422443 
L 397.377072 301.266569 
L 397.535672 305.263203 
L 397.694272 297.391238 
L 397.852872 304.263373 
L 398.170072 300.716525 
L 398.328673 301.552284 
L 398.487273 300.755628 
L 398.487273 300.755628 
" style="fill:none;stroke:#1f77b4;stroke-linecap:square;stroke-width:1.5;"/>
   </g>
   <g id="patch_3">
    <path d="M 57.6 307.584 
L 57.6 41.472 
" style="fill:none;stroke:#000000;stroke-linecap:square;stroke-linejoin:miter;stroke-width:0.8;"/>
   </g>
   <g id="patch_4">
    <path d="M 414.72 307.584 
L 414.72 41.472 
" style="fill:none;stroke:#000000;stroke-linecap:square;stroke-linejoin:miter;stroke-width:0.8;"/>
   </g>
   <g id="patch_5">
    <path d="M 57.6 307.584 
L 414.72 307.584 
" style="fill:none;stroke:#000000;stroke-linecap:square;stroke-linejoin:miter;stroke-width:0.8;"/>
   </g>
   <g id="patch_6">
    <path d="M 57.6 41.472 
L 414.72 41.472 
" style="fill:none;stroke:#000000;stroke-linecap:square;stroke-linejoin:miter;stroke-width:0.8;"/>
   </g>
  </g>
 </g>
 <defs>
  <clipPath id="p6cc1e8ba15">
   <rect height="266.112" width="357.12" x="57.6" y="41.472"/>
  </clipPath>
 </defs>
</svg>
