<?xml version="1.0" encoding="utf-8" standalone="no"?>
<!DOCTYPE svg PUBLIC "-//W3C//DTD SVG 1.1//EN"
  "http://www.w3.org/Graphics/SVG/1.1/DTD/svg11.dtd">
<!-- Created with matplotlib (https://matplotlib.org/) -->
<svg height="345.6pt" version="1.1" viewBox="0 0 460.8 345.6" width="460.8pt" xmlns="http://www.w3.org/2000/svg" xmlns:xlink="http://www.w3.org/1999/xlink">
 <defs>
  <style type="text/css">
*{stroke-linecap:butt;stroke-linejoin:round;}
  </style>
 </defs>
 <g id="figure_1">
  <g id="patch_1">
   <path d="M 0 345.6 
L 460.8 345.6 
L 460.8 0 
L 0 0 
z
" style="fill:#ffffff;"/>
  </g>
  <g id="axes_1">
   <g id="patch_2">
    <path d="M 57.6 307.584 
L 414.72 307.584 
L 414.72 41.472 
L 57.6 41.472 
z
" style="fill:#ffffff;"/>
   </g>
   <g id="matplotlib.axis_1">
    <g id="xtick_1">
     <g id="line2d_1">
      <defs>
       <path d="M 0 0 
L 0 3.5 
" id="ma105c3de19" style="stroke:#000000;stroke-width:0.8;"/>
      </defs>
      <g>
       <use style="stroke:#000000;stroke-width:0.8;" x="73.832727" xlink:href="#ma105c3de19" y="307.584"/>
      </g>
     </g>
     <g id="text_1">
      <!-- 0 -->
      <defs>
       <path d="M 31.78125 66.40625 
Q 24.171875 66.40625 20.328125 58.90625 
Q 16.5 51.421875 16.5 36.375 
Q 16.5 21.390625 20.328125 13.890625 
Q 24.171875 6.390625 31.78125 6.390625 
Q 39.453125 6.390625 43.28125 13.890625 
Q 47.125 21.390625 47.125 36.375 
Q 47.125 51.421875 43.28125 58.90625 
Q 39.453125 66.40625 31.78125 66.40625 
z
M 31.78125 74.21875 
Q 44.046875 74.21875 50.515625 64.515625 
Q 56.984375 54.828125 56.984375 36.375 
Q 56.984375 17.96875 50.515625 8.265625 
Q 44.046875 -1.421875 31.78125 -1.421875 
Q 19.53125 -1.421875 13.0625 8.265625 
Q 6.59375 17.96875 6.59375 36.375 
Q 6.59375 54.828125 13.0625 64.515625 
Q 19.53125 74.21875 31.78125 74.21875 
z
" id="DejaVuSans-48"/>
      </defs>
      <g transform="translate(70.651477 322.182437)scale(0.1 -0.1)">
       <use xlink:href="#DejaVuSans-48"/>
      </g>
     </g>
    </g>
    <g id="xtick_2">
     <g id="line2d_2">
      <g>
       <use style="stroke:#000000;stroke-width:0.8;" x="153.132812" xlink:href="#ma105c3de19" y="307.584"/>
      </g>
     </g>
     <g id="text_2">
      <!-- 500 -->
      <defs>
       <path d="M 10.796875 72.90625 
L 49.515625 72.90625 
L 49.515625 64.59375 
L 19.828125 64.59375 
L 19.828125 46.734375 
Q 21.96875 47.46875 24.109375 47.828125 
Q 26.265625 48.1875 28.421875 48.1875 
Q 40.625 48.1875 47.75 41.5 
Q 54.890625 34.8125 54.890625 23.390625 
Q 54.890625 11.625 47.5625 5.09375 
Q 40.234375 -1.421875 26.90625 -1.421875 
Q 22.3125 -1.421875 17.546875 -0.640625 
Q 12.796875 0.140625 7.71875 1.703125 
L 7.71875 11.625 
Q 12.109375 9.234375 16.796875 8.0625 
Q 21.484375 6.890625 26.703125 6.890625 
Q 35.15625 6.890625 40.078125 11.328125 
Q 45.015625 15.765625 45.015625 23.390625 
Q 45.015625 31 40.078125 35.4375 
Q 35.15625 39.890625 26.703125 39.890625 
Q 22.75 39.890625 18.8125 39.015625 
Q 14.890625 38.140625 10.796875 36.28125 
z
" id="DejaVuSans-53"/>
      </defs>
      <g transform="translate(143.589062 322.182437)scale(0.1 -0.1)">
       <use xlink:href="#DejaVuSans-53"/>
       <use x="63.623047" xlink:href="#DejaVuSans-48"/>
       <use x="127.246094" xlink:href="#DejaVuSans-48"/>
      </g>
     </g>
    </g>
    <g id="xtick_3">
     <g id="line2d_3">
      <g>
       <use style="stroke:#000000;stroke-width:0.8;" x="232.432896" xlink:href="#ma105c3de19" y="307.584"/>
      </g>
     </g>
     <g id="text_3">
      <!-- 1000 -->
      <defs>
       <path d="M 12.40625 8.296875 
L 28.515625 8.296875 
L 28.515625 63.921875 
L 10.984375 60.40625 
L 10.984375 69.390625 
L 28.421875 72.90625 
L 38.28125 72.90625 
L 38.28125 8.296875 
L 54.390625 8.296875 
L 54.390625 0 
L 12.40625 0 
z
" id="DejaVuSans-49"/>
      </defs>
      <g transform="translate(219.707896 322.182437)scale(0.1 -0.1)">
       <use xlink:href="#DejaVuSans-49"/>
       <use x="63.623047" xlink:href="#DejaVuSans-48"/>
       <use x="127.246094" xlink:href="#DejaVuSans-48"/>
       <use x="190.869141" xlink:href="#DejaVuSans-48"/>
      </g>
     </g>
    </g>
    <g id="xtick_4">
     <g id="line2d_4">
      <g>
       <use style="stroke:#000000;stroke-width:0.8;" x="311.73298" xlink:href="#ma105c3de19" y="307.584"/>
      </g>
     </g>
     <g id="text_4">
      <!-- 1500 -->
      <g transform="translate(299.00798 322.182437)scale(0.1 -0.1)">
       <use xlink:href="#DejaVuSans-49"/>
       <use x="63.623047" xlink:href="#DejaVuSans-53"/>
       <use x="127.246094" xlink:href="#DejaVuSans-48"/>
       <use x="190.869141" xlink:href="#DejaVuSans-48"/>
      </g>
     </g>
    </g>
    <g id="xtick_5">
     <g id="line2d_5">
      <g>
       <use style="stroke:#000000;stroke-width:0.8;" x="391.033065" xlink:href="#ma105c3de19" y="307.584"/>
      </g>
     </g>
     <g id="text_5">
      <!-- 2000 -->
      <defs>
       <path d="M 19.1875 8.296875 
L 53.609375 8.296875 
L 53.609375 0 
L 7.328125 0 
L 7.328125 8.296875 
Q 12.9375 14.109375 22.625 23.890625 
Q 32.328125 33.6875 34.8125 36.53125 
Q 39.546875 41.84375 41.421875 45.53125 
Q 43.3125 49.21875 43.3125 52.78125 
Q 43.3125 58.59375 39.234375 62.25 
Q 35.15625 65.921875 28.609375 65.921875 
Q 23.96875 65.921875 18.8125 64.3125 
Q 13.671875 62.703125 7.8125 59.421875 
L 7.8125 69.390625 
Q 13.765625 71.78125 18.9375 73 
Q 24.125 74.21875 28.421875 74.21875 
Q 39.75 74.21875 46.484375 68.546875 
Q 53.21875 62.890625 53.21875 53.421875 
Q 53.21875 48.921875 51.53125 44.890625 
Q 49.859375 40.875 45.40625 35.40625 
Q 44.1875 33.984375 37.640625 27.21875 
Q 31.109375 20.453125 19.1875 8.296875 
z
" id="DejaVuSans-50"/>
      </defs>
      <g transform="translate(378.308065 322.182437)scale(0.1 -0.1)">
       <use xlink:href="#DejaVuSans-50"/>
       <use x="63.623047" xlink:href="#DejaVuSans-48"/>
       <use x="127.246094" xlink:href="#DejaVuSans-48"/>
       <use x="190.869141" xlink:href="#DejaVuSans-48"/>
      </g>
     </g>
    </g>
   </g>
   <g id="matplotlib.axis_2">
    <g id="ytick_1">
     <g id="line2d_6">
      <defs>
       <path d="M 0 0 
L -3.5 0 
" id="m34cd46484c" style="stroke:#000000;stroke-width:0.8;"/>
      </defs>
      <g>
       <use style="stroke:#000000;stroke-width:0.8;" x="57.6" xlink:href="#m34cd46484c" y="293.122844"/>
      </g>
     </g>
     <g id="text_6">
      <!-- 0.5 -->
      <defs>
       <path d="M 10.6875 12.40625 
L 21 12.40625 
L 21 0 
L 10.6875 0 
z
" id="DejaVuSans-46"/>
      </defs>
      <g transform="translate(34.696875 296.922062)scale(0.1 -0.1)">
       <use xlink:href="#DejaVuSans-48"/>
       <use x="63.623047" xlink:href="#DejaVuSans-46"/>
       <use x="95.410156" xlink:href="#DejaVuSans-53"/>
      </g>
     </g>
    </g>
    <g id="ytick_2">
     <g id="line2d_7">
      <g>
       <use style="stroke:#000000;stroke-width:0.8;" x="57.6" xlink:href="#m34cd46484c" y="263.054477"/>
      </g>
     </g>
     <g id="text_7">
      <!-- 0.6 -->
      <defs>
       <path d="M 33.015625 40.375 
Q 26.375 40.375 22.484375 35.828125 
Q 18.609375 31.296875 18.609375 23.390625 
Q 18.609375 15.53125 22.484375 10.953125 
Q 26.375 6.390625 33.015625 6.390625 
Q 39.65625 6.390625 43.53125 10.953125 
Q 47.40625 15.53125 47.40625 23.390625 
Q 47.40625 31.296875 43.53125 35.828125 
Q 39.65625 40.375 33.015625 40.375 
z
M 52.59375 71.296875 
L 52.59375 62.3125 
Q 48.875 64.0625 45.09375 64.984375 
Q 41.3125 65.921875 37.59375 65.921875 
Q 27.828125 65.921875 22.671875 59.328125 
Q 17.53125 52.734375 16.796875 39.40625 
Q 19.671875 43.65625 24.015625 45.921875 
Q 28.375 48.1875 33.59375 48.1875 
Q 44.578125 48.1875 50.953125 41.515625 
Q 57.328125 34.859375 57.328125 23.390625 
Q 57.328125 12.15625 50.6875 5.359375 
Q 44.046875 -1.421875 33.015625 -1.421875 
Q 20.359375 -1.421875 13.671875 8.265625 
Q 6.984375 17.96875 6.984375 36.375 
Q 6.984375 53.65625 15.1875 63.9375 
Q 23.390625 74.21875 37.203125 74.21875 
Q 40.921875 74.21875 44.703125 73.484375 
Q 48.484375 72.75 52.59375 71.296875 
z
" id="DejaVuSans-54"/>
      </defs>
      <g transform="translate(34.696875 266.853696)scale(0.1 -0.1)">
       <use xlink:href="#DejaVuSans-48"/>
       <use x="63.623047" xlink:href="#DejaVuSans-46"/>
       <use x="95.410156" xlink:href="#DejaVuSans-54"/>
      </g>
     </g>
    </g>
    <g id="ytick_3">
     <g id="line2d_8">
      <g>
       <use style="stroke:#000000;stroke-width:0.8;" x="57.6" xlink:href="#m34cd46484c" y="232.986111"/>
      </g>
     </g>
     <g id="text_8">
      <!-- 0.7 -->
      <defs>
       <path d="M 8.203125 72.90625 
L 55.078125 72.90625 
L 55.078125 68.703125 
L 28.609375 0 
L 18.3125 0 
L 43.21875 64.59375 
L 8.203125 64.59375 
z
" id="DejaVuSans-55"/>
      </defs>
      <g transform="translate(34.696875 236.78533)scale(0.1 -0.1)">
       <use xlink:href="#DejaVuSans-48"/>
       <use x="63.623047" xlink:href="#DejaVuSans-46"/>
       <use x="95.410156" xlink:href="#DejaVuSans-55"/>
      </g>
     </g>
    </g>
    <g id="ytick_4">
     <g id="line2d_9">
      <g>
       <use style="stroke:#000000;stroke-width:0.8;" x="57.6" xlink:href="#m34cd46484c" y="202.917745"/>
      </g>
     </g>
     <g id="text_9">
      <!-- 0.8 -->
      <defs>
       <path d="M 31.78125 34.625 
Q 24.75 34.625 20.71875 30.859375 
Q 16.703125 27.09375 16.703125 20.515625 
Q 16.703125 13.921875 20.71875 10.15625 
Q 24.75 6.390625 31.78125 6.390625 
Q 38.8125 6.390625 42.859375 10.171875 
Q 46.921875 13.96875 46.921875 20.515625 
Q 46.921875 27.09375 42.890625 30.859375 
Q 38.875 34.625 31.78125 34.625 
z
M 21.921875 38.8125 
Q 15.578125 40.375 12.03125 44.71875 
Q 8.5 49.078125 8.5 55.328125 
Q 8.5 64.0625 14.71875 69.140625 
Q 20.953125 74.21875 31.78125 74.21875 
Q 42.671875 74.21875 48.875 69.140625 
Q 55.078125 64.0625 55.078125 55.328125 
Q 55.078125 49.078125 51.53125 44.71875 
Q 48 40.375 41.703125 38.8125 
Q 48.828125 37.15625 52.796875 32.3125 
Q 56.78125 27.484375 56.78125 20.515625 
Q 56.78125 9.90625 50.3125 4.234375 
Q 43.84375 -1.421875 31.78125 -1.421875 
Q 19.734375 -1.421875 13.25 4.234375 
Q 6.78125 9.90625 6.78125 20.515625 
Q 6.78125 27.484375 10.78125 32.3125 
Q 14.796875 37.15625 21.921875 38.8125 
z
M 18.3125 54.390625 
Q 18.3125 48.734375 21.84375 45.5625 
Q 25.390625 42.390625 31.78125 42.390625 
Q 38.140625 42.390625 41.71875 45.5625 
Q 45.3125 48.734375 45.3125 54.390625 
Q 45.3125 60.0625 41.71875 63.234375 
Q 38.140625 66.40625 31.78125 66.40625 
Q 25.390625 66.40625 21.84375 63.234375 
Q 18.3125 60.0625 18.3125 54.390625 
z
" id="DejaVuSans-56"/>
      </defs>
      <g transform="translate(34.696875 206.716964)scale(0.1 -0.1)">
       <use xlink:href="#DejaVuSans-48"/>
       <use x="63.623047" xlink:href="#DejaVuSans-46"/>
       <use x="95.410156" xlink:href="#DejaVuSans-56"/>
      </g>
     </g>
    </g>
    <g id="ytick_5">
     <g id="line2d_10">
      <g>
       <use style="stroke:#000000;stroke-width:0.8;" x="57.6" xlink:href="#m34cd46484c" y="172.849379"/>
      </g>
     </g>
     <g id="text_10">
      <!-- 0.9 -->
      <defs>
       <path d="M 10.984375 1.515625 
L 10.984375 10.5 
Q 14.703125 8.734375 18.5 7.8125 
Q 22.3125 6.890625 25.984375 6.890625 
Q 35.75 6.890625 40.890625 13.453125 
Q 46.046875 20.015625 46.78125 33.40625 
Q 43.953125 29.203125 39.59375 26.953125 
Q 35.25 24.703125 29.984375 24.703125 
Q 19.046875 24.703125 12.671875 31.3125 
Q 6.296875 37.9375 6.296875 49.421875 
Q 6.296875 60.640625 12.9375 67.421875 
Q 19.578125 74.21875 30.609375 74.21875 
Q 43.265625 74.21875 49.921875 64.515625 
Q 56.59375 54.828125 56.59375 36.375 
Q 56.59375 19.140625 48.40625 8.859375 
Q 40.234375 -1.421875 26.421875 -1.421875 
Q 22.703125 -1.421875 18.890625 -0.6875 
Q 15.09375 0.046875 10.984375 1.515625 
z
M 30.609375 32.421875 
Q 37.25 32.421875 41.125 36.953125 
Q 45.015625 41.5 45.015625 49.421875 
Q 45.015625 57.28125 41.125 61.84375 
Q 37.25 66.40625 30.609375 66.40625 
Q 23.96875 66.40625 20.09375 61.84375 
Q 16.21875 57.28125 16.21875 49.421875 
Q 16.21875 41.5 20.09375 36.953125 
Q 23.96875 32.421875 30.609375 32.421875 
z
" id="DejaVuSans-57"/>
      </defs>
      <g transform="translate(34.696875 176.648597)scale(0.1 -0.1)">
       <use xlink:href="#DejaVuSans-48"/>
       <use x="63.623047" xlink:href="#DejaVuSans-46"/>
       <use x="95.410156" xlink:href="#DejaVuSans-57"/>
      </g>
     </g>
    </g>
    <g id="ytick_6">
     <g id="line2d_11">
      <g>
       <use style="stroke:#000000;stroke-width:0.8;" x="57.6" xlink:href="#m34cd46484c" y="142.781012"/>
      </g>
     </g>
     <g id="text_11">
      <!-- 1.0 -->
      <g transform="translate(34.696875 146.580231)scale(0.1 -0.1)">
       <use xlink:href="#DejaVuSans-49"/>
       <use x="63.623047" xlink:href="#DejaVuSans-46"/>
       <use x="95.410156" xlink:href="#DejaVuSans-48"/>
      </g>
     </g>
    </g>
    <g id="ytick_7">
     <g id="line2d_12">
      <g>
       <use style="stroke:#000000;stroke-width:0.8;" x="57.6" xlink:href="#m34cd46484c" y="112.712646"/>
      </g>
     </g>
     <g id="text_12">
      <!-- 1.1 -->
      <g transform="translate(34.696875 116.511865)scale(0.1 -0.1)">
       <use xlink:href="#DejaVuSans-49"/>
       <use x="63.623047" xlink:href="#DejaVuSans-46"/>
       <use x="95.410156" xlink:href="#DejaVuSans-49"/>
      </g>
     </g>
    </g>
    <g id="ytick_8">
     <g id="line2d_13">
      <g>
       <use style="stroke:#000000;stroke-width:0.8;" x="57.6" xlink:href="#m34cd46484c" y="82.64428"/>
      </g>
     </g>
     <g id="text_13">
      <!-- 1.2 -->
      <g transform="translate(34.696875 86.443498)scale(0.1 -0.1)">
       <use xlink:href="#DejaVuSans-49"/>
       <use x="63.623047" xlink:href="#DejaVuSans-46"/>
       <use x="95.410156" xlink:href="#DejaVuSans-50"/>
      </g>
     </g>
    </g>
    <g id="ytick_9">
     <g id="line2d_14">
      <g>
       <use style="stroke:#000000;stroke-width:0.8;" x="57.6" xlink:href="#m34cd46484c" y="52.575913"/>
      </g>
     </g>
     <g id="text_14">
      <!-- 1.3 -->
      <defs>
       <path d="M 40.578125 39.3125 
Q 47.65625 37.796875 51.625 33 
Q 55.609375 28.21875 55.609375 21.1875 
Q 55.609375 10.40625 48.1875 4.484375 
Q 40.765625 -1.421875 27.09375 -1.421875 
Q 22.515625 -1.421875 17.65625 -0.515625 
Q 12.796875 0.390625 7.625 2.203125 
L 7.625 11.71875 
Q 11.71875 9.328125 16.59375 8.109375 
Q 21.484375 6.890625 26.8125 6.890625 
Q 36.078125 6.890625 40.9375 10.546875 
Q 45.796875 14.203125 45.796875 21.1875 
Q 45.796875 27.640625 41.28125 31.265625 
Q 36.765625 34.90625 28.71875 34.90625 
L 20.21875 34.90625 
L 20.21875 43.015625 
L 29.109375 43.015625 
Q 36.375 43.015625 40.234375 45.921875 
Q 44.09375 48.828125 44.09375 54.296875 
Q 44.09375 59.90625 40.109375 62.90625 
Q 36.140625 65.921875 28.71875 65.921875 
Q 24.65625 65.921875 20.015625 65.03125 
Q 15.375 64.15625 9.8125 62.3125 
L 9.8125 71.09375 
Q 15.4375 72.65625 20.34375 73.4375 
Q 25.25 74.21875 29.59375 74.21875 
Q 40.828125 74.21875 47.359375 69.109375 
Q 53.90625 64.015625 53.90625 55.328125 
Q 53.90625 49.265625 50.4375 45.09375 
Q 46.96875 40.921875 40.578125 39.3125 
z
" id="DejaVuSans-51"/>
      </defs>
      <g transform="translate(34.696875 56.375132)scale(0.1 -0.1)">
       <use xlink:href="#DejaVuSans-49"/>
       <use x="63.623047" xlink:href="#DejaVuSans-46"/>
       <use x="95.410156" xlink:href="#DejaVuSans-51"/>
      </g>
     </g>
    </g>
    <g id="text_15">
     <!-- 1e−8 -->
     <defs>
      <path d="M 56.203125 29.59375 
L 56.203125 25.203125 
L 14.890625 25.203125 
Q 15.484375 15.921875 20.484375 11.0625 
Q 25.484375 6.203125 34.421875 6.203125 
Q 39.59375 6.203125 44.453125 7.46875 
Q 49.3125 8.734375 54.109375 11.28125 
L 54.109375 2.78125 
Q 49.265625 0.734375 44.1875 -0.34375 
Q 39.109375 -1.421875 33.890625 -1.421875 
Q 20.796875 -1.421875 13.15625 6.1875 
Q 5.515625 13.8125 5.515625 26.8125 
Q 5.515625 40.234375 12.765625 48.109375 
Q 20.015625 56 32.328125 56 
Q 43.359375 56 49.78125 48.890625 
Q 56.203125 41.796875 56.203125 29.59375 
z
M 47.21875 32.234375 
Q 47.125 39.59375 43.09375 43.984375 
Q 39.0625 48.390625 32.421875 48.390625 
Q 24.90625 48.390625 20.390625 44.140625 
Q 15.875 39.890625 15.1875 32.171875 
z
" id="DejaVuSans-101"/>
      <path d="M 10.59375 35.5 
L 73.1875 35.5 
L 73.1875 27.203125 
L 10.59375 27.203125 
z
" id="DejaVuSans-8722"/>
     </defs>
     <g transform="translate(57.6 38.472)scale(0.1 -0.1)">
      <use xlink:href="#DejaVuSans-49"/>
      <use x="63.623047" xlink:href="#DejaVuSans-101"/>
      <use x="125.146484" xlink:href="#DejaVuSans-8722"/>
      <use x="208.935547" xlink:href="#DejaVuSans-56"/>
     </g>
    </g>
   </g>
   <g id="line2d_15">
    <path clip-path="url(#p1ec2540e88)" d="M 73.832727 257.552263 
L 73.991327 257.826619 
L 74.308528 261.113705 
L 74.467128 259.298955 
L 74.625728 256.128228 
L 74.784328 257.304274 
L 74.942928 253.582363 
L 75.260129 256.300771 
L 75.418729 252.904452 
L 75.735929 260.227508 
L 75.894529 258.114811 
L 76.05313 254.082973 
L 76.37033 255.985508 
L 76.52893 253.299084 
L 76.68753 253.259961 
L 76.84613 256.385514 
L 77.004731 253.141559 
L 77.163331 253.682445 
L 77.480531 249.258214 
L 77.639131 251.40761 
L 77.797731 250.657826 
L 78.114932 252.928382 
L 78.273532 251.729531 
L 78.432132 252.484919 
L 78.590732 250.522822 
L 78.749333 252.881121 
L 79.066533 248.260951 
L 79.225133 249.16383 
L 79.383733 252.355704 
L 79.542333 248.730495 
L 79.700934 248.459444 
L 79.859534 247.189029 
L 80.018134 243.517978 
L 80.176734 245.822868 
L 80.335334 242.781424 
L 80.493934 247.117014 
L 80.652535 243.810444 
L 80.811135 244.050389 
L 80.969735 241.97381 
L 81.128335 241.846938 
L 81.286935 244.098279 
L 81.445535 242.831072 
L 81.762736 238.688441 
L 81.921336 237.791836 
L 82.238536 240.610309 
L 82.397136 240.022196 
L 82.872937 236.556942 
L 83.031537 240.105651 
L 83.190137 235.343693 
L 83.507338 235.954813 
L 83.824538 234.888799 
L 83.983138 232.691715 
L 84.141738 235.451989 
L 84.300338 231.492993 
L 84.458939 231.398064 
L 84.617539 232.865134 
L 84.776139 228.236127 
L 84.934739 227.815387 
L 85.093339 230.720421 
L 85.41054 228.154128 
L 85.56914 231.804846 
L 85.72774 227.231258 
L 85.88634 229.81775 
L 86.04494 225.681466 
L 86.20354 224.551749 
L 86.362141 230.393105 
L 86.679341 221.924928 
L 86.996541 227.570785 
L 87.155141 220.453712 
L 87.313742 221.432253 
L 87.472342 224.969154 
L 87.630942 218.350351 
L 87.789542 219.755059 
L 87.948142 223.171913 
L 88.106742 221.728642 
L 88.265343 218.595203 
L 88.423943 222.405923 
L 88.582543 216.43082 
L 88.741143 216.664822 
L 88.899743 218.05531 
L 89.058343 213.627761 
L 89.216944 213.348506 
L 89.375544 213.829218 
L 89.534144 215.301953 
L 89.692744 211.159336 
L 89.851344 213.127162 
L 90.009944 211.975538 
L 90.168545 212.353281 
L 90.327145 212.138612 
L 90.644345 209.682063 
L 90.802945 213.453285 
L 91.278746 205.822737 
L 91.437346 206.036428 
L 91.595946 204.597795 
L 91.754546 204.197754 
L 91.913147 207.719487 
L 92.071747 207.576664 
L 92.230347 205.624314 
L 92.388947 207.904988 
L 92.547547 204.341334 
L 92.706147 205.830916 
L 93.181948 200.055489 
L 93.340548 200.436828 
L 93.657748 203.467259 
L 93.816349 200.271585 
L 93.974949 199.479108 
L 94.133549 201.234199 
L 94.450749 197.008771 
L 94.609349 197.673175 
L 94.76795 202.414195 
L 94.92655 198.095735 
L 95.08515 200.771901 
L 95.24375 200.959719 
L 95.56095 195.888667 
L 95.719551 198.096696 
L 95.878151 198.399336 
L 96.195351 193.912312 
L 96.353951 191.534244 
L 96.512551 195.453533 
L 96.671152 193.193588 
L 96.829752 189.309167 
L 96.988352 192.787377 
L 97.146952 191.257732 
L 97.305552 192.148607 
L 97.622753 190.136141 
L 97.781353 190.010853 
L 97.939953 186.5907 
L 98.257153 189.883045 
L 98.415753 189.49166 
L 98.574354 192.600939 
L 98.732954 190.435752 
L 98.891554 185.513552 
L 99.050154 188.224165 
L 99.208754 188.590364 
L 99.367354 186.076772 
L 99.525955 186.678797 
L 99.684555 188.427187 
L 99.843155 188.052022 
L 100.001755 179.279347 
L 100.160355 188.142655 
L 100.477556 183.101222 
L 100.636156 182.462265 
L 100.794756 185.113335 
L 100.953356 184.247735 
L 101.111956 184.269969 
L 101.270556 188.886519 
L 101.429157 180.966535 
L 101.746357 188.054325 
L 101.904957 181.835318 
L 102.222157 186.753112 
L 102.380758 183.498515 
L 102.539358 186.45579 
L 102.697958 181.422161 
L 102.856558 184.085905 
L 103.173758 178.276647 
L 103.332359 184.584952 
L 103.490959 184.060934 
L 103.808159 177.998539 
L 103.966759 182.407116 
L 104.12536 180.872978 
L 104.28396 183.44033 
L 104.44256 183.850662 
L 104.60116 179.055859 
L 104.75976 182.629865 
L 104.91836 182.039049 
L 105.076961 178.882859 
L 105.235561 179.619671 
L 105.394161 181.575154 
L 105.552761 179.946253 
L 105.711361 176.089422 
L 105.869961 177.916412 
L 106.028562 175.891955 
L 106.504362 184.757008 
L 106.821562 175.949916 
L 106.980163 180.329098 
L 107.138763 178.499453 
L 107.297363 184.295314 
L 107.455963 181.970632 
L 107.614563 181.672483 
L 107.773163 175.469558 
L 108.090364 184.073601 
L 108.248964 179.431354 
L 108.407564 178.896913 
L 108.566164 177.090891 
L 108.883365 180.611703 
L 109.041965 179.907151 
L 109.200565 180.329101 
L 109.359165 182.188659 
L 109.517765 180.048503 
L 109.676365 181.738777 
L 109.834966 178.245853 
L 110.310766 182.674116 
L 110.469366 183.513434 
L 110.627966 182.20005 
L 110.786567 183.364986 
L 110.945167 176.573241 
L 111.420967 188.363112 
L 111.738168 183.653181 
L 111.896768 181.334016 
L 112.055368 182.509229 
L 112.213968 181.782028 
L 112.372568 183.846126 
L 112.531168 181.375148 
L 112.689769 181.321447 
L 112.848369 184.681422 
L 113.006969 180.987082 
L 113.165569 184.043101 
L 113.324169 181.843614 
L 113.482769 189.477612 
L 113.79997 185.529754 
L 113.95857 189.193281 
L 114.11717 186.596411 
L 114.592971 186.577987 
L 114.751571 183.97767 
L 114.910171 187.695343 
L 115.227371 183.812894 
L 115.385971 191.44816 
L 115.544572 189.379775 
L 115.703172 192.414573 
L 115.861772 188.917306 
L 116.020372 192.274446 
L 116.178972 192.32647 
L 116.337573 190.049697 
L 116.496173 192.170106 
L 116.654773 191.600625 
L 116.813373 192.868897 
L 117.289174 186.447208 
L 117.764974 198.340437 
L 117.923574 192.141851 
L 118.082174 193.472374 
L 118.240775 192.428994 
L 118.557975 194.913541 
L 118.875175 198.360894 
L 119.033775 195.350746 
L 119.192376 197.210477 
L 119.350976 195.471617 
L 119.668176 198.194916 
L 119.826776 197.838897 
L 120.143977 201.704495 
L 120.302577 200.37787 
L 120.461177 200.218195 
L 120.619777 196.211296 
L 120.936977 204.843313 
L 121.095578 199.556392 
L 121.254178 199.653522 
L 121.412778 197.853025 
L 121.571378 203.611121 
L 121.729978 202.339218 
L 121.888578 206.683201 
L 122.205779 199.465885 
L 122.522979 205.950146 
L 122.681579 208.827085 
L 122.840179 207.481526 
L 122.99878 209.541205 
L 123.31598 205.575487 
L 123.63318 208.94825 
L 123.79178 206.608932 
L 123.950381 206.572264 
L 124.108981 210.273966 
L 124.267581 206.482639 
L 124.426181 207.377773 
L 124.584781 210.20843 
L 124.743381 209.369512 
L 124.901982 213.786269 
L 125.219182 209.520161 
L 125.377782 209.60765 
L 125.536382 215.724169 
L 125.853583 211.772872 
L 126.012183 214.705439 
L 126.170783 210.819411 
L 126.329383 214.058965 
L 126.487983 211.756634 
L 126.805184 217.317186 
L 126.963784 212.435877 
L 127.280984 219.905472 
L 127.439584 213.592917 
L 127.598184 218.322963 
L 127.756785 218.982684 
L 127.915385 218.877729 
L 128.073985 221.80398 
L 128.232585 221.911031 
L 128.391185 221.374907 
L 128.549785 218.877141 
L 128.708386 227.065945 
L 128.866986 220.313794 
L 129.025586 220.671015 
L 129.342786 224.075345 
L 129.501387 222.608914 
L 129.659987 223.625535 
L 129.818587 226.631463 
L 130.135787 221.94651 
L 130.294387 225.374903 
L 130.452988 225.758883 
L 130.770188 229.980472 
L 130.928788 227.829084 
L 131.087388 228.454807 
L 131.404589 228.216963 
L 131.563189 229.720088 
L 131.721789 229.165322 
L 131.880389 232.839384 
L 132.197589 229.146374 
L 132.35619 233.233873 
L 132.51479 231.992654 
L 132.67339 231.630627 
L 132.83199 229.677385 
L 132.99059 230.720457 
L 133.14919 233.391438 
L 133.307791 232.540503 
L 133.466391 230.581238 
L 133.624991 231.538024 
L 133.783591 234.633551 
L 133.942191 231.691063 
L 134.100791 236.55974 
L 134.259392 237.899584 
L 134.417992 237.833727 
L 134.576592 235.905749 
L 134.735192 238.189145 
L 134.893792 238.313021 
L 135.052392 236.384442 
L 135.210993 237.925142 
L 135.528193 241.659933 
L 135.686793 240.048275 
L 135.845393 240.19891 
L 136.003993 239.179299 
L 136.162594 241.252812 
L 136.321194 239.005496 
L 136.479794 241.768787 
L 136.638394 240.907316 
L 136.796994 241.591378 
L 136.955594 245.355933 
L 137.114195 245.81688 
L 137.272795 245.414874 
L 137.431395 246.385773 
L 137.907195 242.291064 
L 138.065796 246.332561 
L 138.382996 245.840341 
L 138.541596 246.453726 
L 138.700196 247.56777 
L 138.858796 247.381642 
L 139.017397 249.825902 
L 139.175997 247.104113 
L 139.493197 250.334653 
L 139.651797 250.877094 
L 139.810397 247.882582 
L 140.127598 250.834991 
L 140.286198 246.419155 
L 140.444798 250.531303 
L 140.603398 248.58407 
L 140.761998 248.086749 
L 141.079199 253.7823 
L 141.237799 248.806879 
L 141.554999 254.242339 
L 141.7136 248.767794 
L 142.0308 255.200313 
L 142.348 249.223026 
L 142.5066 255.129355 
L 142.665201 254.873177 
L 142.823801 251.950224 
L 142.982401 254.954056 
L 143.141001 251.602337 
L 143.299601 255.558134 
L 143.458201 255.305254 
L 143.616802 254.692764 
L 143.775402 257.916401 
L 143.934002 258.228501 
L 144.092602 254.839193 
L 144.251202 256.814094 
L 144.409802 257.393202 
L 144.568403 254.519268 
L 144.727003 257.644573 
L 144.885603 256.33691 
L 145.044203 256.68059 
L 145.202803 256.657129 
L 145.520004 258.450108 
L 145.678604 254.741476 
L 145.837204 258.582704 
L 145.995804 258.894217 
L 146.313004 257.223926 
L 146.471605 257.264212 
L 146.788805 260.932852 
L 146.947405 260.680586 
L 147.106005 260.028397 
L 147.423206 257.347508 
L 147.581806 259.942404 
L 147.740406 260.333888 
L 147.899006 258.929095 
L 148.057606 259.642321 
L 148.216206 257.035995 
L 148.374807 261.532109 
L 148.533407 259.197611 
L 148.692007 261.771155 
L 148.850607 258.819947 
L 149.009207 258.056207 
L 149.167807 258.227006 
L 149.326408 255.138982 
L 149.643608 259.890086 
L 149.960808 256.214222 
L 150.119408 258.868365 
L 150.278009 257.329455 
L 150.436609 258.407405 
L 150.595209 257.578128 
L 150.912409 260.394631 
L 151.071009 259.977282 
L 151.22961 262.290442 
L 151.54681 258.608876 
L 151.70541 259.386437 
L 151.86401 256.438834 
L 152.02261 259.740345 
L 152.181211 259.918649 
L 152.339811 257.495433 
L 152.498411 258.264287 
L 152.657011 259.736433 
L 152.974211 253.909782 
L 153.291412 261.466573 
L 153.450012 258.283836 
L 153.767212 261.134015 
L 153.925812 257.571211 
L 154.084413 258.807622 
L 154.401613 253.862873 
L 154.560213 254.911059 
L 154.718813 257.271129 
L 154.877414 257.552263 
L 155.036014 257.552263 
L 155.194614 257.826619 
L 155.511814 261.113705 
L 155.670414 259.298955 
L 155.829015 256.128228 
L 155.987615 257.304274 
L 156.146215 253.582363 
L 156.463415 256.300771 
L 156.622015 252.904452 
L 156.939216 260.227508 
L 157.097816 258.114811 
L 157.256416 254.082973 
L 157.573616 255.985508 
L 157.732217 253.299084 
L 157.890817 253.259961 
L 158.049417 256.385514 
L 158.208017 253.141559 
L 158.366617 253.682445 
L 158.683818 249.258214 
L 158.842418 251.40761 
L 159.001018 250.657826 
L 159.318218 252.928382 
L 159.476818 251.729531 
L 159.635419 252.484919 
L 159.794019 250.522822 
L 159.952619 252.881121 
L 160.269819 248.260951 
L 160.428419 249.16383 
L 160.58702 252.355704 
L 160.74562 248.730495 
L 160.90422 248.459444 
L 161.06282 247.189029 
L 161.22142 243.517978 
L 161.38002 245.822868 
L 161.538621 242.781424 
L 161.697221 247.117014 
L 161.855821 243.810444 
L 162.014421 244.050389 
L 162.173021 241.97381 
L 162.331621 241.846938 
L 162.490222 244.098279 
L 162.648822 242.831072 
L 162.966022 238.688441 
L 163.124622 237.791836 
L 163.441823 240.610309 
L 163.600423 240.022196 
L 164.076223 236.556942 
L 164.234823 240.105651 
L 164.393424 235.343693 
L 164.710624 235.954813 
L 165.027824 234.888799 
L 165.186424 232.691715 
L 165.345025 235.451989 
L 165.503625 231.492993 
L 165.662225 231.398064 
L 165.820825 232.865134 
L 165.979425 228.236127 
L 166.138025 227.815387 
L 166.296626 230.720421 
L 166.613826 228.154128 
L 166.772426 231.804846 
L 166.931026 227.231258 
L 167.089627 229.81775 
L 167.248227 225.681466 
L 167.406827 224.551749 
L 167.565427 230.393105 
L 167.882627 221.924928 
L 168.199828 227.570785 
L 168.358428 220.453712 
L 168.517028 221.432253 
L 168.675628 224.969154 
L 168.834228 218.350351 
L 168.992829 219.755059 
L 169.151429 223.171913 
L 169.310029 221.728642 
L 169.468629 218.595203 
L 169.627229 222.405923 
L 169.785829 216.43082 
L 169.94443 216.664822 
L 170.10303 218.05531 
L 170.26163 213.627761 
L 170.42023 213.348506 
L 170.57883 213.829218 
L 170.73743 215.301953 
L 170.896031 211.159336 
L 171.054631 213.127162 
L 171.213231 211.975538 
L 171.371831 212.353281 
L 171.530431 212.138612 
L 171.847632 209.682063 
L 172.006232 213.453285 
L 172.482032 205.822737 
L 172.640632 206.036428 
L 172.799233 204.597795 
L 172.957833 204.197754 
L 173.116433 207.719487 
L 173.275033 207.576664 
L 173.433633 205.624314 
L 173.592233 207.904988 
L 173.750834 204.341334 
L 173.909434 205.830916 
L 174.385234 200.055489 
L 174.543834 200.436828 
L 174.861035 203.467259 
L 175.019635 200.271585 
L 175.178235 199.479108 
L 175.336835 201.234199 
L 175.654036 197.008771 
L 175.812636 197.673175 
L 175.971236 202.414195 
L 176.129836 198.095735 
L 176.288436 200.771901 
L 176.447036 200.959719 
L 176.764237 195.888667 
L 176.922837 198.096696 
L 177.081437 198.399336 
L 177.398637 193.912312 
L 177.557238 191.534244 
L 177.715838 195.453533 
L 177.874438 193.193588 
L 178.033038 189.309167 
L 178.191638 192.787377 
L 178.350238 191.257732 
L 178.508839 192.148607 
L 178.826039 190.136141 
L 178.984639 190.010853 
L 179.143239 186.5907 
L 179.46044 189.883045 
L 179.61904 189.49166 
L 179.77764 192.600939 
L 179.93624 190.435752 
L 180.09484 185.513552 
L 180.253441 188.224165 
L 180.412041 188.590364 
L 180.570641 186.076772 
L 180.729241 186.678797 
L 180.887841 188.427187 
L 181.046441 188.052022 
L 181.205042 179.279347 
L 181.363642 188.142655 
L 181.680842 183.101222 
L 181.839442 182.462265 
L 181.998042 185.113335 
L 182.156643 184.247735 
L 182.315243 184.269969 
L 182.473843 188.886519 
L 182.632443 180.966535 
L 182.949643 188.054325 
L 183.108244 181.835318 
L 183.425444 186.753112 
L 183.584044 183.498515 
L 183.742644 186.45579 
L 183.901244 181.422161 
L 184.059845 184.085905 
L 184.377045 178.276647 
L 184.535645 184.584952 
L 184.694245 184.060934 
L 185.011446 177.998539 
L 185.170046 182.407116 
L 185.328646 180.872978 
L 185.487246 183.44033 
L 185.645846 183.850662 
L 185.804446 179.055859 
L 185.963047 182.629865 
L 186.121647 182.039049 
L 186.280247 178.882859 
L 186.438847 179.619671 
L 186.597447 181.575154 
L 186.756047 179.946253 
L 186.914648 176.089422 
L 187.073248 177.916412 
L 187.231848 175.891955 
L 187.707648 184.757008 
L 188.024849 175.949916 
L 188.183449 180.329098 
L 188.342049 178.499453 
L 188.500649 184.295314 
L 188.659249 181.970632 
L 188.81785 181.672483 
L 188.97645 175.469558 
L 189.29365 184.073601 
L 189.45225 179.431354 
L 189.61085 178.896913 
L 189.769451 177.090891 
L 190.086651 180.611703 
L 190.245251 179.907151 
L 190.403851 180.329101 
L 190.562451 182.188659 
L 190.721052 180.048503 
L 190.879652 181.738777 
L 191.038252 178.245853 
L 191.514052 182.674116 
L 191.672653 183.513434 
L 191.831253 182.20005 
L 191.989853 183.364986 
L 192.148453 176.573241 
L 192.624254 188.363112 
L 192.941454 183.653181 
L 193.100054 181.334016 
L 193.258654 182.509229 
L 193.417255 181.782028 
L 193.575855 183.846126 
L 193.734455 181.375148 
L 193.893055 181.321447 
L 194.051655 184.681422 
L 194.210255 180.987082 
L 194.368856 184.043101 
L 194.527456 181.843614 
L 194.686056 189.477612 
L 195.003256 185.529754 
L 195.161856 189.193281 
L 195.320457 186.596411 
L 195.796257 186.577987 
L 195.954857 183.97767 
L 196.113457 187.695343 
L 196.430658 183.812894 
L 196.589258 191.44816 
L 196.747858 189.379775 
L 196.906458 192.414573 
L 197.065058 188.917306 
L 197.223659 192.274446 
L 197.382259 192.32647 
L 197.540859 190.049697 
L 197.699459 192.170106 
L 197.858059 191.600625 
L 198.016659 192.868897 
L 198.49246 186.447208 
L 198.96826 198.340437 
L 199.126861 192.141851 
L 199.285461 193.472374 
L 199.444061 192.428994 
L 199.761261 194.913541 
L 200.078462 198.360894 
L 200.237062 195.350746 
L 200.395662 197.210477 
L 200.554262 195.471617 
L 200.871462 198.194916 
L 201.030063 197.838897 
L 201.347263 201.704495 
L 201.505863 200.37787 
L 201.664463 200.218195 
L 201.823063 196.211296 
L 202.140264 204.843313 
L 202.298864 199.556392 
L 202.457464 199.653522 
L 202.616064 197.853025 
L 202.774664 203.611121 
L 202.933265 202.339218 
L 203.091865 206.683201 
L 203.409065 199.465885 
L 203.726265 205.950146 
L 203.884866 208.827085 
L 204.043466 207.481526 
L 204.202066 209.541205 
L 204.519266 205.575487 
L 204.836467 208.94825 
L 204.995067 206.608932 
L 205.153667 206.572264 
L 205.312267 210.273966 
L 205.470867 206.482639 
L 205.629468 207.377773 
L 205.788068 210.20843 
L 205.946668 209.369512 
L 206.105268 213.786269 
L 206.422468 209.520161 
L 206.581069 209.60765 
L 206.739669 215.724169 
L 207.056869 211.772872 
L 207.215469 214.705439 
L 207.374069 210.819411 
L 207.53267 214.058965 
L 207.69127 211.756634 
L 208.00847 217.317186 
L 208.16707 212.435877 
L 208.484271 219.905472 
L 208.642871 213.592917 
L 208.801471 218.322963 
L 208.960071 218.982684 
L 209.118671 218.877729 
L 209.277271 221.80398 
L 209.435872 221.911031 
L 209.594472 221.374907 
L 209.753072 218.877141 
L 209.911672 227.065945 
L 210.070272 220.313794 
L 210.228872 220.671015 
L 210.546073 224.075345 
L 210.704673 222.608914 
L 210.863273 223.625535 
L 211.021873 226.631463 
L 211.339074 221.94651 
L 211.497674 225.374903 
L 211.656274 225.758883 
L 211.973474 229.980472 
L 212.132074 227.829084 
L 212.290675 228.454807 
L 212.607875 228.216963 
L 212.766475 229.720088 
L 212.925075 229.165322 
L 213.083675 232.839384 
L 213.400876 229.146374 
L 213.559476 233.233873 
L 213.718076 231.992654 
L 213.876676 231.630627 
L 214.035276 229.677385 
L 214.193877 230.720457 
L 214.352477 233.391438 
L 214.511077 232.540503 
L 214.669677 230.581238 
L 214.828277 231.538024 
L 214.986877 234.633551 
L 215.145478 231.691063 
L 215.304078 236.55974 
L 215.462678 237.899584 
L 215.621278 237.833727 
L 215.779878 235.905749 
L 215.938478 238.189145 
L 216.097079 238.313021 
L 216.255679 236.384442 
L 216.414279 237.925142 
L 216.731479 241.659933 
L 216.890079 240.048275 
L 217.04868 240.19891 
L 217.20728 239.179299 
L 217.36588 241.252812 
L 217.52448 239.005496 
L 217.68308 241.768787 
L 217.841681 240.907316 
L 218.000281 241.591378 
L 218.158881 245.355933 
L 218.317481 245.81688 
L 218.476081 245.414874 
L 218.634681 246.385773 
L 219.110482 242.291064 
L 219.269082 246.332561 
L 219.586282 245.840341 
L 219.744883 246.453726 
L 219.903483 247.56777 
L 220.062083 247.381642 
L 220.220683 249.825902 
L 220.379283 247.104113 
L 220.696484 250.334653 
L 220.855084 250.877094 
L 221.013684 247.882582 
L 221.330884 250.834991 
L 221.489484 246.419155 
L 221.648085 250.531303 
L 221.806685 248.58407 
L 221.965285 248.086749 
L 222.282485 253.7823 
L 222.441085 248.806879 
L 222.758286 254.242339 
L 222.916886 248.767794 
L 223.234086 255.200313 
L 223.551287 249.223026 
L 223.709887 255.129355 
L 223.868487 254.873177 
L 224.027087 251.950224 
L 224.185687 254.954056 
L 224.344287 251.602337 
L 224.502888 255.558134 
L 224.661488 255.305254 
L 224.820088 254.692764 
L 224.978688 257.916401 
L 225.137288 258.228501 
L 225.295888 254.839193 
L 225.454489 256.814094 
L 225.613089 257.393202 
L 225.771689 254.519268 
L 225.930289 257.644573 
L 226.088889 256.33691 
L 226.247489 256.68059 
L 226.40609 256.657129 
L 226.72329 258.450108 
L 226.88189 254.741476 
L 227.04049 258.582704 
L 227.19909 258.894217 
L 227.516291 257.223926 
L 227.674891 257.264212 
L 227.992091 260.932852 
L 228.150691 260.680586 
L 228.309292 260.028397 
L 228.626492 257.347508 
L 228.785092 259.942404 
L 228.943692 260.333888 
L 229.102292 258.929095 
L 229.260893 259.642321 
L 229.419493 257.035995 
L 229.578093 261.532109 
L 229.736693 259.197611 
L 229.895293 261.771155 
L 230.053894 258.819947 
L 230.212494 258.056207 
L 230.371094 258.227006 
L 230.529694 255.138982 
L 230.846894 259.890086 
L 231.164095 256.214222 
L 231.322695 258.868365 
L 231.481295 257.329455 
L 231.639895 258.407405 
L 231.798495 257.578128 
L 232.115696 260.394631 
L 232.274296 259.977282 
L 232.432896 262.290442 
L 232.750096 258.608876 
L 232.908697 259.386437 
L 233.067297 256.438834 
L 233.225897 259.740345 
L 233.384497 259.918649 
L 233.543097 257.495433 
L 233.701697 258.264287 
L 233.860298 259.736433 
L 234.177498 253.909782 
L 234.494698 261.466573 
L 234.653298 258.283836 
L 234.970499 261.134015 
L 235.129099 257.571211 
L 235.287699 258.807622 
L 235.604899 253.862873 
L 235.7635 254.911059 
L 235.9221 257.271129 
L 236.0807 257.552263 
L 236.2393 257.552263 
L 236.3979 257.826619 
L 236.715101 261.113705 
L 236.873701 259.298955 
L 237.032301 256.128228 
L 237.190901 257.304274 
L 237.349501 253.582363 
L 237.666702 256.300771 
L 237.825302 252.904452 
L 238.142502 260.227508 
L 238.301102 258.114811 
L 238.459702 254.082973 
L 238.776903 255.985508 
L 238.935503 253.299084 
L 239.094103 253.259961 
L 239.252703 256.385514 
L 239.411303 253.141559 
L 239.569904 253.682445 
L 239.887104 249.258214 
L 240.045704 251.40761 
L 240.204304 250.657826 
L 240.521505 252.928382 
L 240.680105 251.729531 
L 240.838705 252.484919 
L 240.997305 250.522822 
L 241.155905 252.881121 
L 241.473106 248.260951 
L 241.631706 249.16383 
L 241.790306 252.355704 
L 241.948906 248.730495 
L 242.107506 248.459444 
L 242.266106 247.189029 
L 242.424707 243.517978 
L 242.583307 245.822868 
L 242.741907 242.781424 
L 242.900507 247.117014 
L 243.059107 243.810444 
L 243.217708 244.050389 
L 243.376308 241.97381 
L 243.534908 241.846938 
L 243.693508 244.098279 
L 243.852108 242.831072 
L 244.169309 238.688441 
L 244.327909 237.791836 
L 244.645109 240.610309 
L 244.803709 240.022196 
L 245.27951 236.556942 
L 245.43811 240.105651 
L 245.59671 235.343693 
L 245.91391 235.954813 
L 246.231111 234.888799 
L 246.389711 232.691715 
L 246.548311 235.451989 
L 246.706911 231.492993 
L 246.865511 231.398064 
L 247.024112 232.865134 
L 247.182712 228.236127 
L 247.341312 227.815387 
L 247.499912 230.720421 
L 247.817112 228.154128 
L 247.975713 231.804846 
L 248.134313 227.231258 
L 248.292913 229.81775 
L 248.451513 225.681466 
L 248.610113 224.551749 
L 248.768713 230.393105 
L 249.085914 221.924928 
L 249.403114 227.570785 
L 249.561714 220.453712 
L 249.720314 221.432253 
L 249.878915 224.969154 
L 250.037515 218.350351 
L 250.196115 219.755059 
L 250.354715 223.171913 
L 250.513315 221.728642 
L 250.671915 218.595203 
L 250.830516 222.405923 
L 250.989116 216.43082 
L 251.147716 216.664822 
L 251.306316 218.05531 
L 251.464916 213.627761 
L 251.623516 213.348506 
L 251.782117 213.829218 
L 251.940717 215.301953 
L 252.099317 211.159336 
L 252.257917 213.127162 
L 252.416517 211.975538 
L 252.575117 212.353281 
L 252.733718 212.138612 
L 253.050918 209.682063 
L 253.209518 213.453285 
L 253.685319 205.822737 
L 253.843919 206.036428 
L 254.002519 204.597795 
L 254.161119 204.197754 
L 254.319719 207.719487 
L 254.478319 207.576664 
L 254.63692 205.624314 
L 254.79552 207.904988 
L 254.95412 204.341334 
L 255.11272 205.830916 
L 255.588521 200.055489 
L 255.747121 200.436828 
L 256.064321 203.467259 
L 256.222921 200.271585 
L 256.381522 199.479108 
L 256.540122 201.234199 
L 256.857322 197.008771 
L 257.015922 197.673175 
L 257.174522 202.414195 
L 257.333123 198.095735 
L 257.491723 200.771901 
L 257.650323 200.959719 
L 257.967523 195.888667 
L 258.126123 198.096696 
L 258.284724 198.399336 
L 258.601924 193.912312 
L 258.760524 191.534244 
L 258.919124 195.453533 
L 259.077724 193.193588 
L 259.236325 189.309167 
L 259.394925 192.787377 
L 259.553525 191.257732 
L 259.712125 192.148607 
L 260.029325 190.136141 
L 260.187926 190.010853 
L 260.346526 186.5907 
L 260.663726 189.883045 
L 260.822326 189.49166 
L 260.980926 192.600939 
L 261.139527 190.435752 
L 261.298127 185.513552 
L 261.456727 188.224165 
L 261.615327 188.590364 
L 261.773927 186.076772 
L 261.932527 186.678797 
L 262.091128 188.427187 
L 262.249728 188.052022 
L 262.408328 179.279347 
L 262.566928 188.142655 
L 262.884128 183.101222 
L 263.042729 182.462265 
L 263.201329 185.113335 
L 263.359929 184.247735 
L 263.518529 184.269969 
L 263.677129 188.886519 
L 263.835729 180.966535 
L 264.15293 188.054325 
L 264.31153 181.835318 
L 264.62873 186.753112 
L 264.78733 183.498515 
L 264.945931 186.45579 
L 265.104531 181.422161 
L 265.263131 184.085905 
L 265.580331 178.276647 
L 265.738931 184.584952 
L 265.897532 184.060934 
L 266.214732 177.998539 
L 266.373332 182.407116 
L 266.531932 180.872978 
L 266.690532 183.44033 
L 266.849133 183.850662 
L 267.007733 179.055859 
L 267.166333 182.629865 
L 267.324933 182.039049 
L 267.483533 178.882859 
L 267.642133 179.619671 
L 267.800734 181.575154 
L 267.959334 179.946253 
L 268.117934 176.089422 
L 268.276534 177.916412 
L 268.435134 175.891955 
L 268.910935 184.757008 
L 269.228135 175.949916 
L 269.386735 180.329098 
L 269.545336 178.499453 
L 269.703936 184.295314 
L 269.862536 181.970632 
L 270.021136 181.672483 
L 270.179736 175.469558 
L 270.496937 184.073601 
L 270.655537 179.431354 
L 270.814137 178.896913 
L 270.972737 177.090891 
L 271.289937 180.611703 
L 271.448538 179.907151 
L 271.607138 180.329101 
L 271.765738 182.188659 
L 271.924338 180.048503 
L 272.082938 181.738777 
L 272.241538 178.245853 
L 272.717339 182.674116 
L 272.875939 183.513434 
L 273.034539 182.20005 
L 273.193139 183.364986 
L 273.35174 176.573241 
L 273.82754 188.363112 
L 274.14474 183.653181 
L 274.303341 181.334016 
L 274.461941 182.509229 
L 274.620541 181.782028 
L 274.779141 183.846126 
L 274.937741 181.375148 
L 275.096341 181.321447 
L 275.254942 184.681422 
L 275.413542 180.987082 
L 275.572142 184.043101 
L 275.730742 181.843614 
L 275.889342 189.477612 
L 276.206543 185.529754 
L 276.365143 189.193281 
L 276.523743 186.596411 
L 276.999543 186.577987 
L 277.158144 183.97767 
L 277.316744 187.695343 
L 277.633944 183.812894 
L 277.792544 191.44816 
L 277.951144 189.379775 
L 278.109745 192.414573 
L 278.268345 188.917306 
L 278.426945 192.274446 
L 278.585545 192.32647 
L 278.744145 190.049697 
L 278.902745 192.170106 
L 279.061346 191.600625 
L 279.219946 192.868897 
L 279.695746 186.447208 
L 280.171547 198.340437 
L 280.330147 192.141851 
L 280.488747 193.472374 
L 280.647347 192.428994 
L 280.964548 194.913541 
L 281.281748 198.360894 
L 281.440348 195.350746 
L 281.598948 197.210477 
L 281.757549 195.471617 
L 282.074749 198.194916 
L 282.233349 197.838897 
L 282.550549 201.704495 
L 282.70915 200.37787 
L 282.86775 200.218195 
L 283.02635 196.211296 
L 283.34355 204.843313 
L 283.50215 199.556392 
L 283.660751 199.653522 
L 283.819351 197.853025 
L 283.977951 203.611121 
L 284.136551 202.339218 
L 284.295151 206.683201 
L 284.612352 199.465885 
L 284.929552 205.950146 
L 285.088152 208.827085 
L 285.246752 207.481526 
L 285.405352 209.541205 
L 285.722553 205.575487 
L 286.039753 208.94825 
L 286.198353 206.608932 
L 286.356953 206.572264 
L 286.515554 210.273966 
L 286.674154 206.482639 
L 286.832754 207.377773 
L 286.991354 210.20843 
L 287.149954 209.369512 
L 287.308554 213.786269 
L 287.625755 209.520161 
L 287.784355 209.60765 
L 287.942955 215.724169 
L 288.260155 211.772872 
L 288.418756 214.705439 
L 288.577356 210.819411 
L 288.735956 214.058965 
L 288.894556 211.756634 
L 289.211756 217.317186 
L 289.370357 212.435877 
L 289.687557 219.905472 
L 289.846157 213.592917 
L 290.004757 218.322963 
L 290.163357 218.982684 
L 290.321958 218.877729 
L 290.480558 221.80398 
L 290.639158 221.911031 
L 290.797758 221.374907 
L 290.956358 218.877141 
L 291.114958 227.065945 
L 291.273559 220.313794 
L 291.432159 220.671015 
L 291.749359 224.075345 
L 291.907959 222.608914 
L 292.066559 223.625535 
L 292.22516 226.631463 
L 292.54236 221.94651 
L 292.70096 225.374903 
L 292.85956 225.758883 
L 293.176761 229.980472 
L 293.335361 227.829084 
L 293.493961 228.454807 
L 293.811161 228.216963 
L 293.969762 229.720088 
L 294.128362 229.165322 
L 294.286962 232.839384 
L 294.604162 229.146374 
L 294.762762 233.233873 
L 294.921363 231.992654 
L 295.079963 231.630627 
L 295.238563 229.677385 
L 295.397163 230.720457 
L 295.555763 233.391438 
L 295.714363 232.540503 
L 295.872964 230.581238 
L 296.031564 231.538024 
L 296.190164 234.633551 
L 296.348764 231.691063 
L 296.507364 236.55974 
L 296.665964 237.899584 
L 296.824565 237.833727 
L 296.983165 235.905749 
L 297.141765 238.189145 
L 297.300365 238.313021 
L 297.458965 236.384442 
L 297.617565 237.925142 
L 297.934766 241.659933 
L 298.093366 240.048275 
L 298.251966 240.19891 
L 298.410566 239.179299 
L 298.569166 241.252812 
L 298.727767 239.005496 
L 298.886367 241.768787 
L 299.044967 240.907316 
L 299.203567 241.591378 
L 299.362167 245.355933 
L 299.520767 245.81688 
L 299.679368 245.414874 
L 299.837968 246.385773 
L 300.313768 242.291064 
L 300.472368 246.332561 
L 300.789569 245.840341 
L 300.948169 246.453726 
L 301.106769 247.56777 
L 301.265369 247.381642 
L 301.423969 249.825902 
L 301.58257 247.104113 
L 301.89977 250.334653 
L 302.05837 250.877094 
L 302.21697 247.882582 
L 302.534171 250.834991 
L 302.692771 246.419155 
L 302.851371 250.531303 
L 303.009971 248.58407 
L 303.168571 248.086749 
L 303.485772 253.7823 
L 303.644372 248.806879 
L 303.961572 254.242339 
L 304.120172 248.767794 
L 304.437373 255.200313 
L 304.754573 249.223026 
L 304.913173 255.129355 
L 305.071773 254.873177 
L 305.230373 251.950224 
L 305.388974 254.954056 
L 305.547574 251.602337 
L 305.706174 255.558134 
L 305.864774 255.305254 
L 306.023374 254.692764 
L 306.181975 257.916401 
L 306.340575 258.228501 
L 306.499175 254.839193 
L 306.657775 256.814094 
L 306.816375 257.393202 
L 306.974975 254.519268 
L 307.133576 257.644573 
L 307.292176 256.33691 
L 307.450776 256.68059 
L 307.609376 256.657129 
L 307.926576 258.450108 
L 308.085177 254.741476 
L 308.243777 258.582704 
L 308.402377 258.894217 
L 308.719577 257.223926 
L 308.878177 257.264212 
L 309.195378 260.932852 
L 309.353978 260.680586 
L 309.512578 260.028397 
L 309.829778 257.347508 
L 309.988379 259.942404 
L 310.146979 260.333888 
L 310.305579 258.929095 
L 310.464179 259.642321 
L 310.622779 257.035995 
L 310.781379 261.532109 
L 310.93998 259.197611 
L 311.09858 261.771155 
L 311.25718 258.819947 
L 311.41578 258.056207 
L 311.57438 258.227006 
L 311.73298 255.138982 
L 312.050181 259.890086 
L 312.367381 256.214222 
L 312.525981 258.868365 
L 312.684581 257.329455 
L 312.843182 258.407405 
L 313.001782 257.578128 
L 313.318982 260.394631 
L 313.477582 259.977282 
L 313.636182 262.290442 
L 313.953383 258.608876 
L 314.111983 259.386437 
L 314.270583 256.438834 
L 314.429183 259.740345 
L 314.587783 259.918649 
L 314.746384 257.495433 
L 314.904984 258.264287 
L 315.063584 259.736433 
L 315.380784 253.909782 
L 315.697985 261.466573 
L 315.856585 258.283836 
L 316.173785 261.134015 
L 316.332385 257.571211 
L 316.490985 258.807622 
L 316.808186 253.862873 
L 316.966786 254.911059 
L 317.125386 257.271129 
L 317.283986 257.552263 
L 317.442586 257.552263 
L 317.601187 257.826619 
L 317.918387 261.113705 
L 318.076987 259.298955 
L 318.235587 256.128228 
L 318.394188 257.304274 
L 318.552788 253.582363 
L 318.869988 256.300771 
L 319.028588 252.904452 
L 319.345789 260.227508 
L 319.504389 258.114811 
L 319.662989 254.082973 
L 319.980189 255.985508 
L 320.138789 253.299084 
L 320.29739 253.259961 
L 320.45599 256.385514 
L 320.61459 253.141559 
L 320.77319 253.682445 
L 321.09039 249.258214 
L 321.248991 251.40761 
L 321.407591 250.657826 
L 321.724791 252.928382 
L 321.883391 251.729531 
L 322.041991 252.484919 
L 322.200592 250.522822 
L 322.359192 252.881121 
L 322.676392 248.260951 
L 322.834992 249.16383 
L 322.993592 252.355704 
L 323.152193 248.730495 
L 323.310793 248.459444 
L 323.469393 247.189029 
L 323.627993 243.517978 
L 323.786593 245.822868 
L 323.945193 242.781424 
L 324.103794 247.117014 
L 324.262394 243.810444 
L 324.420994 244.050389 
L 324.579594 241.97381 
L 324.738194 241.846938 
L 324.896794 244.098279 
L 325.055395 242.831072 
L 325.372595 238.688441 
L 325.531195 237.791836 
L 325.848395 240.610309 
L 326.006996 240.022196 
L 326.482796 236.556942 
L 326.641396 240.105651 
L 326.799996 235.343693 
L 327.117197 235.954813 
L 327.434397 234.888799 
L 327.592997 232.691715 
L 327.751597 235.451989 
L 327.910198 231.492993 
L 328.068798 231.398064 
L 328.227398 232.865134 
L 328.385998 228.236127 
L 328.544598 227.815387 
L 328.703198 230.720421 
L 329.020399 228.154128 
L 329.178999 231.804846 
L 329.337599 227.231258 
L 329.496199 229.81775 
L 329.654799 225.681466 
L 329.8134 224.551749 
L 329.972 230.393105 
L 330.2892 221.924928 
L 330.6064 227.570785 
L 330.765001 220.453712 
L 330.923601 221.432253 
L 331.082201 224.969154 
L 331.240801 218.350351 
L 331.399401 219.755059 
L 331.558002 223.171913 
L 331.716602 221.728642 
L 331.875202 218.595203 
L 332.033802 222.405923 
L 332.192402 216.43082 
L 332.351002 216.664822 
L 332.509603 218.05531 
L 332.668203 213.627761 
L 332.826803 213.348506 
L 332.985403 213.829218 
L 333.144003 215.301953 
L 333.302603 211.159336 
L 333.461204 213.127162 
L 333.619804 211.975538 
L 333.778404 212.353281 
L 333.937004 212.138612 
L 334.254204 209.682063 
L 334.412805 213.453285 
L 334.888605 205.822737 
L 335.047205 206.036428 
L 335.205805 204.597795 
L 335.364406 204.197754 
L 335.523006 207.719487 
L 335.681606 207.576664 
L 335.840206 205.624314 
L 335.998806 207.904988 
L 336.157406 204.341334 
L 336.316007 205.830916 
L 336.791807 200.055489 
L 336.950407 200.436828 
L 337.267608 203.467259 
L 337.426208 200.271585 
L 337.584808 199.479108 
L 337.743408 201.234199 
L 338.060608 197.008771 
L 338.219209 197.673175 
L 338.377809 202.414195 
L 338.536409 198.095735 
L 338.695009 200.771901 
L 338.853609 200.959719 
L 339.17081 195.888667 
L 339.32941 198.096696 
L 339.48801 198.399336 
L 339.80521 193.912312 
L 339.96381 191.534244 
L 340.122411 195.453533 
L 340.281011 193.193588 
L 340.439611 189.309167 
L 340.598211 192.787377 
L 340.756811 191.257732 
L 340.915411 192.148607 
L 341.232612 190.136141 
L 341.391212 190.010853 
L 341.549812 186.5907 
L 341.867012 189.883045 
L 342.025613 189.49166 
L 342.184213 192.600939 
L 342.342813 190.435752 
L 342.501413 185.513552 
L 342.660013 188.224165 
L 342.818613 188.590364 
L 342.977214 186.076772 
L 343.135814 186.678797 
L 343.294414 188.427187 
L 343.453014 188.052022 
L 343.611614 179.279347 
L 343.770215 188.142655 
L 344.087415 183.101222 
L 344.246015 182.462265 
L 344.404615 185.113335 
L 344.563215 184.247735 
L 344.721816 184.269969 
L 344.880416 188.886519 
L 345.039016 180.966535 
L 345.356216 188.054325 
L 345.514816 181.835318 
L 345.832017 186.753112 
L 345.990617 183.498515 
L 346.149217 186.45579 
L 346.307817 181.422161 
L 346.466417 184.085905 
L 346.783618 178.276647 
L 346.942218 184.584952 
L 347.100818 184.060934 
L 347.418018 177.998539 
L 347.576619 182.407116 
L 347.735219 180.872978 
L 347.893819 183.44033 
L 348.052419 183.850662 
L 348.211019 179.055859 
L 348.369619 182.629865 
L 348.52822 182.039049 
L 348.68682 178.882859 
L 348.84542 179.619671 
L 349.00402 181.575154 
L 349.16262 179.946253 
L 349.32122 176.089422 
L 349.479821 177.916412 
L 349.638421 175.891955 
L 350.114221 184.757008 
L 350.431422 175.949916 
L 350.590022 180.329098 
L 350.748622 178.499453 
L 350.907222 184.295314 
L 351.065822 181.970632 
L 351.224422 181.672483 
L 351.383023 175.469558 
L 351.700223 184.073601 
L 351.858823 179.431354 
L 352.017423 178.896913 
L 352.176023 177.090891 
L 352.493224 180.611703 
L 352.651824 179.907151 
L 352.810424 180.329101 
L 352.969024 182.188659 
L 353.127624 180.048503 
L 353.286225 181.738777 
L 353.444825 178.245853 
L 353.920625 182.674116 
L 354.079225 183.513434 
L 354.237826 182.20005 
L 354.396426 183.364986 
L 354.555026 176.573241 
L 355.030826 188.363112 
L 355.348027 183.653181 
L 355.506627 181.334016 
L 355.665227 182.509229 
L 355.823827 181.782028 
L 355.982427 183.846126 
L 356.141028 181.375148 
L 356.299628 181.321447 
L 356.458228 184.681422 
L 356.616828 180.987082 
L 356.775428 184.043101 
L 356.934029 181.843614 
L 357.092629 189.477612 
L 357.409829 185.529754 
L 357.568429 189.193281 
L 357.727029 186.596411 
L 358.20283 186.577987 
L 358.36143 183.97767 
L 358.52003 187.695343 
L 358.837231 183.812894 
L 358.995831 191.44816 
L 359.154431 189.379775 
L 359.313031 192.414573 
L 359.471631 188.917306 
L 359.630231 192.274446 
L 359.788832 192.32647 
L 359.947432 190.049697 
L 360.106032 192.170106 
L 360.264632 191.600625 
L 360.423232 192.868897 
L 360.899033 186.447208 
L 361.374833 198.340437 
L 361.533433 192.141851 
L 361.692034 193.472374 
L 361.850634 192.428994 
L 362.167834 194.913541 
L 362.485034 198.360894 
L 362.643635 195.350746 
L 362.802235 197.210477 
L 362.960835 195.471617 
L 363.278035 198.194916 
L 363.436635 197.838897 
L 363.753836 201.704495 
L 363.912436 200.37787 
L 364.071036 200.218195 
L 364.229636 196.211296 
L 364.546837 204.843313 
L 364.705437 199.556392 
L 364.864037 199.653522 
L 365.022637 197.853025 
L 365.181237 203.611121 
L 365.339837 202.339218 
L 365.498438 206.683201 
L 365.815638 199.465885 
L 366.132838 205.950146 
L 366.291438 208.827085 
L 366.450039 207.481526 
L 366.608639 209.541205 
L 366.925839 205.575487 
L 367.243039 208.94825 
L 367.40164 206.608932 
L 367.56024 206.572264 
L 367.71884 210.273966 
L 367.87744 206.482639 
L 368.03604 207.377773 
L 368.19464 210.20843 
L 368.353241 209.369512 
L 368.511841 213.786269 
L 368.829041 209.520161 
L 368.987641 209.60765 
L 369.146242 215.724169 
L 369.463442 211.772872 
L 369.622042 214.705439 
L 369.780642 210.819411 
L 369.939242 214.058965 
L 370.097843 211.756634 
L 370.415043 217.317186 
L 370.573643 212.435877 
L 370.890843 219.905472 
L 371.049444 213.592917 
L 371.208044 218.322963 
L 371.366644 218.982684 
L 371.525244 218.877729 
L 371.683844 221.80398 
L 371.842444 221.911031 
L 372.001045 221.374907 
L 372.159645 218.877141 
L 372.318245 227.065945 
L 372.476845 220.313794 
L 372.635445 220.671015 
L 372.952646 224.075345 
L 373.111246 222.608914 
L 373.269846 223.625535 
L 373.428446 226.631463 
L 373.745646 221.94651 
L 373.904247 225.374903 
L 374.062847 225.758883 
L 374.380047 229.980472 
L 374.538647 227.829084 
L 374.697247 228.454807 
L 375.014448 228.216963 
L 375.173048 229.720088 
L 375.331648 229.165322 
L 375.490248 232.839384 
L 375.807449 229.146374 
L 375.966049 233.233873 
L 376.124649 231.992654 
L 376.283249 231.630627 
L 376.441849 229.677385 
L 376.600449 230.720457 
L 376.75905 233.391438 
L 376.91765 232.540503 
L 377.07625 230.581238 
L 377.23485 231.538024 
L 377.39345 234.633551 
L 377.55205 231.691063 
L 377.710651 236.55974 
L 377.869251 237.899584 
L 378.027851 237.833727 
L 378.186451 235.905749 
L 378.345051 238.189145 
L 378.503651 238.313021 
L 378.662252 236.384442 
L 378.820852 237.925142 
L 379.138052 241.659933 
L 379.296652 240.048275 
L 379.455252 240.19891 
L 379.613853 239.179299 
L 379.772453 241.252812 
L 379.931053 239.005496 
L 380.089653 241.768787 
L 380.248253 240.907316 
L 380.406853 241.591378 
L 380.565454 245.355933 
L 380.724054 245.81688 
L 380.882654 245.414874 
L 381.041254 246.385773 
L 381.517055 242.291064 
L 381.675655 246.332561 
L 381.992855 245.840341 
L 382.151455 246.453726 
L 382.310056 247.56777 
L 382.468656 247.381642 
L 382.627256 249.825902 
L 382.785856 247.104113 
L 383.103056 250.334653 
L 383.261657 250.877094 
L 383.420257 247.882582 
L 383.737457 250.834991 
L 383.896057 246.419155 
L 384.054657 250.531303 
L 384.213258 248.58407 
L 384.371858 248.086749 
L 384.689058 253.7823 
L 384.847658 248.806879 
L 385.164859 254.242339 
L 385.323459 248.767794 
L 385.640659 255.200313 
L 385.957859 249.223026 
L 386.11646 255.129355 
L 386.27506 254.873177 
L 386.43366 251.950224 
L 386.59226 254.954056 
L 386.75086 251.602337 
L 386.90946 255.558134 
L 387.068061 255.305254 
L 387.226661 254.692764 
L 387.385261 257.916401 
L 387.543861 258.228501 
L 387.702461 254.839193 
L 387.861061 256.814094 
L 388.019662 257.393202 
L 388.178262 254.519268 
L 388.336862 257.644573 
L 388.495462 256.33691 
L 388.654062 256.68059 
L 388.812662 256.657129 
L 389.129863 258.450108 
L 389.288463 254.741476 
L 389.447063 258.582704 
L 389.605663 258.894217 
L 389.922864 257.223926 
L 390.081464 257.264212 
L 390.398664 260.932852 
L 390.557264 260.680586 
L 390.715864 260.028397 
L 391.033065 257.347508 
L 391.191665 259.942404 
L 391.350265 260.333888 
L 391.508865 258.929095 
L 391.667465 259.642321 
L 391.826066 257.035995 
L 391.984666 261.532109 
L 392.143266 259.197611 
L 392.301866 261.771155 
L 392.460466 258.819947 
L 392.619066 258.056207 
L 392.777667 258.227006 
L 392.936267 255.138982 
L 393.253467 259.890086 
L 393.570667 256.214222 
L 393.729268 258.868365 
L 393.887868 257.329455 
L 394.046468 258.407405 
L 394.205068 257.578128 
L 394.522269 260.394631 
L 394.680869 259.977282 
L 394.839469 262.290442 
L 395.156669 258.608876 
L 395.315269 259.386437 
L 395.47387 256.438834 
L 395.63247 259.740345 
L 395.79107 259.918649 
L 395.94967 257.495433 
L 396.10827 258.264287 
L 396.26687 259.736433 
L 396.584071 253.909782 
L 396.901271 261.466573 
L 397.059871 258.283836 
L 397.377072 261.134015 
L 397.535672 257.571211 
L 397.694272 258.807622 
L 398.011472 253.862873 
L 398.170072 254.911059 
L 398.328673 257.271129 
L 398.487273 257.552263 
L 398.487273 257.552263 
" style="fill:none;stroke:#1f77b4;stroke-linecap:square;stroke-width:1.5;"/>
   </g>
   <g id="patch_3">
    <path d="M 57.6 307.584 
L 57.6 41.472 
" style="fill:none;stroke:#000000;stroke-linecap:square;stroke-linejoin:miter;stroke-width:0.8;"/>
   </g>
   <g id="patch_4">
    <path d="M 414.72 307.584 
L 414.72 41.472 
" style="fill:none;stroke:#000000;stroke-linecap:square;stroke-linejoin:miter;stroke-width:0.8;"/>
   </g>
   <g id="patch_5">
    <path d="M 57.6 307.584 
L 414.72 307.584 
" style="fill:none;stroke:#000000;stroke-linecap:square;stroke-linejoin:miter;stroke-width:0.8;"/>
   </g>
   <g id="patch_6">
    <path d="M 57.6 41.472 
L 414.72 41.472 
" style="fill:none;stroke:#000000;stroke-linecap:square;stroke-linejoin:miter;stroke-width:0.8;"/>
   </g>
  </g>
 </g>
 <defs>
  <clipPath id="p1ec2540e88">
   <rect height="266.112" width="357.12" x="57.6" y="41.472"/>
  </clipPath>
 </defs>
</svg>
