<?xml version="1.0" encoding="utf-8" standalone="no"?>
<!DOCTYPE svg PUBLIC "-//W3C//DTD SVG 1.1//EN"
  "http://www.w3.org/Graphics/SVG/1.1/DTD/svg11.dtd">
<!-- Created with matplotlib (https://matplotlib.org/) -->
<svg height="345.6pt" version="1.1" viewBox="0 0 460.8 345.6" width="460.8pt" xmlns="http://www.w3.org/2000/svg" xmlns:xlink="http://www.w3.org/1999/xlink">
 <defs>
  <style type="text/css">
*{stroke-linecap:butt;stroke-linejoin:round;}
  </style>
 </defs>
 <g id="figure_1">
  <g id="patch_1">
   <path d="M 0 345.6 
L 460.8 345.6 
L 460.8 0 
L 0 0 
z
" style="fill:#ffffff;"/>
  </g>
  <g id="axes_1">
   <g id="patch_2">
    <path d="M 57.6 307.584 
L 414.72 307.584 
L 414.72 41.472 
L 57.6 41.472 
z
" style="fill:#ffffff;"/>
   </g>
   <g id="matplotlib.axis_1">
    <g id="xtick_1">
     <g id="line2d_1">
      <defs>
       <path d="M 0 0 
L 0 3.5 
" id="m5cb13e9752" style="stroke:#000000;stroke-width:0.8;"/>
      </defs>
      <g>
       <use style="stroke:#000000;stroke-width:0.8;" x="73.832727" xlink:href="#m5cb13e9752" y="307.584"/>
      </g>
     </g>
     <g id="text_1">
      <!-- 0 -->
      <defs>
       <path d="M 31.78125 66.40625 
Q 24.171875 66.40625 20.328125 58.90625 
Q 16.5 51.421875 16.5 36.375 
Q 16.5 21.390625 20.328125 13.890625 
Q 24.171875 6.390625 31.78125 6.390625 
Q 39.453125 6.390625 43.28125 13.890625 
Q 47.125 21.390625 47.125 36.375 
Q 47.125 51.421875 43.28125 58.90625 
Q 39.453125 66.40625 31.78125 66.40625 
z
M 31.78125 74.21875 
Q 44.046875 74.21875 50.515625 64.515625 
Q 56.984375 54.828125 56.984375 36.375 
Q 56.984375 17.96875 50.515625 8.265625 
Q 44.046875 -1.421875 31.78125 -1.421875 
Q 19.53125 -1.421875 13.0625 8.265625 
Q 6.59375 17.96875 6.59375 36.375 
Q 6.59375 54.828125 13.0625 64.515625 
Q 19.53125 74.21875 31.78125 74.21875 
z
" id="DejaVuSans-48"/>
      </defs>
      <g transform="translate(70.651477 322.182437)scale(0.1 -0.1)">
       <use xlink:href="#DejaVuSans-48"/>
      </g>
     </g>
    </g>
    <g id="xtick_2">
     <g id="line2d_2">
      <g>
       <use style="stroke:#000000;stroke-width:0.8;" x="137.490481" xlink:href="#m5cb13e9752" y="307.584"/>
      </g>
     </g>
     <g id="text_2">
      <!-- 50 -->
      <defs>
       <path d="M 10.796875 72.90625 
L 49.515625 72.90625 
L 49.515625 64.59375 
L 19.828125 64.59375 
L 19.828125 46.734375 
Q 21.96875 47.46875 24.109375 47.828125 
Q 26.265625 48.1875 28.421875 48.1875 
Q 40.625 48.1875 47.75 41.5 
Q 54.890625 34.8125 54.890625 23.390625 
Q 54.890625 11.625 47.5625 5.09375 
Q 40.234375 -1.421875 26.90625 -1.421875 
Q 22.3125 -1.421875 17.546875 -0.640625 
Q 12.796875 0.140625 7.71875 1.703125 
L 7.71875 11.625 
Q 12.109375 9.234375 16.796875 8.0625 
Q 21.484375 6.890625 26.703125 6.890625 
Q 35.15625 6.890625 40.078125 11.328125 
Q 45.015625 15.765625 45.015625 23.390625 
Q 45.015625 31 40.078125 35.4375 
Q 35.15625 39.890625 26.703125 39.890625 
Q 22.75 39.890625 18.8125 39.015625 
Q 14.890625 38.140625 10.796875 36.28125 
z
" id="DejaVuSans-53"/>
      </defs>
      <g transform="translate(131.127981 322.182437)scale(0.1 -0.1)">
       <use xlink:href="#DejaVuSans-53"/>
       <use x="63.623047" xlink:href="#DejaVuSans-48"/>
      </g>
     </g>
    </g>
    <g id="xtick_3">
     <g id="line2d_3">
      <g>
       <use style="stroke:#000000;stroke-width:0.8;" x="201.148235" xlink:href="#m5cb13e9752" y="307.584"/>
      </g>
     </g>
     <g id="text_3">
      <!-- 100 -->
      <defs>
       <path d="M 12.40625 8.296875 
L 28.515625 8.296875 
L 28.515625 63.921875 
L 10.984375 60.40625 
L 10.984375 69.390625 
L 28.421875 72.90625 
L 38.28125 72.90625 
L 38.28125 8.296875 
L 54.390625 8.296875 
L 54.390625 0 
L 12.40625 0 
z
" id="DejaVuSans-49"/>
      </defs>
      <g transform="translate(191.604485 322.182437)scale(0.1 -0.1)">
       <use xlink:href="#DejaVuSans-49"/>
       <use x="63.623047" xlink:href="#DejaVuSans-48"/>
       <use x="127.246094" xlink:href="#DejaVuSans-48"/>
      </g>
     </g>
    </g>
    <g id="xtick_4">
     <g id="line2d_4">
      <g>
       <use style="stroke:#000000;stroke-width:0.8;" x="264.805989" xlink:href="#m5cb13e9752" y="307.584"/>
      </g>
     </g>
     <g id="text_4">
      <!-- 150 -->
      <g transform="translate(255.262239 322.182437)scale(0.1 -0.1)">
       <use xlink:href="#DejaVuSans-49"/>
       <use x="63.623047" xlink:href="#DejaVuSans-53"/>
       <use x="127.246094" xlink:href="#DejaVuSans-48"/>
      </g>
     </g>
    </g>
    <g id="xtick_5">
     <g id="line2d_5">
      <g>
       <use style="stroke:#000000;stroke-width:0.8;" x="328.463743" xlink:href="#m5cb13e9752" y="307.584"/>
      </g>
     </g>
     <g id="text_5">
      <!-- 200 -->
      <defs>
       <path d="M 19.1875 8.296875 
L 53.609375 8.296875 
L 53.609375 0 
L 7.328125 0 
L 7.328125 8.296875 
Q 12.9375 14.109375 22.625 23.890625 
Q 32.328125 33.6875 34.8125 36.53125 
Q 39.546875 41.84375 41.421875 45.53125 
Q 43.3125 49.21875 43.3125 52.78125 
Q 43.3125 58.59375 39.234375 62.25 
Q 35.15625 65.921875 28.609375 65.921875 
Q 23.96875 65.921875 18.8125 64.3125 
Q 13.671875 62.703125 7.8125 59.421875 
L 7.8125 69.390625 
Q 13.765625 71.78125 18.9375 73 
Q 24.125 74.21875 28.421875 74.21875 
Q 39.75 74.21875 46.484375 68.546875 
Q 53.21875 62.890625 53.21875 53.421875 
Q 53.21875 48.921875 51.53125 44.890625 
Q 49.859375 40.875 45.40625 35.40625 
Q 44.1875 33.984375 37.640625 27.21875 
Q 31.109375 20.453125 19.1875 8.296875 
z
" id="DejaVuSans-50"/>
      </defs>
      <g transform="translate(318.919993 322.182437)scale(0.1 -0.1)">
       <use xlink:href="#DejaVuSans-50"/>
       <use x="63.623047" xlink:href="#DejaVuSans-48"/>
       <use x="127.246094" xlink:href="#DejaVuSans-48"/>
      </g>
     </g>
    </g>
    <g id="xtick_6">
     <g id="line2d_6">
      <g>
       <use style="stroke:#000000;stroke-width:0.8;" x="392.121497" xlink:href="#m5cb13e9752" y="307.584"/>
      </g>
     </g>
     <g id="text_6">
      <!-- 250 -->
      <g transform="translate(382.577747 322.182437)scale(0.1 -0.1)">
       <use xlink:href="#DejaVuSans-50"/>
       <use x="63.623047" xlink:href="#DejaVuSans-53"/>
       <use x="127.246094" xlink:href="#DejaVuSans-48"/>
      </g>
     </g>
    </g>
   </g>
   <g id="matplotlib.axis_2">
    <g id="ytick_1">
     <g id="line2d_7">
      <defs>
       <path d="M 0 0 
L -3.5 0 
" id="mf6ccf20078" style="stroke:#000000;stroke-width:0.8;"/>
      </defs>
      <g>
       <use style="stroke:#000000;stroke-width:0.8;" x="57.6" xlink:href="#mf6ccf20078" y="295.569296"/>
      </g>
     </g>
     <g id="text_7">
      <!-- 1.0 -->
      <defs>
       <path d="M 10.6875 12.40625 
L 21 12.40625 
L 21 0 
L 10.6875 0 
z
" id="DejaVuSans-46"/>
      </defs>
      <g transform="translate(34.696875 299.368515)scale(0.1 -0.1)">
       <use xlink:href="#DejaVuSans-49"/>
       <use x="63.623047" xlink:href="#DejaVuSans-46"/>
       <use x="95.410156" xlink:href="#DejaVuSans-48"/>
      </g>
     </g>
    </g>
    <g id="ytick_2">
     <g id="line2d_8">
      <g>
       <use style="stroke:#000000;stroke-width:0.8;" x="57.6" xlink:href="#mf6ccf20078" y="248.636354"/>
      </g>
     </g>
     <g id="text_8">
      <!-- 1.1 -->
      <g transform="translate(34.696875 252.435573)scale(0.1 -0.1)">
       <use xlink:href="#DejaVuSans-49"/>
       <use x="63.623047" xlink:href="#DejaVuSans-46"/>
       <use x="95.410156" xlink:href="#DejaVuSans-49"/>
      </g>
     </g>
    </g>
    <g id="ytick_3">
     <g id="line2d_9">
      <g>
       <use style="stroke:#000000;stroke-width:0.8;" x="57.6" xlink:href="#mf6ccf20078" y="201.703413"/>
      </g>
     </g>
     <g id="text_9">
      <!-- 1.2 -->
      <g transform="translate(34.696875 205.502632)scale(0.1 -0.1)">
       <use xlink:href="#DejaVuSans-49"/>
       <use x="63.623047" xlink:href="#DejaVuSans-46"/>
       <use x="95.410156" xlink:href="#DejaVuSans-50"/>
      </g>
     </g>
    </g>
    <g id="ytick_4">
     <g id="line2d_10">
      <g>
       <use style="stroke:#000000;stroke-width:0.8;" x="57.6" xlink:href="#mf6ccf20078" y="154.770471"/>
      </g>
     </g>
     <g id="text_10">
      <!-- 1.3 -->
      <defs>
       <path d="M 40.578125 39.3125 
Q 47.65625 37.796875 51.625 33 
Q 55.609375 28.21875 55.609375 21.1875 
Q 55.609375 10.40625 48.1875 4.484375 
Q 40.765625 -1.421875 27.09375 -1.421875 
Q 22.515625 -1.421875 17.65625 -0.515625 
Q 12.796875 0.390625 7.625 2.203125 
L 7.625 11.71875 
Q 11.71875 9.328125 16.59375 8.109375 
Q 21.484375 6.890625 26.8125 6.890625 
Q 36.078125 6.890625 40.9375 10.546875 
Q 45.796875 14.203125 45.796875 21.1875 
Q 45.796875 27.640625 41.28125 31.265625 
Q 36.765625 34.90625 28.71875 34.90625 
L 20.21875 34.90625 
L 20.21875 43.015625 
L 29.109375 43.015625 
Q 36.375 43.015625 40.234375 45.921875 
Q 44.09375 48.828125 44.09375 54.296875 
Q 44.09375 59.90625 40.109375 62.90625 
Q 36.140625 65.921875 28.71875 65.921875 
Q 24.65625 65.921875 20.015625 65.03125 
Q 15.375 64.15625 9.8125 62.3125 
L 9.8125 71.09375 
Q 15.4375 72.65625 20.34375 73.4375 
Q 25.25 74.21875 29.59375 74.21875 
Q 40.828125 74.21875 47.359375 69.109375 
Q 53.90625 64.015625 53.90625 55.328125 
Q 53.90625 49.265625 50.4375 45.09375 
Q 46.96875 40.921875 40.578125 39.3125 
z
" id="DejaVuSans-51"/>
      </defs>
      <g transform="translate(34.696875 158.56969)scale(0.1 -0.1)">
       <use xlink:href="#DejaVuSans-49"/>
       <use x="63.623047" xlink:href="#DejaVuSans-46"/>
       <use x="95.410156" xlink:href="#DejaVuSans-51"/>
      </g>
     </g>
    </g>
    <g id="ytick_5">
     <g id="line2d_11">
      <g>
       <use style="stroke:#000000;stroke-width:0.8;" x="57.6" xlink:href="#mf6ccf20078" y="107.83753"/>
      </g>
     </g>
     <g id="text_11">
      <!-- 1.4 -->
      <defs>
       <path d="M 37.796875 64.3125 
L 12.890625 25.390625 
L 37.796875 25.390625 
z
M 35.203125 72.90625 
L 47.609375 72.90625 
L 47.609375 25.390625 
L 58.015625 25.390625 
L 58.015625 17.1875 
L 47.609375 17.1875 
L 47.609375 0 
L 37.796875 0 
L 37.796875 17.1875 
L 4.890625 17.1875 
L 4.890625 26.703125 
z
" id="DejaVuSans-52"/>
      </defs>
      <g transform="translate(34.696875 111.636748)scale(0.1 -0.1)">
       <use xlink:href="#DejaVuSans-49"/>
       <use x="63.623047" xlink:href="#DejaVuSans-46"/>
       <use x="95.410156" xlink:href="#DejaVuSans-52"/>
      </g>
     </g>
    </g>
    <g id="ytick_6">
     <g id="line2d_12">
      <g>
       <use style="stroke:#000000;stroke-width:0.8;" x="57.6" xlink:href="#mf6ccf20078" y="60.904588"/>
      </g>
     </g>
     <g id="text_12">
      <!-- 1.5 -->
      <g transform="translate(34.696875 64.703807)scale(0.1 -0.1)">
       <use xlink:href="#DejaVuSans-49"/>
       <use x="63.623047" xlink:href="#DejaVuSans-46"/>
       <use x="95.410156" xlink:href="#DejaVuSans-53"/>
      </g>
     </g>
    </g>
   </g>
   <g id="line2d_13">
    <path clip-path="url(#p126e9eff0c)" d="M 73.832727 294.935316 
L 75.105882 293.512474 
L 76.379037 299.99327 
L 77.652193 296.77834 
L 78.925348 301.961643 
L 80.198503 292.59764 
L 82.744813 300.493352 
L 84.017968 287.704648 
L 85.291123 293.869874 
L 86.564278 298.381507 
L 87.837433 300.058958 
L 89.110588 290.405678 
L 90.383743 293.499347 
L 91.656898 294.977595 
L 92.930053 300.96835 
L 94.203209 297.679588 
L 95.476364 292.680611 
L 96.749519 301.556572 
L 98.022674 292.124706 
L 99.295829 295.42993 
L 100.568984 295.196804 
L 101.842139 302.13589 
L 103.115294 288.569589 
L 104.388449 293.395079 
L 105.661604 290.89022 
L 106.934759 294.396778 
L 108.207914 293.024233 
L 109.48107 298.646614 
L 110.754225 292.874864 
L 112.02738 294.636349 
L 113.300535 296.618586 
L 114.57369 291.148582 
L 115.846845 303.632278 
L 117.12 297.867784 
L 118.393155 303.485423 
L 119.66631 289.579933 
L 120.939465 295.37019 
L 122.21262 294.31283 
L 123.485775 300.267021 
L 126.032086 293.547725 
L 127.305241 298.029552 
L 128.578396 291.500095 
L 129.851551 298.363567 
L 131.124706 299.371497 
L 132.397861 290.61161 
L 133.671016 294.849384 
L 134.944171 286.030502 
L 136.217326 285.013321 
L 137.490481 303.577446 
L 138.763636 305.353563 
L 140.036791 294.939157 
L 141.309947 287.371366 
L 142.583102 294.542367 
L 143.856257 303.571087 
L 145.129412 296.90977 
L 146.402567 295.520918 
L 147.675722 307.341577 
L 148.948877 285.743881 
L 150.222032 298.614786 
L 151.495187 284.743278 
L 152.768342 298.158678 
L 154.041497 301.957699 
L 155.314652 301.243622 
L 156.587807 295.247908 
L 157.860963 296.252616 
L 159.134118 292.434462 
L 160.407273 297.775109 
L 162.953583 287.094564 
L 164.226738 292.435419 
L 165.499893 291.451849 
L 166.773048 301.751596 
L 168.046203 298.12352 
L 169.319358 289.268273 
L 170.592513 302.475467 
L 171.865668 286.801314 
L 173.138824 299.158954 
L 174.411979 296.596266 
L 175.685134 304.024309 
L 176.958289 292.353236 
L 178.231444 295.612624 
L 179.504599 289.577765 
L 180.777754 297.915004 
L 182.050909 293.598519 
L 183.324064 307.584 
L 184.597219 299.131105 
L 185.870374 301.129945 
L 187.143529 287.164057 
L 188.416684 298.07867 
L 189.68984 288.82696 
L 190.962995 294.355663 
L 192.23615 296.380234 
L 193.509305 289.733255 
L 194.78246 285.568483 
L 196.055615 300.219331 
L 197.32877 296.931717 
L 198.601925 299.981022 
L 199.87508 296.377935 
L 201.148235 298.881885 
L 202.42139 295.572683 
L 203.694545 305.691602 
L 204.967701 285.599812 
L 206.240856 296.501888 
L 207.514011 297.058522 
L 210.060321 293.710413 
L 211.333476 298.283964 
L 212.606631 293.107605 
L 213.879786 289.857818 
L 215.152941 295.779059 
L 216.426096 293.353449 
L 217.699251 297.566815 
L 218.972406 300.600178 
L 220.245561 295.733452 
L 222.791872 293.839989 
L 224.065027 297.479641 
L 225.338182 296.327631 
L 226.611337 284.470663 
L 227.884492 296.953164 
L 229.157647 300.014656 
L 230.430802 305.115616 
L 231.703957 291.491593 
L 232.977112 298.857526 
L 234.250267 288.173641 
L 235.523422 305.305021 
L 236.796578 299.55604 
L 238.069733 289.640476 
L 239.342888 291.660089 
L 240.616043 287.857636 
L 241.889198 296.007703 
L 243.162353 297.06077 
L 244.435508 295.757642 
L 245.708663 291.440739 
L 246.981818 304.637158 
L 248.254973 293.988712 
L 249.528128 294.827189 
L 250.801283 287.903454 
L 252.074439 298.801559 
L 253.347594 297.095612 
L 254.620749 295.651642 
L 255.893904 307.107932 
L 257.167059 296.336287 
L 258.440214 299.916824 
L 259.713369 292.322366 
L 260.986524 293.151048 
L 262.259679 296.688492 
L 263.532834 294.362316 
L 264.805989 290.647598 
L 266.079144 297.118813 
L 268.625455 291.6512 
L 269.89861 294.028814 
L 271.171765 293.060792 
L 272.44492 298.796276 
L 273.718075 299.741562 
L 274.99123 292.912895 
L 276.264385 300.048404 
L 277.53754 294.183352 
L 278.810695 294.883593 
L 280.08385 290.819472 
L 281.357005 293.379426 
L 282.63016 292.967695 
L 283.903316 295.601035 
L 285.176471 292.919432 
L 286.449626 298.58583 
L 287.722781 294.257895 
L 288.995936 297.962685 
L 290.269091 295.808195 
L 291.542246 300.605299 
L 292.815401 295.532805 
L 294.088556 298.952325 
L 295.361711 297.163545 
L 296.634866 293.355085 
L 297.908021 298.843749 
L 299.181176 295.536077 
L 300.454332 298.617069 
L 301.727487 302.2709 
L 303.000642 291.504771 
L 304.273797 295.057913 
L 305.546952 291.672362 
L 306.820107 299.741578 
L 308.093262 295.325828 
L 309.366417 289.479008 
L 310.639572 294.081382 
L 311.912727 299.512684 
L 313.185882 292.871109 
L 314.459037 292.735658 
L 315.732193 286.494601 
L 317.005348 289.653282 
L 318.278503 303.386463 
L 319.551658 298.562705 
L 320.824813 296.27984 
L 322.097968 299.457101 
L 323.371123 291.828429 
L 324.644278 287.30631 
L 325.917433 302.329075 
L 327.190588 297.056629 
L 328.463743 293.859536 
L 329.736898 296.781529 
L 331.010053 293.138891 
L 332.283209 295.702037 
L 333.556364 301.011893 
L 334.829519 296.905181 
L 337.375829 292.643974 
L 338.648984 298.466995 
L 339.922139 291.583583 
L 341.195294 293.63133 
L 342.468449 302.365021 
L 343.741604 290.637974 
L 345.014759 299.39855 
L 346.287914 299.123294 
L 347.56107 303.625724 
L 348.834225 291.705409 
L 350.10738 294.049681 
L 351.380535 297.270428 
L 352.65369 289.881667 
L 353.926845 299.500489 
L 355.2 298.446541 
L 356.473155 295.082469 
L 357.74631 293.34684 
L 359.019465 297.85926 
L 360.29262 289.606159 
L 361.565775 289.025354 
L 362.83893 296.092852 
L 364.112086 299.892203 
L 365.385241 302.079243 
L 366.658396 287.276644 
L 367.931551 295.309167 
L 369.204706 292.616198 
L 370.477861 296.675636 
L 371.751016 295.698595 
L 373.024171 289.625432 
L 374.297326 297.59685 
L 375.570481 296.390481 
L 376.843636 293.410989 
L 378.116791 299.041737 
L 379.389947 297.65967 
L 380.663102 288.42129 
L 381.936257 282.614237 
L 383.209412 300.035052 
L 384.482567 300.245684 
L 385.755722 300.837196 
L 387.028877 302.635519 
L 388.302032 301.780721 
L 389.575187 294.797909 
L 390.848342 304.16579 
L 392.121497 286.429738 
L 393.394652 302.366218 
L 394.667807 296.472306 
L 395.940963 294.796285 
L 397.214118 296.978026 
L 398.487273 295.453336 
L 398.487273 295.453336 
" style="fill:none;stroke:#1f77b4;stroke-linecap:square;stroke-width:1.5;"/>
   </g>
   <g id="patch_3">
    <path d="M 57.6 307.584 
L 57.6 41.472 
" style="fill:none;stroke:#000000;stroke-linecap:square;stroke-linejoin:miter;stroke-width:0.8;"/>
   </g>
   <g id="patch_4">
    <path d="M 414.72 307.584 
L 414.72 41.472 
" style="fill:none;stroke:#000000;stroke-linecap:square;stroke-linejoin:miter;stroke-width:0.8;"/>
   </g>
   <g id="patch_5">
    <path d="M 57.6 307.584 
L 414.72 307.584 
" style="fill:none;stroke:#000000;stroke-linecap:square;stroke-linejoin:miter;stroke-width:0.8;"/>
   </g>
   <g id="patch_6">
    <path d="M 57.6 41.472 
L 414.72 41.472 
" style="fill:none;stroke:#000000;stroke-linecap:square;stroke-linejoin:miter;stroke-width:0.8;"/>
   </g>
  </g>
 </g>
 <defs>
  <clipPath id="p126e9eff0c">
   <rect height="266.112" width="357.12" x="57.6" y="41.472"/>
  </clipPath>
 </defs>
</svg>
