<?xml version="1.0" encoding="utf-8" standalone="no"?>
<!DOCTYPE svg PUBLIC "-//W3C//DTD SVG 1.1//EN"
  "http://www.w3.org/Graphics/SVG/1.1/DTD/svg11.dtd">
<!-- Created with matplotlib (https://matplotlib.org/) -->
<svg height="345.6pt" version="1.1" viewBox="0 0 460.8 345.6" width="460.8pt" xmlns="http://www.w3.org/2000/svg" xmlns:xlink="http://www.w3.org/1999/xlink">
 <defs>
  <style type="text/css">
*{stroke-linecap:butt;stroke-linejoin:round;}
  </style>
 </defs>
 <g id="figure_1">
  <g id="patch_1">
   <path d="M 0 345.6 
L 460.8 345.6 
L 460.8 0 
L 0 0 
z
" style="fill:#ffffff;"/>
  </g>
  <g id="axes_1">
   <g id="patch_2">
    <path d="M 57.6 307.584 
L 414.72 307.584 
L 414.72 41.472 
L 57.6 41.472 
z
" style="fill:#ffffff;"/>
   </g>
   <g id="matplotlib.axis_1">
    <g id="xtick_1">
     <g id="line2d_1">
      <defs>
       <path d="M 0 0 
L 0 3.5 
" id="m0c8654a3d3" style="stroke:#000000;stroke-width:0.8;"/>
      </defs>
      <g>
       <use style="stroke:#000000;stroke-width:0.8;" x="73.832727" xlink:href="#m0c8654a3d3" y="307.584"/>
      </g>
     </g>
     <g id="text_1">
      <!-- 0 -->
      <defs>
       <path d="M 31.78125 66.40625 
Q 24.171875 66.40625 20.328125 58.90625 
Q 16.5 51.421875 16.5 36.375 
Q 16.5 21.390625 20.328125 13.890625 
Q 24.171875 6.390625 31.78125 6.390625 
Q 39.453125 6.390625 43.28125 13.890625 
Q 47.125 21.390625 47.125 36.375 
Q 47.125 51.421875 43.28125 58.90625 
Q 39.453125 66.40625 31.78125 66.40625 
z
M 31.78125 74.21875 
Q 44.046875 74.21875 50.515625 64.515625 
Q 56.984375 54.828125 56.984375 36.375 
Q 56.984375 17.96875 50.515625 8.265625 
Q 44.046875 -1.421875 31.78125 -1.421875 
Q 19.53125 -1.421875 13.0625 8.265625 
Q 6.59375 17.96875 6.59375 36.375 
Q 6.59375 54.828125 13.0625 64.515625 
Q 19.53125 74.21875 31.78125 74.21875 
z
" id="DejaVuSans-48"/>
      </defs>
      <g transform="translate(70.651477 322.182437)scale(0.1 -0.1)">
       <use xlink:href="#DejaVuSans-48"/>
      </g>
     </g>
    </g>
    <g id="xtick_2">
     <g id="line2d_2">
      <g>
       <use style="stroke:#000000;stroke-width:0.8;" x="153.132812" xlink:href="#m0c8654a3d3" y="307.584"/>
      </g>
     </g>
     <g id="text_2">
      <!-- 500 -->
      <defs>
       <path d="M 10.796875 72.90625 
L 49.515625 72.90625 
L 49.515625 64.59375 
L 19.828125 64.59375 
L 19.828125 46.734375 
Q 21.96875 47.46875 24.109375 47.828125 
Q 26.265625 48.1875 28.421875 48.1875 
Q 40.625 48.1875 47.75 41.5 
Q 54.890625 34.8125 54.890625 23.390625 
Q 54.890625 11.625 47.5625 5.09375 
Q 40.234375 -1.421875 26.90625 -1.421875 
Q 22.3125 -1.421875 17.546875 -0.640625 
Q 12.796875 0.140625 7.71875 1.703125 
L 7.71875 11.625 
Q 12.109375 9.234375 16.796875 8.0625 
Q 21.484375 6.890625 26.703125 6.890625 
Q 35.15625 6.890625 40.078125 11.328125 
Q 45.015625 15.765625 45.015625 23.390625 
Q 45.015625 31 40.078125 35.4375 
Q 35.15625 39.890625 26.703125 39.890625 
Q 22.75 39.890625 18.8125 39.015625 
Q 14.890625 38.140625 10.796875 36.28125 
z
" id="DejaVuSans-53"/>
      </defs>
      <g transform="translate(143.589062 322.182437)scale(0.1 -0.1)">
       <use xlink:href="#DejaVuSans-53"/>
       <use x="63.623047" xlink:href="#DejaVuSans-48"/>
       <use x="127.246094" xlink:href="#DejaVuSans-48"/>
      </g>
     </g>
    </g>
    <g id="xtick_3">
     <g id="line2d_3">
      <g>
       <use style="stroke:#000000;stroke-width:0.8;" x="232.432896" xlink:href="#m0c8654a3d3" y="307.584"/>
      </g>
     </g>
     <g id="text_3">
      <!-- 1000 -->
      <defs>
       <path d="M 12.40625 8.296875 
L 28.515625 8.296875 
L 28.515625 63.921875 
L 10.984375 60.40625 
L 10.984375 69.390625 
L 28.421875 72.90625 
L 38.28125 72.90625 
L 38.28125 8.296875 
L 54.390625 8.296875 
L 54.390625 0 
L 12.40625 0 
z
" id="DejaVuSans-49"/>
      </defs>
      <g transform="translate(219.707896 322.182437)scale(0.1 -0.1)">
       <use xlink:href="#DejaVuSans-49"/>
       <use x="63.623047" xlink:href="#DejaVuSans-48"/>
       <use x="127.246094" xlink:href="#DejaVuSans-48"/>
       <use x="190.869141" xlink:href="#DejaVuSans-48"/>
      </g>
     </g>
    </g>
    <g id="xtick_4">
     <g id="line2d_4">
      <g>
       <use style="stroke:#000000;stroke-width:0.8;" x="311.73298" xlink:href="#m0c8654a3d3" y="307.584"/>
      </g>
     </g>
     <g id="text_4">
      <!-- 1500 -->
      <g transform="translate(299.00798 322.182437)scale(0.1 -0.1)">
       <use xlink:href="#DejaVuSans-49"/>
       <use x="63.623047" xlink:href="#DejaVuSans-53"/>
       <use x="127.246094" xlink:href="#DejaVuSans-48"/>
       <use x="190.869141" xlink:href="#DejaVuSans-48"/>
      </g>
     </g>
    </g>
    <g id="xtick_5">
     <g id="line2d_5">
      <g>
       <use style="stroke:#000000;stroke-width:0.8;" x="391.033065" xlink:href="#m0c8654a3d3" y="307.584"/>
      </g>
     </g>
     <g id="text_5">
      <!-- 2000 -->
      <defs>
       <path d="M 19.1875 8.296875 
L 53.609375 8.296875 
L 53.609375 0 
L 7.328125 0 
L 7.328125 8.296875 
Q 12.9375 14.109375 22.625 23.890625 
Q 32.328125 33.6875 34.8125 36.53125 
Q 39.546875 41.84375 41.421875 45.53125 
Q 43.3125 49.21875 43.3125 52.78125 
Q 43.3125 58.59375 39.234375 62.25 
Q 35.15625 65.921875 28.609375 65.921875 
Q 23.96875 65.921875 18.8125 64.3125 
Q 13.671875 62.703125 7.8125 59.421875 
L 7.8125 69.390625 
Q 13.765625 71.78125 18.9375 73 
Q 24.125 74.21875 28.421875 74.21875 
Q 39.75 74.21875 46.484375 68.546875 
Q 53.21875 62.890625 53.21875 53.421875 
Q 53.21875 48.921875 51.53125 44.890625 
Q 49.859375 40.875 45.40625 35.40625 
Q 44.1875 33.984375 37.640625 27.21875 
Q 31.109375 20.453125 19.1875 8.296875 
z
" id="DejaVuSans-50"/>
      </defs>
      <g transform="translate(378.308065 322.182437)scale(0.1 -0.1)">
       <use xlink:href="#DejaVuSans-50"/>
       <use x="63.623047" xlink:href="#DejaVuSans-48"/>
       <use x="127.246094" xlink:href="#DejaVuSans-48"/>
       <use x="190.869141" xlink:href="#DejaVuSans-48"/>
      </g>
     </g>
    </g>
   </g>
   <g id="matplotlib.axis_2">
    <g id="ytick_1">
     <g id="line2d_6">
      <defs>
       <path d="M 0 0 
L -3.5 0 
" id="m368aeccfd1" style="stroke:#000000;stroke-width:0.8;"/>
      </defs>
      <g>
       <use style="stroke:#000000;stroke-width:0.8;" x="57.6" xlink:href="#m368aeccfd1" y="274.766367"/>
      </g>
     </g>
     <g id="text_6">
      <!-- 0.7 -->
      <defs>
       <path d="M 10.6875 12.40625 
L 21 12.40625 
L 21 0 
L 10.6875 0 
z
" id="DejaVuSans-46"/>
       <path d="M 8.203125 72.90625 
L 55.078125 72.90625 
L 55.078125 68.703125 
L 28.609375 0 
L 18.3125 0 
L 43.21875 64.59375 
L 8.203125 64.59375 
z
" id="DejaVuSans-55"/>
      </defs>
      <g transform="translate(34.696875 278.565586)scale(0.1 -0.1)">
       <use xlink:href="#DejaVuSans-48"/>
       <use x="63.623047" xlink:href="#DejaVuSans-46"/>
       <use x="95.410156" xlink:href="#DejaVuSans-55"/>
      </g>
     </g>
    </g>
    <g id="ytick_2">
     <g id="line2d_7">
      <g>
       <use style="stroke:#000000;stroke-width:0.8;" x="57.6" xlink:href="#m368aeccfd1" y="239.513342"/>
      </g>
     </g>
     <g id="text_7">
      <!-- 0.8 -->
      <defs>
       <path d="M 31.78125 34.625 
Q 24.75 34.625 20.71875 30.859375 
Q 16.703125 27.09375 16.703125 20.515625 
Q 16.703125 13.921875 20.71875 10.15625 
Q 24.75 6.390625 31.78125 6.390625 
Q 38.8125 6.390625 42.859375 10.171875 
Q 46.921875 13.96875 46.921875 20.515625 
Q 46.921875 27.09375 42.890625 30.859375 
Q 38.875 34.625 31.78125 34.625 
z
M 21.921875 38.8125 
Q 15.578125 40.375 12.03125 44.71875 
Q 8.5 49.078125 8.5 55.328125 
Q 8.5 64.0625 14.71875 69.140625 
Q 20.953125 74.21875 31.78125 74.21875 
Q 42.671875 74.21875 48.875 69.140625 
Q 55.078125 64.0625 55.078125 55.328125 
Q 55.078125 49.078125 51.53125 44.71875 
Q 48 40.375 41.703125 38.8125 
Q 48.828125 37.15625 52.796875 32.3125 
Q 56.78125 27.484375 56.78125 20.515625 
Q 56.78125 9.90625 50.3125 4.234375 
Q 43.84375 -1.421875 31.78125 -1.421875 
Q 19.734375 -1.421875 13.25 4.234375 
Q 6.78125 9.90625 6.78125 20.515625 
Q 6.78125 27.484375 10.78125 32.3125 
Q 14.796875 37.15625 21.921875 38.8125 
z
M 18.3125 54.390625 
Q 18.3125 48.734375 21.84375 45.5625 
Q 25.390625 42.390625 31.78125 42.390625 
Q 38.140625 42.390625 41.71875 45.5625 
Q 45.3125 48.734375 45.3125 54.390625 
Q 45.3125 60.0625 41.71875 63.234375 
Q 38.140625 66.40625 31.78125 66.40625 
Q 25.390625 66.40625 21.84375 63.234375 
Q 18.3125 60.0625 18.3125 54.390625 
z
" id="DejaVuSans-56"/>
      </defs>
      <g transform="translate(34.696875 243.312561)scale(0.1 -0.1)">
       <use xlink:href="#DejaVuSans-48"/>
       <use x="63.623047" xlink:href="#DejaVuSans-46"/>
       <use x="95.410156" xlink:href="#DejaVuSans-56"/>
      </g>
     </g>
    </g>
    <g id="ytick_3">
     <g id="line2d_8">
      <g>
       <use style="stroke:#000000;stroke-width:0.8;" x="57.6" xlink:href="#m368aeccfd1" y="204.260318"/>
      </g>
     </g>
     <g id="text_8">
      <!-- 0.9 -->
      <defs>
       <path d="M 10.984375 1.515625 
L 10.984375 10.5 
Q 14.703125 8.734375 18.5 7.8125 
Q 22.3125 6.890625 25.984375 6.890625 
Q 35.75 6.890625 40.890625 13.453125 
Q 46.046875 20.015625 46.78125 33.40625 
Q 43.953125 29.203125 39.59375 26.953125 
Q 35.25 24.703125 29.984375 24.703125 
Q 19.046875 24.703125 12.671875 31.3125 
Q 6.296875 37.9375 6.296875 49.421875 
Q 6.296875 60.640625 12.9375 67.421875 
Q 19.578125 74.21875 30.609375 74.21875 
Q 43.265625 74.21875 49.921875 64.515625 
Q 56.59375 54.828125 56.59375 36.375 
Q 56.59375 19.140625 48.40625 8.859375 
Q 40.234375 -1.421875 26.421875 -1.421875 
Q 22.703125 -1.421875 18.890625 -0.6875 
Q 15.09375 0.046875 10.984375 1.515625 
z
M 30.609375 32.421875 
Q 37.25 32.421875 41.125 36.953125 
Q 45.015625 41.5 45.015625 49.421875 
Q 45.015625 57.28125 41.125 61.84375 
Q 37.25 66.40625 30.609375 66.40625 
Q 23.96875 66.40625 20.09375 61.84375 
Q 16.21875 57.28125 16.21875 49.421875 
Q 16.21875 41.5 20.09375 36.953125 
Q 23.96875 32.421875 30.609375 32.421875 
z
" id="DejaVuSans-57"/>
      </defs>
      <g transform="translate(34.696875 208.059537)scale(0.1 -0.1)">
       <use xlink:href="#DejaVuSans-48"/>
       <use x="63.623047" xlink:href="#DejaVuSans-46"/>
       <use x="95.410156" xlink:href="#DejaVuSans-57"/>
      </g>
     </g>
    </g>
    <g id="ytick_4">
     <g id="line2d_9">
      <g>
       <use style="stroke:#000000;stroke-width:0.8;" x="57.6" xlink:href="#m368aeccfd1" y="169.007294"/>
      </g>
     </g>
     <g id="text_9">
      <!-- 1.0 -->
      <g transform="translate(34.696875 172.806512)scale(0.1 -0.1)">
       <use xlink:href="#DejaVuSans-49"/>
       <use x="63.623047" xlink:href="#DejaVuSans-46"/>
       <use x="95.410156" xlink:href="#DejaVuSans-48"/>
      </g>
     </g>
    </g>
    <g id="ytick_5">
     <g id="line2d_10">
      <g>
       <use style="stroke:#000000;stroke-width:0.8;" x="57.6" xlink:href="#m368aeccfd1" y="133.754269"/>
      </g>
     </g>
     <g id="text_10">
      <!-- 1.1 -->
      <g transform="translate(34.696875 137.553488)scale(0.1 -0.1)">
       <use xlink:href="#DejaVuSans-49"/>
       <use x="63.623047" xlink:href="#DejaVuSans-46"/>
       <use x="95.410156" xlink:href="#DejaVuSans-49"/>
      </g>
     </g>
    </g>
    <g id="ytick_6">
     <g id="line2d_11">
      <g>
       <use style="stroke:#000000;stroke-width:0.8;" x="57.6" xlink:href="#m368aeccfd1" y="98.501245"/>
      </g>
     </g>
     <g id="text_11">
      <!-- 1.2 -->
      <g transform="translate(34.696875 102.300463)scale(0.1 -0.1)">
       <use xlink:href="#DejaVuSans-49"/>
       <use x="63.623047" xlink:href="#DejaVuSans-46"/>
       <use x="95.410156" xlink:href="#DejaVuSans-50"/>
      </g>
     </g>
    </g>
    <g id="ytick_7">
     <g id="line2d_12">
      <g>
       <use style="stroke:#000000;stroke-width:0.8;" x="57.6" xlink:href="#m368aeccfd1" y="63.24822"/>
      </g>
     </g>
     <g id="text_12">
      <!-- 1.3 -->
      <defs>
       <path d="M 40.578125 39.3125 
Q 47.65625 37.796875 51.625 33 
Q 55.609375 28.21875 55.609375 21.1875 
Q 55.609375 10.40625 48.1875 4.484375 
Q 40.765625 -1.421875 27.09375 -1.421875 
Q 22.515625 -1.421875 17.65625 -0.515625 
Q 12.796875 0.390625 7.625 2.203125 
L 7.625 11.71875 
Q 11.71875 9.328125 16.59375 8.109375 
Q 21.484375 6.890625 26.8125 6.890625 
Q 36.078125 6.890625 40.9375 10.546875 
Q 45.796875 14.203125 45.796875 21.1875 
Q 45.796875 27.640625 41.28125 31.265625 
Q 36.765625 34.90625 28.71875 34.90625 
L 20.21875 34.90625 
L 20.21875 43.015625 
L 29.109375 43.015625 
Q 36.375 43.015625 40.234375 45.921875 
Q 44.09375 48.828125 44.09375 54.296875 
Q 44.09375 59.90625 40.109375 62.90625 
Q 36.140625 65.921875 28.71875 65.921875 
Q 24.65625 65.921875 20.015625 65.03125 
Q 15.375 64.15625 9.8125 62.3125 
L 9.8125 71.09375 
Q 15.4375 72.65625 20.34375 73.4375 
Q 25.25 74.21875 29.59375 74.21875 
Q 40.828125 74.21875 47.359375 69.109375 
Q 53.90625 64.015625 53.90625 55.328125 
Q 53.90625 49.265625 50.4375 45.09375 
Q 46.96875 40.921875 40.578125 39.3125 
z
" id="DejaVuSans-51"/>
      </defs>
      <g transform="translate(34.696875 67.047439)scale(0.1 -0.1)">
       <use xlink:href="#DejaVuSans-49"/>
       <use x="63.623047" xlink:href="#DejaVuSans-46"/>
       <use x="95.410156" xlink:href="#DejaVuSans-51"/>
      </g>
     </g>
    </g>
    <g id="text_13">
     <!-- 1e−8 -->
     <defs>
      <path d="M 56.203125 29.59375 
L 56.203125 25.203125 
L 14.890625 25.203125 
Q 15.484375 15.921875 20.484375 11.0625 
Q 25.484375 6.203125 34.421875 6.203125 
Q 39.59375 6.203125 44.453125 7.46875 
Q 49.3125 8.734375 54.109375 11.28125 
L 54.109375 2.78125 
Q 49.265625 0.734375 44.1875 -0.34375 
Q 39.109375 -1.421875 33.890625 -1.421875 
Q 20.796875 -1.421875 13.15625 6.1875 
Q 5.515625 13.8125 5.515625 26.8125 
Q 5.515625 40.234375 12.765625 48.109375 
Q 20.015625 56 32.328125 56 
Q 43.359375 56 49.78125 48.890625 
Q 56.203125 41.796875 56.203125 29.59375 
z
M 47.21875 32.234375 
Q 47.125 39.59375 43.09375 43.984375 
Q 39.0625 48.390625 32.421875 48.390625 
Q 24.90625 48.390625 20.390625 44.140625 
Q 15.875 39.890625 15.1875 32.171875 
z
" id="DejaVuSans-101"/>
      <path d="M 10.59375 35.5 
L 73.1875 35.5 
L 73.1875 27.203125 
L 10.59375 27.203125 
z
" id="DejaVuSans-8722"/>
     </defs>
     <g transform="translate(57.6 38.472)scale(0.1 -0.1)">
      <use xlink:href="#DejaVuSans-49"/>
      <use x="63.623047" xlink:href="#DejaVuSans-101"/>
      <use x="125.146484" xlink:href="#DejaVuSans-8722"/>
      <use x="208.935547" xlink:href="#DejaVuSans-56"/>
     </g>
    </g>
   </g>
   <g id="line2d_13">
    <path clip-path="url(#p1bfec5c714)" d="M 73.832727 303.932122 
L 74.784328 302.895228 
L 75.577329 301.692896 
L 76.37033 300.095855 
L 77.321931 297.6159 
L 78.432132 294.042183 
L 80.811135 285.323133 
L 83.983138 273.296438 
L 85.72774 265.571978 
L 89.216944 248.810461 
L 91.913147 236.05592 
L 93.181948 231.237324 
L 94.609349 226.861626 
L 96.353951 221.511205 
L 99.843155 209.921322 
L 100.636156 208.273915 
L 101.587757 206.820243 
L 105.076961 202.371197 
L 105.869961 201.746804 
L 106.504362 201.520937 
L 107.138763 201.513483 
L 108.248964 201.785378 
L 110.469366 202.548667 
L 110.945167 202.986578 
L 111.420967 203.689867 
L 111.896768 204.733701 
L 112.531168 206.735469 
L 113.324169 210.210453 
L 114.43437 216.329525 
L 116.020372 224.907725 
L 116.813373 228.147216 
L 117.606374 230.580785 
L 118.716575 233.176875 
L 120.143977 236.564216 
L 121.412778 240.285113 
L 123.950381 247.885352 
L 125.853583 253.540369 
L 127.439584 259.137865 
L 129.184186 265.107197 
L 130.611588 269.070724 
L 132.35619 273.863604 
L 133.624991 278.124377 
L 136.321194 287.499158 
L 137.431395 290.482054 
L 138.858796 293.646598 
L 141.079199 297.965356 
L 142.823801 300.897159 
L 145.361403 304.645812 
L 146.630205 306.267562 
L 147.581806 307.13151 
L 148.374807 307.513352 
L 149.009207 307.582255 
L 149.802208 307.406588 
L 150.753809 306.923444 
L 153.608612 305.022151 
L 155.036014 303.932122 
L 155.987615 302.895228 
L 156.780616 301.692896 
L 157.573616 300.095855 
L 158.525217 297.6159 
L 159.635419 294.042183 
L 162.014421 285.323133 
L 165.186424 273.296438 
L 166.931026 265.571978 
L 170.42023 248.810461 
L 173.116433 236.05592 
L 174.385234 231.237324 
L 175.812636 226.861626 
L 177.557238 221.511205 
L 181.046441 209.921322 
L 181.839442 208.273915 
L 182.791043 206.820243 
L 186.280247 202.371197 
L 187.073248 201.746804 
L 187.707648 201.520937 
L 188.342049 201.513483 
L 189.45225 201.785378 
L 191.672653 202.548667 
L 192.148453 202.986578 
L 192.624254 203.689867 
L 193.100054 204.733701 
L 193.734455 206.735469 
L 194.527456 210.210453 
L 195.637657 216.329525 
L 197.223659 224.907725 
L 198.016659 228.147216 
L 198.80966 230.580785 
L 199.919861 233.176875 
L 201.347263 236.564216 
L 202.616064 240.285113 
L 205.153667 247.885352 
L 207.056869 253.540369 
L 208.642871 259.137865 
L 210.387473 265.107197 
L 211.814874 269.070724 
L 213.559476 273.863604 
L 214.828277 278.124377 
L 217.52448 287.499158 
L 218.634681 290.482054 
L 220.062083 293.646598 
L 222.282485 297.965356 
L 224.027087 300.897159 
L 226.56469 304.645812 
L 227.833491 306.267562 
L 228.785092 307.13151 
L 229.578093 307.513352 
L 230.212494 307.582255 
L 231.005495 307.406588 
L 231.957096 306.923444 
L 234.811899 305.022151 
L 236.2393 303.932122 
L 237.190901 302.895228 
L 237.983902 301.692896 
L 238.776903 300.095855 
L 239.728504 297.6159 
L 240.838705 294.042183 
L 243.217708 285.323133 
L 246.389711 273.296438 
L 248.134313 265.571978 
L 251.623516 248.810461 
L 254.319719 236.05592 
L 255.588521 231.237324 
L 257.015922 226.861626 
L 258.760524 221.511205 
L 262.249728 209.921322 
L 263.042729 208.273915 
L 263.99433 206.820243 
L 267.483533 202.371197 
L 268.276534 201.746804 
L 268.910935 201.520937 
L 269.545336 201.513483 
L 270.655537 201.785378 
L 272.875939 202.548667 
L 273.35174 202.986578 
L 273.82754 203.689867 
L 274.303341 204.733701 
L 274.937741 206.735469 
L 275.730742 210.210453 
L 276.840943 216.329525 
L 278.426945 224.907725 
L 279.219946 228.147216 
L 280.012947 230.580785 
L 281.123148 233.176875 
L 282.550549 236.564216 
L 283.819351 240.285113 
L 286.356953 247.885352 
L 288.260155 253.540369 
L 289.846157 259.137865 
L 291.590759 265.107197 
L 293.018161 269.070724 
L 294.762762 273.863604 
L 296.031564 278.124377 
L 298.727767 287.499158 
L 299.837968 290.482054 
L 301.265369 293.646598 
L 303.485772 297.965356 
L 305.230373 300.897159 
L 307.767976 304.645812 
L 309.036778 306.267562 
L 309.988379 307.13151 
L 310.781379 307.513352 
L 311.41578 307.582255 
L 312.208781 307.406588 
L 313.160382 306.923444 
L 316.015185 305.022151 
L 317.442586 303.932122 
L 318.394188 302.895228 
L 319.187188 301.692896 
L 319.980189 300.095855 
L 320.93179 297.6159 
L 322.041991 294.042183 
L 324.420994 285.323133 
L 327.592997 273.296438 
L 329.337599 265.571978 
L 332.826803 248.810461 
L 335.523006 236.05592 
L 336.791807 231.237324 
L 338.219209 226.861626 
L 339.96381 221.511205 
L 343.453014 209.921322 
L 344.246015 208.273915 
L 345.197616 206.820243 
L 348.68682 202.371197 
L 349.479821 201.746804 
L 350.114221 201.520937 
L 350.748622 201.513483 
L 351.858823 201.785378 
L 354.079225 202.548667 
L 354.555026 202.986578 
L 355.030826 203.689867 
L 355.506627 204.733701 
L 356.141028 206.735469 
L 356.934029 210.210453 
L 358.04423 216.329525 
L 359.630231 224.907725 
L 360.423232 228.147216 
L 361.216233 230.580785 
L 362.326434 233.176875 
L 363.753836 236.564216 
L 365.022637 240.285113 
L 367.56024 247.885352 
L 369.463442 253.540369 
L 371.049444 259.137865 
L 372.794045 265.107197 
L 374.221447 269.070724 
L 375.966049 273.863604 
L 377.23485 278.124377 
L 379.931053 287.499158 
L 381.041254 290.482054 
L 382.468656 293.646598 
L 384.689058 297.965356 
L 386.43366 300.897159 
L 388.971263 304.645812 
L 390.240064 306.267562 
L 391.191665 307.13151 
L 391.984666 307.513352 
L 392.619066 307.582255 
L 393.412067 307.406588 
L 394.363668 306.923444 
L 397.218471 305.022151 
L 398.487273 304.073287 
L 398.487273 304.073287 
" style="fill:none;stroke:#1f77b4;stroke-linecap:square;stroke-width:1.5;"/>
   </g>
   <g id="patch_3">
    <path d="M 57.6 307.584 
L 57.6 41.472 
" style="fill:none;stroke:#000000;stroke-linecap:square;stroke-linejoin:miter;stroke-width:0.8;"/>
   </g>
   <g id="patch_4">
    <path d="M 414.72 307.584 
L 414.72 41.472 
" style="fill:none;stroke:#000000;stroke-linecap:square;stroke-linejoin:miter;stroke-width:0.8;"/>
   </g>
   <g id="patch_5">
    <path d="M 57.6 307.584 
L 414.72 307.584 
" style="fill:none;stroke:#000000;stroke-linecap:square;stroke-linejoin:miter;stroke-width:0.8;"/>
   </g>
   <g id="patch_6">
    <path d="M 57.6 41.472 
L 414.72 41.472 
" style="fill:none;stroke:#000000;stroke-linecap:square;stroke-linejoin:miter;stroke-width:0.8;"/>
   </g>
  </g>
 </g>
 <defs>
  <clipPath id="p1bfec5c714">
   <rect height="266.112" width="357.12" x="57.6" y="41.472"/>
  </clipPath>
 </defs>
</svg>
